<?xml version="1.0" encoding="UTF-8" standalone="no"?>
<svg
   style="height: 512px; width: 512px;"
   viewBox="0 0 512 512"
   version="1.1"
   id="svg2"
   sodipodi:docname="tune-pitch.svg"
   inkscape:version="1.4 (86a8ad7, 2024-10-11)"
   xmlns:inkscape="http://www.inkscape.org/namespaces/inkscape"
   xmlns:sodipodi="http://sodipodi.sourceforge.net/DTD/sodipodi-0.dtd"
   xmlns="http://www.w3.org/2000/svg"
   xmlns:svg="http://www.w3.org/2000/svg">
  <defs
     id="defs2">
    <filter
       style="color-interpolation-filters:sRGB;"
       inkscape:label="Drop Shadow"
       id="filter3"
       x="-0.075092614"
       y="-0.092203853"
       width="1.1501852"
       height="1.1844077">
      <feFlood
         result="flood"
         in="SourceGraphic"
         flood-opacity="1.000000"
         flood-color="rgb(58,63,94)"
         id="feFlood2" />
      <feGaussianBlur
         result="blur"
         in="SourceGraphic"
         stdDeviation="15.000000"
         id="feGaussianBlur2" />
      <feOffset
         result="offset"
         in="blur"
         dx="0.000000"
         dy="0.000000"
         id="feOffset2" />
      <feComposite
         result="comp1"
         operator="out"
         in="flood"
         in2="offset"
         id="feComposite2" />
      <feComposite
         result="comp2"
         operator="atop"
         in="comp1"
         in2="SourceGraphic"
         id="feComposite3" />
    </filter>
  </defs>
  <sodipodi:namedview
     id="namedview2"
     pagecolor="#505050"
     bordercolor="#ffffff"
     borderopacity="1"
     inkscape:showpageshadow="0"
     inkscape:pageopacity="0"
     inkscape:pagecheckerboard="1"
     inkscape:deskcolor="#505050"
     inkscape:zoom="1.5761719"
     inkscape:cx="256"
     inkscape:cy="256"
     inkscape:window-width="1920"
     inkscape:window-height="1009"
     inkscape:window-x="-8"
     inkscape:window-y="-8"
     inkscape:window-maximized="1"
     inkscape:current-layer="svg2" />
  <path
     d="M0 0h512v512H0z"
     fill="#000"
     fill-opacity="1"
     id="path1"
     style="fill:#1b1f21" />
  <g
     class=""
     style="fill:#e64539;filter:url(#filter3)"
     transform="translate(0,0)"
     id="g2">
    <path
       d="M228.47 47.906v42.908H19.53V109.5h208.94v21.875H19.53v18.688h208.94V343.03c-16.86-14.274-43.56-23.457-73.626-23.405-50.982.088-92.313 26.714-92.313 59.5s41.332 59.307 92.314 59.22c26.19-.047 49.822-7.113 66.625-18.408h277.467V401.25H240.344c4.22-6.653 6.627-13.906 6.812-21.5.006-.25.03-.5.03-.75h251.75l.002-18.688H247.155V182.25c24.89 40.517 45.422 63.12 64.5 74.656 23.127 13.983 44.285 9.79 60.688 3.28 16.403-6.508 29.112-13.624 42.406-11.655 13.294 1.97 30.884 13.118 55.594 50.595l16.5 25c-11.733-45.096-41.555-105.8-75.72-121.28 27.93-4.62 53.664 11.71 76.376 29.718l-1.53-2.313c-13.05-20.11-24.207-33.715-34.658-42.75-10.45-9.035-20.606-13.596-30.343-14.125-19.477-1.058-32.544 12.03-44.595 18.656-6.025 3.314-11.596 5.395-17.813 5.44-6.216.043-13.607-1.854-23.562-8.47-19.91-13.232-48.717-45.747-89.188-112.5l-17.34-28.596z"
       fill="#fff"
       fill-opacity="1"
       id="path2"
       style="fill:#e64539" />
  </g>
</svg>
