<?xml version="1.0" encoding="UTF-8" standalone="no"?>
<svg
   width="512"
   height="512"
   viewBox="0 0 512 512"
   version="1.1"
   id="svg8"
   sodipodi:docname="shining-finger.svg"
   inkscape:version="1.4.2 (f4327f4, 2025-05-13)"
   xml:space="preserve"
   xmlns:inkscape="http://www.inkscape.org/namespaces/inkscape"
   xmlns:sodipodi="http://sodipodi.sourceforge.net/DTD/sodipodi-0.dtd"
   xmlns="http://www.w3.org/2000/svg"
   xmlns:svg="http://www.w3.org/2000/svg"><defs
     id="defs12"><filter
       inkscape:label="Drop Shadow"
       id="filter875"
       x="-0.31291152"
       y="-0.16857506"
       width="1.6092078"
       height="1.3282203"
       color-interpolation-filters="sRGB"><feFlood
         flood-opacity="1"
         flood-color="rgb(58,63,94)"
         result="flood"
         id="feFlood865" /><feComposite
         in="flood"
         in2="SourceGraphic"
         operator="out"
         result="composite1"
         id="feComposite867" /><feGaussianBlur
         in="composite1"
         stdDeviation="15"
         result="blur"
         id="feGaussianBlur869" /><feOffset
         dx="0"
         dy="0"
         result="offset"
         id="feOffset871" /><feComposite
         in="offset"
         in2="SourceGraphic"
         operator="atop"
         result="composite2"
         id="feComposite873" /></filter><filter
       inkscape:label="Drop Shadow"
       id="filter1015"
       x="-0.081997928"
       y="-0.044180702"
       width="1.1639959"
       height="1.0883614"
       color-interpolation-filters="sRGB"><feFlood
         flood-opacity="1"
         flood-color="rgb(58,63,94)"
         result="flood"
         id="feFlood1005" /><feComposite
         in="flood"
         in2="SourceGraphic"
         operator="out"
         result="composite1"
         id="feComposite1007" /><feGaussianBlur
         in="composite1"
         stdDeviation="8.30229"
         result="blur"
         id="feGaussianBlur1009" /><feOffset
         dx="0"
         dy="0"
         result="offset"
         id="feOffset1011" /><feComposite
         in="offset"
         in2="SourceGraphic"
         operator="atop"
         result="composite2"
         id="feComposite1013" /></filter><filter
       inkscape:label="Drop Shadow"
       id="filter35638"
       x="-0.057142887"
       y="-0.13067032"
       width="1.1142858"
       height="1.2613406"
       color-interpolation-filters="sRGB"><feFlood
         flood-opacity="1"
         flood-color="rgb(58,63,94)"
         result="flood"
         id="feFlood35628" /><feComposite
         in="flood"
         in2="SourceGraphic"
         operator="out"
         result="composite1"
         id="feComposite35630" /><feGaussianBlur
         in="composite1"
         stdDeviation="6"
         result="blur"
         id="feGaussianBlur35632" /><feOffset
         dx="0"
         dy="0"
         result="offset"
         id="feOffset35634" /><feComposite
         in="offset"
         in2="SourceGraphic"
         operator="atop"
         result="composite2"
         id="feComposite35636" /></filter><filter
       inkscape:label="Drop Shadow"
       id="filter35813"
       x="-0.053321701"
       y="-0.069584126"
       width="1.1066434"
       height="1.1391683"
       color-interpolation-filters="sRGB"><feFlood
         flood-opacity="1"
         flood-color="rgb(58,63,94)"
         result="flood"
         id="feFlood35803" /><feComposite
         in="flood"
         in2="SourceGraphic"
         operator="out"
         result="composite1"
         id="feComposite35805" /><feGaussianBlur
         in="composite1"
         stdDeviation="8"
         result="blur"
         id="feGaussianBlur35807" /><feOffset
         dx="0"
         dy="0"
         result="offset"
         id="feOffset35809" /><feComposite
         in="offset"
         in2="SourceGraphic"
         operator="atop"
         result="composite2"
         id="feComposite35811" /></filter><filter
       inkscape:label="Drop Shadow"
       id="filter36051"
       x="-0.028125"
       y="-0.038976963"
       width="1.05625"
       height="1.0779539"
       color-interpolation-filters="sRGB"><feFlood
         flood-opacity="1"
         flood-color="rgb(58,63,94)"
         result="flood"
         id="feFlood36041" /><feComposite
         in="flood"
         in2="SourceGraphic"
         operator="out"
         result="composite1"
         id="feComposite36043" /><feGaussianBlur
         in="composite1"
         stdDeviation="6"
         result="blur"
         id="feGaussianBlur36045" /><feOffset
         dx="0"
         dy="0"
         result="offset"
         id="feOffset36047" /><feComposite
         in="offset"
         in2="SourceGraphic"
         operator="atop"
         result="composite2"
         id="feComposite36049" /></filter><filter
       inkscape:label="Drop Shadow"
       id="filter36715"
       x="-0.069720211"
       y="-0.091087118"
       width="1.1394404"
       height="1.1821742"
       color-interpolation-filters="sRGB"><feFlood
         flood-opacity="1"
         flood-color="rgb(58,63,94)"
         result="flood"
         id="feFlood36705" /><feComposite
         in="flood"
         in2="SourceGraphic"
         operator="out"
         result="composite1"
         id="feComposite36707" /><feGaussianBlur
         in="composite1"
         stdDeviation="16.2006"
         result="blur"
         id="feGaussianBlur36709" /><feOffset
         dx="0"
         dy="0"
         result="offset"
         id="feOffset36711" /><feComposite
         in="offset"
         in2="SourceGraphic"
         operator="atop"
         result="composite2"
         id="feComposite36713" /></filter><filter
       inkscape:label="Drop Shadow"
       id="filter37057"
       x="-0.079999702"
       y="-0.075040311"
       width="1.1599994"
       height="1.1500806"
       color-interpolation-filters="sRGB"><feFlood
         flood-opacity="1"
         flood-color="rgb(58,63,94)"
         result="flood"
         id="feFlood37047" /><feComposite
         in="flood"
         in2="SourceGraphic"
         operator="out"
         result="composite1"
         id="feComposite37049" /><feGaussianBlur
         in="composite1"
         stdDeviation="0.5"
         result="blur"
         id="feGaussianBlur37051" /><feOffset
         dx="0"
         dy="0"
         result="offset"
         id="feOffset37053" /><feComposite
         in="offset"
         in2="SourceGraphic"
         operator="atop"
         result="composite2"
         id="feComposite37055" /></filter><filter
       style="color-interpolation-filters:sRGB;"
       inkscape:label="Drop Shadow"
       id="filter5"
       x="-0.29670988"
       y="-0.3956834"
       width="1.5934198"
       height="1.7913668"><feFlood
         result="flood"
         in="SourceGraphic"
         flood-opacity="1.000000"
         flood-color="rgb(58,63,94)"
         id="feFlood4" /><feGaussianBlur
         result="blur"
         in="SourceGraphic"
         stdDeviation="15.000000"
         id="feGaussianBlur4" /><feOffset
         result="offset"
         in="blur"
         dx="0.000000"
         dy="0.000000"
         id="feOffset4" /><feComposite
         result="comp1"
         operator="in"
         in="flood"
         in2="offset"
         id="feComposite4" /><feComposite
         result="comp2"
         operator="over"
         in="SourceGraphic"
         in2="comp1"
         id="feComposite5" /></filter></defs><sodipodi:namedview
     id="namedview10"
     pagecolor="#505050"
     bordercolor="#eeeeee"
     borderopacity="1"
     inkscape:pageshadow="0"
     inkscape:pageopacity="0"
     inkscape:pagecheckerboard="0"
     showgrid="false"
     inkscape:zoom="0.8779297"
     inkscape:cx="423.15461"
     inkscape:cy="415.18131"
     inkscape:window-width="1920"
     inkscape:window-height="1009"
     inkscape:window-x="-8"
     inkscape:window-y="-8"
     inkscape:window-maximized="1"
     inkscape:current-layer="svg8"
     inkscape:showpageshadow="2"
     inkscape:deskcolor="#505050"
     showguides="true" /><path
     d="M0 0h512v512H0z"
     fill="#1b1f21"
     fill-opacity="1"
     id="path2" /><style
     type="text/css"
     id="style35976">.st0{fill:#000000;}</style><g
     id="g36830"
     transform="matrix(29.866556,0,0,29.866556,17.067552,17.067552)"
     fill="#e64539"
     fill-opacity="1"
     filter="url(#filter37057)"><path
       id="path36821"
       d="M 8,0.00427771 C 7.5888754,0.00428978 7.1856123,0.11694562 6.8340062,0.33001047 L 1.584026,3.5120029 C 0.91114923,3.9196958 0.50009397,4.6492401 0.49997221,5.4359908 v 5.1280182 c 1.2173e-4,0.786751 0.41117699,1.516295 1.08405379,1.923988 l 5.2499802,3.181993 c 0.7166795,0.434257 1.6153081,0.434257 2.3319876,0 l 5.2499802,-3.181993 c 0.672877,-0.407693 1.083932,-1.137237 1.084054,-1.923988 V 5.4359908 C 15.499906,4.6492401 15.088851,3.9196957 14.415974,3.5120029 L 9.1659938,0.33001047 C 8.8143877,0.11694562 8.4111246,0.00428978 8,0.00427771 Z"
       sodipodi:nodetypes="cccccccccccccc"
       fill="#e64539"
       fill-opacity="1" /></g><g
     id="g36899"
     transform="matrix(0.56141049,0,0,0.56141049,112.27908,112.2792)"
     fill="#000000"><g
       id="g36887"><g
         id="g36885"><g
           id="g36883" /></g></g></g><g
     style="fill:#000000"
     id="g2"
     transform="matrix(2.9466296,0,0,2.8996504,-129.85284,-34.181025)"><path
       id="path1"
       style="stroke-width:0.4815;fill:#1b1f21;fill-opacity:1;filter:url(#filter5)"
       d="M 133.7112 51.043118 C 131.22141 51.161142 129.13374 52.165707 127.17765 54.091707 C 122.9886 58.232607 122.98841 64.97317 127.12926 69.16222 C 131.27016 73.35127 137.77031 73.159017 142.20011 69.210717 C 147.83366 64.203117 149.13382 56.595291 147.88192 51.539541 C 145.04107 53.176641 141.7667 52.743006 138.6851 51.780006 C 136.84336 51.220262 135.20507 50.972303 133.7112 51.043118 z M 142.58588 73.303344 C 139.84133 73.303344 136.95212 75.180925 135.26687 76.721725 C 132.08897 79.610725 129.63345 84.810924 129.63345 89.144424 L 129.63345 100.70024 L 116.29591 109.46409 C 114.12916 110.90859 113.50321 113.84581 114.9477 116.01256 C 115.86255 117.40891 117.35474 118.13095 118.89554 118.13095 C 119.52149 118.13095 120.14782 117.98641 120.72562 117.74566 L 138.9741 105.75607 L 138.9741 94.103939 C 138.9741 93.333539 139.5519 92.659452 140.3223 92.611302 C 141.14085 92.563152 141.815 93.237218 141.815 94.007618 L 141.815 107.29721 L 120.72562 121.21254 C 118.89592 121.01994 116.97005 120.87541 115.0922 120.82726 C 106.85856 120.58651 91.642855 123.3311 91.450255 133.4426 C 91.305805 138.1613 95.205645 142.01314 99.876195 142.01314 L 142.72971 142.01314 C 145.18536 142.01314 147.64155 141.29077 149.712 139.94257 L 164.34935 130.361 L 177.68689 140.569 C 178.93879 141.532 180.38311 141.96531 181.82761 141.96531 C 183.84991 141.96531 185.87223 141.05023 187.22043 139.31683 C 189.53163 136.33153 189.00202 132.09428 186.01672 129.78308 L 168.87518 116.58981 C 166.66028 114.85641 163.24185 114.71221 160.83435 116.15671 L 142.58588 128.1463 C 142.34513 128.29075 142.05575 128.38676 141.815 128.38676 C 141.3335 128.38676 140.80432 128.0977 140.56357 127.6162 C 140.22652 126.9421 140.46722 126.12348 141.09317 125.73828 L 146.87109 121.93461 C 149.32674 120.29751 150.81893 117.55339 150.81893 114.61624 L 150.81893 81.633416 C 150.81893 76.914716 147.35273 73.303344 142.58588 73.303344 z M 78.161105 120.34565 C 72.190505 120.34565 67.32709 125.20879 67.32709 131.17939 C 67.32709 137.14999 72.190505 142.01314 78.161105 142.01314 C 84.131705 142.01314 88.994456 137.14999 88.994456 131.17939 C 88.994456 125.20879 84.131705 120.34565 78.161105 120.34565 z " /></g></svg>
