<?xml version="1.0" encoding="UTF-8" standalone="no"?>
<svg
   viewBox="0 0 512 512"
   version="1.1"
   id="svg3"
   sodipodi:docname="battery.svg"
   inkscape:export-filename="ammo_paintball_basic.svg"
   inkscape:export-xdpi="96"
   inkscape:export-ydpi="96"
   xml:space="preserve"
   width="512"
   height="512"
   inkscape:version="1.4 (86a8ad7, 2024-10-11)"
   xmlns:inkscape="http://www.inkscape.org/namespaces/inkscape"
   xmlns:sodipodi="http://sodipodi.sourceforge.net/DTD/sodipodi-0.dtd"
   xmlns:xlink="http://www.w3.org/1999/xlink"
   xmlns="http://www.w3.org/2000/svg"
   xmlns:svg="http://www.w3.org/2000/svg"
   xmlns:rdf="http://www.w3.org/1999/02/22-rdf-syntax-ns#"
   xmlns:cc="http://creativecommons.org/ns#"
   xmlns:dc="http://purl.org/dc/elements/1.1/"><sodipodi:namedview
     id="namedview3"
     pagecolor="#999999"
     bordercolor="#000000"
     borderopacity="0.25"
     inkscape:showpageshadow="2"
     inkscape:pageopacity="0.0"
     inkscape:pagecheckerboard="true"
     inkscape:deskcolor="#333333"
     inkscape:zoom="1.5761719"
     inkscape:cx="255.68277"
     inkscape:cy="205.24411"
     inkscape:window-width="1920"
     inkscape:window-height="1009"
     inkscape:window-x="-8"
     inkscape:window-y="-8"
     inkscape:window-maximized="1"
     inkscape:current-layer="svg3"><inkscape:page
       x="0"
       y="0"
       width="512"
       height="512"
       id="page2"
       margin="0"
       bleed="0" /></sodipodi:namedview><defs
     id="defs2"><inkscape:path-effect
       effect="fillet_chamfer"
       id="path-effect22"
       is_visible="true"
       lpeversion="1"
       nodesatellites_param="F,0,0,1,0,12.40523,0,1 @ F,0,1,1,0,12.40523,0,1 @ F,0,0,1,0,0,0,1 @ F,0,0,1,0,0,0,1"
       radius="0"
       unit="px"
       method="auto"
       mode="F"
       chamfer_steps="1"
       flexible="false"
       use_knot_distance="true"
       apply_no_radius="true"
       apply_with_radius="true"
       only_selected="false"
       hide_knots="false" /><linearGradient
       id="linearGradient29"
       inkscape:collect="always"><stop
         style="stop-color:#19aeff;stop-opacity:1"
         offset="0"
         id="stop29" /><stop
         style="stop-color:#005c94;stop-opacity:1"
         offset="1"
         id="stop30" /></linearGradient><linearGradient
       inkscape:collect="always"
       xlink:href="#linearGradient29"
       id="linearGradient30"
       x1="202.75153"
       y1="140.32089"
       x2="202.75153"
       y2="265.19589"
       gradientUnits="userSpaceOnUse"
       gradientTransform="matrix(0.64141805,0,0,1.1958453,241.86434,-38.643027)" /><clipPath
       clipPathUnits="userSpaceOnUse"
       id="clipPath1"><path
         id="path1"
         style="display:inline;fill:#ffff3e;fill-opacity:1;stroke:none;stroke-width:0.378763;stroke-dasharray:none;stroke-opacity:1"
         inkscape:label="clipping mask"
         d="m 395.84051,121.17157 c -19.04155,0.0123 -38.08412,-0.0318 -57.12502,0.0234 -2.97849,0.3232 -5.11823,3.0679 -5.48105,5.79626 -0.47615,2.94744 0.73763,6.34008 3.54162,7.84104 2.16354,1.03625 4.63942,0.43296 6.95156,0.59911 20.41507,-0.006 40.83136,0.029 61.24564,-0.0354 2.98713,-0.32997 5.11567,-3.1044 5.45809,-5.84018 0.46265,-2.94203 -0.76663,-6.31999 -3.57521,-7.7982 -1.95057,-0.94649 -4.20003,-0.48938 -6.29375,-0.59549 -1.57396,0.003 -3.14792,0.007 -4.72188,0.01 z m 6.35938,21.67973 c -21.16843,-0.002 -42.33842,-0.0316 -63.50586,0.015 -3.04458,0.35712 -5.20548,3.21107 -5.48438,6.01714 -0.39981,2.94909 1.02825,6.3228 3.94799,7.59547 2.13145,0.79637 4.4574,0.27311 6.67818,0.42928 20.39259,-0.008 40.78672,0.0268 61.17834,-0.0365 3.07132,-0.39885 5.21296,-3.30688 5.45853,-6.1439 0.35359,-2.98483 -1.17961,-6.35737 -4.1771,-7.54033 -1.30743,-0.45683 -2.73122,-0.35602 -4.0957,-0.33615 z m -6.35938,21.47879 c -19.04155,0.0123 -38.08412,-0.0318 -57.12502,0.0233 -3.01286,0.32859 -5.16649,3.12752 -5.49406,5.89161 -0.44535,2.96553 0.82014,6.37919 3.69135,7.81143 2.1746,0.94749 4.6146,0.365 6.91289,0.53149 20.38174,-0.006 40.76466,0.0237 61.14566,-0.0334 2.98773,-0.3306 5.11876,-3.10258 5.46002,-5.8404 0.46278,-2.94184 -0.7663,-6.32067 -3.57521,-7.79817 -1.95057,-0.94649 -4.20003,-0.48938 -6.29375,-0.5955 -1.57396,0.003 -3.14792,0.007 -4.72188,0.01 z m 6.90234,21.57645 c -21.28172,-0.002 -42.56468,-0.0162 -63.84563,0.0224 -3.27492,0.36651 -5.60784,3.49365 -5.72663,6.53374 -0.27221,3.03536 1.47588,6.42276 4.59302,7.43111 2.13018,0.55333 4.35709,0.12949 6.53003,0.26881 20.2824,-0.006 40.56595,0.0283 60.84762,-0.0351 2.9846,-0.3332 5.09825,-3.09867 5.45645,-5.82785 0.45509,-2.9387 -0.75661,-6.30845 -3.55407,-7.79959 -1.31394,-0.68877 -2.85302,-0.62705 -4.30079,-0.59344 z m 0.38477,21.65907 c -15.11325,0.0411 -30.22741,-0.0103 -45.34101,0.0121 -6.33265,0.0172 -12.66771,-0.0253 -18.99883,0.0292 -3.07915,0.40934 -5.21635,3.33398 -5.43683,6.18406 -0.3154,2.90305 1.11124,6.19411 3.99014,7.42701 2.12747,0.78666 4.4459,0.26479 6.66075,0.42142 20.39133,-0.008 40.78404,0.0261 61.17449,-0.0361 3.05254,-0.39094 5.18479,-3.27308 5.45724,-6.08636 0.36605,-2.98019 -1.13005,-6.34925 -4.10481,-7.56984 -1.07758,-0.40617 -2.26224,-0.38958 -3.40114,-0.38158 z m -7.10352,21.49757 c -19.048,0.0129 -38.09724,-0.033 -57.14447,0.0241 -2.94763,0.31505 -5.07182,3.01177 -5.47076,5.70566 -0.5005,2.95969 0.67899,6.37384 3.48633,7.90641 2.16919,1.06981 4.67018,0.4535 6.99648,0.62164 20.41639,-0.006 40.83392,0.0286 61.24958,-0.0351 2.95971,-0.32875 5.0578,-3.05196 5.44925,-5.75297 0.46665,-2.90738 -0.6759,-6.22876 -3.38672,-7.7881 -1.94182,-1.06076 -4.25681,-0.58757 -6.37929,-0.69145 -1.60013,0.003 -3.20026,0.007 -4.8004,0.01 z m 7.19532,21.65907 c -13.63139,0.0463 -27.26389,-0.008 -40.89571,0.0124 -7.83856,0.0153 -15.679,-0.0193 -23.5164,0.0271 -3.11668,0.40637 -5.28217,3.38647 -5.45703,6.27443 -0.32105,2.94752 1.22809,6.27843 4.19629,7.42178 2.21087,0.66223 4.55733,0.1941 6.82871,0.34006 20.26684,-0.008 40.53508,0.0261 60.80105,-0.0361 3.04867,-0.393 5.18328,-3.26706 5.45574,-6.0788 0.3659,-2.95306 -1.09207,-6.28472 -4.01313,-7.54064 -1.06924,-0.43694 -2.25882,-0.42817 -3.39952,-0.4202 z m -7.20703,21.49757 c -19.07013,0.0129 -38.14155,-0.0332 -57.21086,0.0243 -3.02658,0.32813 -5.17979,3.1425 -5.50204,5.91768 -0.43687,2.9574 0.83294,6.35593 3.69336,7.78434 2.17555,0.94853 4.61543,0.36819 6.91485,0.53339 20.38371,-0.006 40.76855,0.0286 61.15153,-0.0351 2.95598,-0.32574 5.0564,-3.04781 5.4473,-5.74544 0.47859,-2.91722 -0.68009,-6.26039 -3.41109,-7.80979 -1.94705,-1.04766 -4.25876,-0.57331 -6.38227,-0.67909 -1.56693,0.003 -3.13386,0.007 -4.70078,0.01 z" /></clipPath></defs><path
     d="M 0,1.77002e-6 H 512 V 512 H 0 Z"
     fill="#1b1f21"
     fill-opacity="1"
     id="path2"
     inkscape:label="Background" /><g
     id="g14"
     inkscape:label="cannister"
     transform="matrix(0.83805249,0.83805249,-0.83805249,0.83805249,256.00084,-83.836148)"
     style="filter:url(#filter34)">
	
<g
   id="g32"
   inkscape:label="base"
   style="filter:url(#filter34)"><path
     style="fill:#9eabb0;stroke-width:0.84375"
     d="m 114.15939,342.81552 16.87436,40.5015 h 143.43849 l 16.87436,-40.5015 z"
     id="path8"
     inkscape:label="cannister-lower" /><path
     style="fill:#3a3f5e;stroke-width:0.84375"
     d="M 114.15939,77.49848 V 328.00952 H 291.3466 V 77.49848 Z"
     id="path6"
     inkscape:label="cannister-main" /><path
     style="fill:#9eabb0;stroke-width:0.84375"
     d="m 131.03375,22.190982 -16.87436,40.5015 H 291.3466 l -16.87436,-40.5015 z"
     id="path3"
     inkscape:label="cannister-upper" /><path
     id="rect22"
     style="display:inline;fill:#cccccc;stroke-width:4;stroke-linecap:round;stroke-linejoin:round;stroke-miterlimit:5"
     d="m 220.40523,19.793697 h 71.18954 A 12.40523,12.40523 45 0 1 304,32.198927 v 9.80047 h -96 v -9.80047 a 12.40523,12.40523 135 0 1 12.40523,-12.40523 z"
     inkscape:path-effect="#path-effect22"
     inkscape:original-d="m 208,19.793697 h 96 v 22.2057 h -96 z"
     transform="matrix(0.84374999,0,0,0.84374999,-13.247,-13.246008)"
     inkscape:label="battery nub" /></g><g
   id="g33"
   inkscape:label="stripes"
   style="filter:url(#filter34)"><path
     id="rect5"
     style="display:inline;fill:#bdcdd4;stroke:none;stroke-width:0.534818;stroke-dasharray:none;stroke-opacity:1"
     d="m 291.34675,287.50952 -10e-6,14.64696 -18.49893,-14.64696 z m -27.93689,0 27.93689,22.1205 V 327.0695 L 241.3854,287.50952 Z m -31.46395,0 51.15093,40.49998 h -22.02445 l -51.15094,-40.49998 z m -31.65399,0 51.14941,40.49998 h -22.02447 l -51.14938,-40.49998 z m -31.46239,0 51.14939,40.49998 -22.02446,2e-5 -51.14939,-40.5 z m -32.33529,0 51.14938,40.49998 h -22.02291 l -51.14939,-40.49998 z m -22.33499,7.22637 42.02197,33.27363 -22.02446,-2e-5 -19.99751,-15.83485 z m 0,24.9123 10.55956,8.36131 -10.55956,2e-5 z"
     inkscape:label="bottom-white" /><path
     id="rect6"
     style="display:inline;fill:#9eabb0;stroke:none;stroke-width:0.534818;stroke-dasharray:none;stroke-opacity:1"
     d="m 291.34675,287.50952 -10e-6,14.64696 -18.49893,-14.64696 z m -27.93689,0 27.93689,22.1205 V 327.0695 L 241.3854,287.50952 Z m -31.46395,0 51.15093,40.49998 h -22.02445 l -51.15094,-40.49998 z m -29.19292,1.94854 48.68834,38.55144 h -22.02447 l -26.66387,-21.11268 z m 0,24.91233 17.22593,13.63911 h -17.22593 z"
     inkscape:label="bottom-grey"
     sodipodi:nodetypes="ccccccccccccccccccccccc" /><path
     id="path4"
     style="display:inline;fill:#bdcdd4;stroke:none;stroke-width:0.534818;stroke-dasharray:none;stroke-opacity:1"
     d="m 291.34675,77.49848 -10e-6,14.646956 -18.49893,-14.646956 z m -27.93689,0 27.93689,22.120506 V 117.05846 L 241.3854,77.49848 Z m -31.46395,0 51.15093,40.49999 H 261.07239 L 209.92145,77.49848 Z m -31.65399,0 51.14941,40.49999 H 229.41686 L 178.26748,77.49848 Z m -31.46239,0 51.14939,40.49999 -22.02446,1e-5 -51.14939,-40.5 z m -32.33529,0 51.14938,40.49999 H 165.62071 L 114.47132,77.49848 Z m -22.33499,7.22637 42.02197,33.27363 -22.02446,-1e-5 -19.99751,-15.83486 z m 0,24.9123 10.55956,8.36132 -10.55956,1e-5 z"
     inkscape:label="top-white" /><path
     id="path5"
     style="display:inline;fill:#9eabb0;stroke:none;stroke-width:0.534818;stroke-dasharray:none;stroke-opacity:1"
     d="m 291.34675,77.49848 -10e-6,14.646956 -18.49893,-14.646956 z m -27.93689,0 27.93689,22.120506 V 117.05846 L 241.3854,77.49848 Z m -31.46395,0 51.15093,40.49999 H 261.07239 L 209.92145,77.49848 Z m -29.19292,1.948544 48.68834,38.551446 H 229.41686 L 202.75299,96.885783 Z m 0,24.912326 17.22593,13.63912 h -17.22593 z"
     inkscape:label="top-grey"
     sodipodi:nodetypes="ccccccccccccccccccccccc" /></g><g
   id="g23"
   inkscape:label="charge status"
   style="display:inline;filter:url(#filter34)"
   transform="translate(-169.15984,-1.070632)"><path
     style="display:inline;fill:#ffffff;fill-opacity:1;stroke:none;stroke-width:0.596622;stroke-dasharray:none;stroke-opacity:1;filter:url(#filter34)"
     d="m 344.34512,356.26382 c -2.16873,0 -3.9336,3.53042 -3.93366,7.87885 0,4.34853 1.76492,7.8673 3.93366,7.86731 h 55.12884 c 2.17464,0 3.9403,-3.51793 3.94025,-7.86731 0,-4.34855 -1.7656,-7.87885 -3.94025,-7.87885 z"
     id="path14"
     inkscape:label="-" /><path
     id="path13"
     style="display:inline;fill:#0e232e;fill-opacity:1;stroke:none;stroke-width:0.378763;stroke-dasharray:none;stroke-opacity:1;filter:url(#filter34)"
     inkscape:label="cells"
     d="m 403.26735,119.49982 c -9.90719,0.0331 -19.81639,0.003 -29.72437,0.0139 -11.60117,0.0104 -23.20325,-0.0193 -34.80385,0.0161 -3.85118,0.23123 -7.02531,3.87178 -7.26855,7.82257 -0.45385,3.91914 1.80358,8.15601 5.4979,9.35182 2.14603,0.67578 4.41013,0.26327 6.61117,0.37942 20.45736,-0.009 40.9156,0.0265 61.37241,-0.0259 3.8532,-0.23576 7.01033,-3.89824 7.24216,-7.84637 0.44718,-3.94075 -1.85747,-8.19928 -5.59116,-9.34534 -1.07872,-0.34311 -2.21644,-0.3823 -3.33571,-0.36627 z m -1.10667,21.69476 c -21.10411,-0.0163 -42.2093,-0.0119 -63.31358,0 -3.78304,0.17177 -6.95667,3.63497 -7.34628,7.49688 -0.55904,3.99321 1.78152,8.37506 5.57778,9.52008 2.08382,0.63247 4.27402,0.23597 6.40748,0.34905 20.50752,-0.005 41.01656,0.0184 61.52314,-0.0254 3.91941,-0.30425 7.09809,-4.10157 7.20634,-8.14066 0.31044,-4.06635 -2.43911,-8.33221 -6.383,-9.04741 -1.21171,-0.22905 -2.4469,-0.18181 -3.67188,-0.1526 z m 1.10667,21.46377 c -9.90719,0.0331 -19.81639,0.003 -29.72437,0.0139 -11.60117,0.0104 -23.20325,-0.0194 -34.80385,0.0161 -3.85085,0.23137 -7.02599,3.87199 -7.26855,7.82256 -0.44653,3.87495 1.7452,8.05292 5.37014,9.30864 2.1787,0.73482 4.49578,0.30196 6.73929,0.42073 20.45544,-0.004 40.91175,0.0165 61.36665,-0.024 3.85492,-0.23343 7.01741,-3.89528 7.24756,-7.84636 0.44702,-3.94064 -1.85706,-8.19964 -5.59116,-9.34534 -1.07872,-0.34312 -2.21644,-0.38231 -3.33571,-0.36627 z m -0.55424,21.59147 c -21.26461,-0.009 -42.53108,-0.01 -63.79584,0.0132 -3.96687,0.25361 -7.28188,3.99081 -7.46343,8.09161 -0.35945,3.97888 2.16587,8.09011 5.9059,9.15098 2.08396,0.57765 4.25834,0.19847 6.38401,0.30934 20.45725,-0.009 40.91537,0.0264 61.37206,-0.0259 3.88811,-0.23625 7.05457,-3.95893 7.25169,-7.94201 0.39771,-3.8803 -1.85353,-8.02603 -5.49766,-9.2197 -1.34178,-0.44615 -2.76572,-0.41299 -4.15673,-0.37749 z m -0.55062,21.67785 c -21.05015,-0.0163 -42.10135,-0.0119 -63.15164,0 -3.8166,0.17024 -7.00272,3.69097 -7.3595,7.588 -0.50876,3.96528 1.81939,8.28461 5.58182,9.42558 2.08688,0.63723 4.28153,0.23543 6.41845,0.35054 20.50514,-0.005 41.01175,0.0183 61.51597,-0.0252 3.96398,-0.30212 7.16458,-4.17903 7.21867,-8.26325 0.25553,-4.06776 -2.55044,-8.30555 -6.50894,-8.94418 -1.22783,-0.20933 -2.47646,-0.15511 -3.71483,-0.13146 z m 1.26681,21.46376 c -9.87587,0.0331 -19.75377,0.003 -29.63044,0.0139 -11.63188,0.0104 -23.26467,-0.0193 -34.89598,0.0161 -3.85249,0.23173 -7.02997,3.8754 -7.26915,7.82834 -0.44783,3.89521 1.77552,8.09596 5.43192,9.32351 2.16392,0.70423 4.45474,0.28369 6.6781,0.40007 20.45725,-0.009 40.91536,0.0263 61.37207,-0.0258 3.89369,-0.23431 7.06698,-3.97494 7.25313,-7.96329 0.3946,-3.90931 -1.9109,-8.09524 -5.60754,-9.22854 -1.07688,-0.34374 -2.21471,-0.37873 -3.33211,-0.3644 z m -1.18224,21.69476 c -21.0812,-0.0162 -42.16373,-0.0119 -63.24521,0 -3.88352,0.17501 -7.1113,3.8318 -7.36462,7.80768 -0.46559,4.09139 2.17807,8.50221 6.13768,9.3503 2.0266,0.41845 4.10351,0.10712 6.15275,0.20616 20.41312,-0.005 40.82772,0.0182 61.23993,-0.0253 3.96351,-0.30207 7.1633,-4.17785 7.21889,-8.26135 0.25116,-4.03455 -2.49567,-8.2323 -6.40822,-8.92843 -1.23144,-0.23041 -2.48686,-0.17623 -3.7312,-0.14911 z m 1.07067,21.46189 c -9.74341,0.0332 -19.48889,0.003 -29.23311,0.0139 -11.75353,0.0104 -23.50797,-0.0193 -35.26091,0.0161 -3.81716,0.23122 -6.97472,3.80587 -7.26269,7.71887 -0.48813,3.90465 1.70349,8.15203 5.36607,9.4142 2.17704,0.73447 4.49234,0.3021 6.73389,0.42074 20.45725,-0.009 40.91536,0.0263 61.37207,-0.0258 3.89095,-0.23277 7.06268,-3.96731 7.25371,-7.95196 0.4086,-3.9698 -1.98611,-8.24485 -5.7783,-9.2903 -1.03552,-0.30447 -2.12243,-0.32695 -3.19073,-0.31585 z" /><rect
     style="display:inline;fill:url(#linearGradient30);stroke-width:2.95585;stroke-linecap:round;stroke-linejoin:round;stroke-miterlimit:5;filter:url(#filter34)"
     id="rect29"
     width="80.097076"
     height="169.51106"
     x="331.86429"
     y="119.0691"
     inkscape:label="gradiant"
     clip-path="url(#clipPath1)" /><path
     style="display:inline;fill:#ffffff;fill-opacity:1;stroke:none;stroke-width:0.596622;stroke-dasharray:none;stroke-opacity:1;filter:url(#filter34)"
     d="m 371.91201,27.762089 c -4.34929,0 -7.87896,0.881604 -7.87884,1.966004 v 13.776855 h -19.68805 c -2.16873,0 -3.9336,3.52968 -3.93366,7.87885 0,4.34929 1.76487,7.87896 3.93366,7.87884 h 55.12884 c 2.17464,-1e-5 3.94024,-3.52956 3.94025,-7.87884 0,-4.34929 -1.76561,-7.87885 -3.94025,-7.87885 h -19.6831 V 29.728093 c 0,-1.08437 -3.52968,-1.965974 -7.87885,-1.966004 z"
     id="path28"
     inkscape:label="+" /></g><path
   id="path24"
   style="display:inline;fill:#000000;fill-opacity:0.407843;stroke-width:4;stroke-linecap:round;stroke-linejoin:round;stroke-miterlimit:5"
   d="M 275.5957,19.792968 A 12.40523,12.40523 0 0 1 288,32.199218 V 42 h 16 V 32.199218 A 12.40523,12.40523 0 0 0 291.5957,19.792968 Z M 318.37305,42 l 20,48.001953 H 361 L 341,42 Z m 20,65.54883 V 404.45117 H 361 V 107.54883 Z m 0,314.44922 -20,48.00195 H 341 l 20,-48.00195 z"
   transform="matrix(0.84374999,0,0,0.84374999,-13.247,-13.246008)"
   inkscape:label="shadow" /><path
   id="path27"
   style="display:inline;fill:#ffffff;fill-opacity:0.4;stroke-width:4;stroke-linecap:round;stroke-linejoin:round;stroke-miterlimit:5"
   d="M 220.4043,19.792968 A 12.40523,12.40523 0 0 0 208,32.199218 V 42 h 16 v -9.800782 a 12.40523,12.40523 0 0 1 12.4043,-12.40625 z M 171,42 151,90.001953 h 22.62695 L 193.62695,42 Z m -20,65.54883 v 296.90234 h 22.62695 V 107.54883 Z M 151,421.99805 171,470 h 22.62695 l -20,-48.00195 z"
   transform="matrix(0.84374999,0,0,0.84374999,-13.247,-13.246008)"
   inkscape:label="highlight" /></g><metadata
     id="metadata5"><rdf:RDF><cc:Work
         rdf:about=""><dc:source>https://www.svgrepo.com/svg/170009/round-shot</dc:source><cc:license
           rdf:resource="http://creativecommons.org/publicdomain/zero/1.0/" /></cc:Work><cc:License
         rdf:about="http://creativecommons.org/publicdomain/zero/1.0/"><cc:permits
           rdf:resource="http://creativecommons.org/ns#Reproduction" /><cc:permits
           rdf:resource="http://creativecommons.org/ns#Distribution" /><cc:permits
           rdf:resource="http://creativecommons.org/ns#DerivativeWorks" /></cc:License></rdf:RDF></metadata></svg>
