<?xml version="1.0" encoding="UTF-8" standalone="no"?>
<svg
   style="height: 512px; width: 512px;"
   viewBox="0 0 512 512"
   version="1.1"
   id="svg2"
   sodipodi:docname="bow_smart.svg"
   inkscape:version="1.4 (86a8ad7, 2024-10-11)"
   xml:space="preserve"
   xmlns:inkscape="http://www.inkscape.org/namespaces/inkscape"
   xmlns:sodipodi="http://sodipodi.sourceforge.net/DTD/sodipodi-0.dtd"
   xmlns="http://www.w3.org/2000/svg"
   xmlns:svg="http://www.w3.org/2000/svg"><defs
     id="defs2"><filter
       style="color-interpolation-filters:sRGB;"
       inkscape:label="Drop Shadow"
       id="filter36"
       x="-0.57132258"
       y="-0.21761554"
       width="2.1426452"
       height="1.4363453"><feFlood
         result="flood"
         in="SourceGraphic"
         flood-opacity="0.533333"
         flood-color="rgb(51,51,51)"
         id="feFlood35" /><feGaussianBlur
         result="blur"
         in="SourceGraphic"
         stdDeviation="30.000000"
         id="feGaussianBlur35" /><feOffset
         result="offset"
         in="blur"
         dx="0.000000"
         dy="0.000000"
         id="feOffset35" /><feComposite
         result="comp1"
         operator="out"
         in="flood"
         in2="offset"
         id="feComposite35" /><feComposite
         result="fbSourceGraphic"
         operator="atop"
         in="comp1"
         in2="SourceGraphic"
         id="feComposite36" /><feColorMatrix
         result="fbSourceGraphicAlpha"
         in="fbSourceGraphic"
         values="0 0 0 -1 0 0 0 0 -1 0 0 0 0 -1 0 0 0 0 1 0"
         id="feColorMatrix2" /><feFlood
         id="feFlood3"
         result="flood"
         in="fbSourceGraphic"
         flood-opacity="0.533333"
         flood-color="rgb(51,51,51)" /><feGaussianBlur
         id="feGaussianBlur3"
         result="blur"
         in="fbSourceGraphic"
         stdDeviation="30.000000" /><feOffset
         id="feOffset3"
         result="offset"
         in="blur"
         dx="0.000000"
         dy="0.000000" /><feComposite
         id="feComposite5"
         result="comp1"
         operator="out"
         in="flood"
         in2="offset" /><feComposite
         id="feComposite6"
         result="comp2"
         operator="atop"
         in="comp1"
         in2="fbSourceGraphic" /></filter></defs><sodipodi:namedview
     id="namedview2"
     pagecolor="#505050"
     bordercolor="#ffffff"
     borderopacity="1"
     inkscape:showpageshadow="0"
     inkscape:pageopacity="0"
     inkscape:pagecheckerboard="1"
     inkscape:deskcolor="#505050"
     inkscape:zoom="1.5761719"
     inkscape:cx="255.68277"
     inkscape:cy="256"
     inkscape:window-width="1920"
     inkscape:window-height="1009"
     inkscape:window-x="1912"
     inkscape:window-y="-8"
     inkscape:window-maximized="1"
     inkscape:current-layer="svg2"
     showguides="false" /><path
     d="M 0,0 H 512 V 512 H 0 Z"
     fill="#000"
     fill-opacity="1"
     id="path1"
     style="display:inline;fill:#1b1f21"
     inkscape:label="background" /><g
     id="g6"
     inkscape:label="arrow"
     transform="matrix(0.46038606,0.46033936,-0.68972855,0.68969738,313.34162,-37.013373)"
     style="height:512px;width:512px;filter:url(#filter36);stroke:#000000;stroke-width:3.93032;stroke-linecap:round;stroke-linejoin:round;stroke-dasharray:none;stroke-opacity:1;paint-order:normal"><g
       id="g1"
       inkscape:label="base"
       transform="translate(-0.0138297)"><path
         id="rect6"
         style="display:inline;fill:#2d2d2d;stroke:#000000;stroke-width:5.42486;stroke-linecap:round;stroke-linejoin:round;stroke-miterlimit:5;stroke-dasharray:none;stroke-opacity:1;paint-order:normal"
         inkscape:label="shaft"
         d="m 222.78825,225.34378 0.007,330.45921 33.1915,33.19149 33.20058,-33.20058 -0.006,-330.45212 z" /><path
         d="M 307.07326,274.69591 C 317.73997,215.3944 211.11251,105.00231 383.72859,157.47105 L 255.96369,-81.752371 128.24252,157.47246 c 171.2351,-52.05225 67.6475,56.18388 76.39016,115.80995 10.74832,-32.85429 30.21137,-36.30916 51.06615,-36.1493 21.21335,0.16261 42.68409,12.84587 51.37443,37.5628 z M 179.32957,120.34652 239.67548,7.1882267 V 141.58094 C 223.8575,115.85498 200.71602,109.47617 179.32887,120.34723 Z m 93.18254,21.36877 V 6.9223546 l 60.435,113.4255854 c -21.43029,-10.89015 -44.61703,-4.47316 -60.435,21.36735 z"
         fill="#ffffff"
         fill-opacity="1"
         id="path2"
         sodipodi:nodetypes="cccccacccccccccc"
         style="display:inline;fill:#9eabb0;stroke:#000000;stroke-width:3.93032;stroke-linecap:round;stroke-linejoin:round;stroke-dasharray:none;stroke-opacity:1;paint-order:normal"
         inkscape:label="arrowhead" /></g><path
       id="path23"
       style="display:inline;fill:#000000;fill-opacity:0.4;stroke:none;stroke-width:5.53132;stroke-linecap:round;stroke-linejoin:round;stroke-miterlimit:5;stroke-dasharray:none;stroke-opacity:1;paint-order:normal"
       inkscape:label="shadow"
       d="m 255.9629,-81.72625 0.002,30.750775 108.4107,202.986005 c 6.06393,1.59709 12.39568,3.34976 19.3369,5.45962 z M 274.84533,149.721 c -19.91039,16.08133 7.58439,61.49503 14.8564,99.74455 7.46617,6.14579 13.6057,14.55989 17.35726,25.23003 8.35469,-46.44783 -55.2127,-124.2185 -0.23407,-130.54728 -3.51599,-0.29229 -6.83014,-0.46333 -9.79099,-0.42417 -10.47501,0.13853 -17.5939,2.2858 -22.1886,5.99687 z m -2.09916,90.33574 0.004,332.16026 16.4231,-16.4231 -0.005,-306.76497 c -4.99845,-4.00806 -10.57809,-6.98781 -16.42255,-8.97219 z" /><path
       id="path27"
       style="display:inline;fill:#ffffff;fill-opacity:0.4;stroke:none;stroke-width:5.53132;stroke-linecap:round;stroke-linejoin:round;stroke-miterlimit:5;stroke-dasharray:none;stroke-opacity:1;paint-order:normal"
       inkscape:label="highlight"
       d="M 255.94872,-81.751767 128.23046,157.47142 c 6.94209,-2.11027 13.27345,-3.86243 19.33795,-5.45972 L 255.96535,-51.018001 255.9629,-81.72625 Z M 205.17995,144.13494 c 54.35295,6.29412 -7.39229,82.55947 -0.56123,129.14814 4.62851,-14.14792 10.88188,-22.81749 18.15779,-28.12062 l 0.005,310.64053 16.4228,16.4228 -0.006,-333.88541 c -5.81893,1.09767 -11.34197,3.12802 -16.37098,6.77955 0.12515,-0.0909 0.24562,-0.20028 0.37138,-0.28916 10.4958,-46.26276 45.90291,-100.63313 -8.66178,-101.10802 -2.84729,-0.0248 -6.00336,0.13457 -9.35719,0.41219 z" /></g><g
     id="g2"
     inkscape:label="ammoVariety"
     style="fill:#000000;stroke:none;stroke-width:0.563757;stroke-linecap:round;stroke-linejoin:round;stroke-dasharray:none;stroke-opacity:1;paint-order:markers fill stroke"
     transform="matrix(1.1519604,1.1519604,-1.1519604,1.1519604,73.693638,37.210707)"><path
       id="path1-7"
       style="display:inline;fill:#dae639;stroke:none;stroke-width:10;stroke-dasharray:none;stroke-dashoffset:0"
       inkscape:label="Yellow-Background"
       d="M 369,241 241,369 369,497 497,369 Z"
       transform="matrix(0.48829804,-0.48829804,0.48829804,0.48829804,-89.04575,15.83515)" /><path
       id="path22"
       style="display:inline;fill:#000000;stroke:none;stroke-width:0.106477;stroke-linecap:round;stroke-linejoin:round;stroke-dasharray:none;stroke-opacity:1;paint-order:markers fill stroke"
       inkscape:label="Smart"
       d="m 237.30214,-14.215016 c 1.94532,1.945313 3.89138,3.891374 5.83669,5.836687 1.32227,-1.3216146 2.64439,-2.643518 3.96666,-3.965133 -1.94531,-1.945313 -3.89062,-3.890611 -5.83593,-5.835924 -1.32226,1.321615 -2.64515,2.642756 -3.96742,3.96437 z m 16.78754,-16.787534 c -1.32226,1.322266 -2.64364,2.645155 -3.9659,3.967421 l 5.83593,5.835925 c 1.32227,-1.322265 2.64439,-2.644393 3.96665,-3.966659 -1.94531,-1.945312 -3.89136,-3.891375 -5.83668,-5.836687 z M 224.4805,-1.3918523 c 1.94531,1.94531248 3.89061,3.890612 5.83593,5.8359245 1.32226,-1.3222656 2.64516,-2.6451559 3.96742,-3.96742154 l -5.83592,-5.83592446 c -1.32227,1.3222656 -2.64517,2.6451559 -3.96743,3.9674215 z m 6.41197,-6.4104376 c 1.94531,1.9453125 3.8906,3.890612 5.83592,5.8359245 1.32226,-1.3222656 2.64516,-2.6451559 3.96742,-3.9674216 l -5.83592,-5.835924 c -1.32227,1.322265 -2.64516,2.6451555 -3.96742,3.9674211 z m 12.82087,-12.8208751 c 1.94531,1.945313 3.89062,3.890611 5.83593,5.835924 1.32226,-1.322266 2.6444,-2.644393 3.96666,-3.966658 L 247.68,-24.589824 c -1.32227,1.322266 -2.64439,2.644393 -3.96666,3.966659 z M 230.32024,8.0033071 V 23.666993 l 33.16612,33.166118 h 15.66369 L 312.31617,23.666993 V 8.0033071 L 279.15005,-25.162811 h -15.66369 z m 7.82269,2.3278079 c 9.22324,-9.2232475 18.44645,-18.4464615 27.66971,-27.669713 l 11.01113,-0.0015 27.66742,27.670476 -7.6e-4,11.008832 -27.66819,27.669714 h -11.0096 c -9.22326,-9.223275 -18.44647,-18.44649 -27.66971,-27.66974 z m 9.55996,-1.0162699 2.44149,2.4414899 17.09425,-17.0942458 -2.44149,-2.4414902 z M 224.4805,33.062152 c 1.32226,1.322266 2.64439,2.644392 3.96666,3.966658 l 5.83593,-5.835924 c -1.32226,-1.322265 -2.6444,-2.644393 -3.96666,-3.966659 -1.94532,1.945313 -3.89062,3.890612 -5.83593,5.835925 z m 58.23031,-58.228778 c 1.32161,1.322266 2.64276,2.645157 3.96437,3.967422 1.94531,-1.945312 3.89061,-3.890613 5.83592,-5.835925 -1.32162,-1.322266 -2.64276,-2.645156 -3.96437,-3.967421 -1.94532,1.945312 -3.89061,3.890612 -5.83592,5.835924 z M 230.89247,39.47259 c 1.32226,1.322917 2.64515,2.646031 3.96742,3.968947 l 5.83592,-5.835924 c -1.32226,-1.322917 -2.64516,-2.646032 -3.96742,-3.968948 -1.94532,1.945312 -3.89061,3.890613 -5.83592,5.835925 z m 58.22878,-58.228778 c 1.32227,1.322916 2.64438,2.646793 3.96665,3.96971 1.94531,-1.945313 3.89062,-3.890611 5.83593,-5.835924 -1.32227,-1.322917 -2.64439,-2.646794 -3.96666,-3.969711 -1.94531,1.945313 -3.8906,3.890612 -5.83592,5.835925 z M 248.0798,24.381891 262.7707,39.072796 294.55585,7.2876453 279.86495,-7.4032589 Z m -10.77689,21.502662 c 1.32227,1.321614 2.64439,2.643519 3.96665,3.965133 1.94531,-1.945312 3.89062,-3.890613 5.83593,-5.835925 -1.32227,-1.321615 -2.64439,-2.643517 -3.96666,-3.965132 -1.94531,1.945313 -3.8906,3.890611 -5.83592,5.835924 z m 58.22801,-58.228015 c 1.32227,1.321615 2.64515,2.6427554 3.96742,3.96437 l 5.83593,-5.835924 c -1.32226,-1.321614 -2.64516,-2.642755 -3.96742,-3.96437 -1.94531,1.945313 -3.89062,3.890612 -5.83593,5.835924 z m -51.81758,64.638453 c 1.32227,1.322265 2.64439,2.644392 3.96666,3.966658 l 5.83593,-5.835924 c -1.32226,-1.322265 -2.6444,-2.644393 -3.96666,-3.966659 -1.94531,1.945313 -3.89062,3.890612 -5.83593,5.835925 z m 58.22802,-58.228015 c 1.32226,1.3216146 2.64516,2.6427551 3.96742,3.9643697 1.94532,-1.9453125 3.89061,-3.890612 5.83592,-5.8359245 -1.32226,-1.3216146 -2.64515,-2.6427562 -3.96742,-3.9643702 z m -51.81834,64.637689 c 1.32226,1.322266 2.6444,2.644393 3.96666,3.966659 1.94532,-1.945312 3.89061,-3.890612 5.83592,-5.835924 -1.32226,-1.322266 -2.64439,-2.644394 -3.96666,-3.966659 z M 308.35408,0.47665066 c 1.32161,1.32226564 2.64199,2.64439294 3.96361,3.96665854 1.94531,-1.9453125 3.89061,-3.89061198 5.83593,-5.8359245 -1.32162,-1.3222657 -2.64199,-2.6443929 -3.96361,-3.9666585 z m -32.96851,36.51630034 2.44149,2.44149 17.09044,-17.090431 -2.44149,-2.44149 z m 11.29037,15.87579 c -1.32161,1.322265 -2.64352,2.644393 -3.96513,3.966659 1.94531,1.945312 3.8906,3.890611 5.83592,5.835924 1.32161,-1.322266 2.64352,-2.644393 3.96514,-3.966659 -1.94531,-1.945312 -3.89062,-3.890612 -5.83593,-5.835924 z m 8.85498,-8.85498 c 1.94531,1.945312 3.89062,3.890613 5.83593,5.835925 1.32226,-1.321614 2.64439,-2.643519 3.96665,-3.965133 l -5.83592,-5.835924 c -1.32227,1.321615 -2.64439,2.643517 -3.96666,3.965132 z m 16.78753,-16.787534 c -1.32162,1.322266 -2.64352,2.644394 -3.96513,3.966659 l 5.83593,5.835924 c 1.32162,-1.322266 2.64351,-2.644392 3.96513,-3.966658 -1.94532,-1.945312 -3.89062,-3.890612 -5.83593,-5.835925 z m -23.19797,23.199498 c 1.94532,1.945313 3.89062,3.890611 5.83593,5.835924 1.32227,-1.322266 2.64515,-2.645156 3.96742,-3.967421 -1.94531,-1.945313 -3.89062,-3.890612 -5.83593,-5.835925 -1.32227,1.322266 -2.64515,2.645157 -3.96742,3.967422 z m 12.82088,-12.820875 5.83592,5.835924 c 1.32227,-1.322265 2.64439,-2.644393 3.96666,-3.966659 -1.94531,-1.945312 -3.8906,-3.890612 -5.83592,-5.835924 -1.32226,1.322265 -2.6444,2.644393 -3.96666,3.966659 z" /><path
       id="rect2"
       style="display:inline;fill:#000000;stroke:none;stroke-width:10;stroke-linecap:round;stroke-linejoin:round;stroke-dasharray:none;stroke-opacity:1;paint-order:markers fill stroke"
       d="M 352.00001,224 224,352 351.99999,480 480,352 Z m 0,16.78699 L 463.21303,352.00002 352.00001,463.21303 240.78699,352.00002 Z"
       inkscape:label="Border"
       sodipodi:insensitive="true"
       transform="matrix(0.48829804,-0.48829804,0.48829804,0.48829804,-72.443619,15.835149)" /></g></svg>
