<?xml version="1.0" encoding="UTF-8" standalone="no"?>
<svg
   style="height: 512px; width: 512px;"
   viewBox="0 0 512 512"
   version="1.1"
   id="svg2"
   sodipodi:docname="bow_armorpiercing.svg"
   inkscape:version="1.4 (86a8ad7, 2024-10-11)"
   xml:space="preserve"
   xmlns:inkscape="http://www.inkscape.org/namespaces/inkscape"
   xmlns:sodipodi="http://sodipodi.sourceforge.net/DTD/sodipodi-0.dtd"
   xmlns="http://www.w3.org/2000/svg"
   xmlns:svg="http://www.w3.org/2000/svg"><defs
     id="defs2"><filter
       style="color-interpolation-filters:sRGB;"
       inkscape:label="Drop Shadow"
       id="filter36"
       x="-0.57132258"
       y="-0.21761554"
       width="2.1426452"
       height="1.4363453"><feFlood
         result="flood"
         in="SourceGraphic"
         flood-opacity="0.533333"
         flood-color="rgb(51,51,51)"
         id="feFlood35" /><feGaussianBlur
         result="blur"
         in="SourceGraphic"
         stdDeviation="30.000000"
         id="feGaussianBlur35" /><feOffset
         result="offset"
         in="blur"
         dx="0.000000"
         dy="0.000000"
         id="feOffset35" /><feComposite
         result="comp1"
         operator="out"
         in="flood"
         in2="offset"
         id="feComposite35" /><feComposite
         result="fbSourceGraphic"
         operator="atop"
         in="comp1"
         in2="SourceGraphic"
         id="feComposite36" /><feColorMatrix
         result="fbSourceGraphicAlpha"
         in="fbSourceGraphic"
         values="0 0 0 -1 0 0 0 0 -1 0 0 0 0 -1 0 0 0 0 1 0"
         id="feColorMatrix2" /><feFlood
         id="feFlood3"
         result="flood"
         in="fbSourceGraphic"
         flood-opacity="0.533333"
         flood-color="rgb(51,51,51)" /><feGaussianBlur
         id="feGaussianBlur3"
         result="blur"
         in="fbSourceGraphic"
         stdDeviation="30.000000" /><feOffset
         id="feOffset3"
         result="offset"
         in="blur"
         dx="0.000000"
         dy="0.000000" /><feComposite
         id="feComposite5"
         result="comp1"
         operator="out"
         in="flood"
         in2="offset" /><feComposite
         id="feComposite6"
         result="comp2"
         operator="atop"
         in="comp1"
         in2="fbSourceGraphic" /></filter></defs><sodipodi:namedview
     id="namedview2"
     pagecolor="#505050"
     bordercolor="#ffffff"
     borderopacity="1"
     inkscape:showpageshadow="0"
     inkscape:pageopacity="0"
     inkscape:pagecheckerboard="1"
     inkscape:deskcolor="#505050"
     inkscape:zoom="1.5761719"
     inkscape:cx="255.68277"
     inkscape:cy="256"
     inkscape:window-width="1920"
     inkscape:window-height="1009"
     inkscape:window-x="1912"
     inkscape:window-y="-8"
     inkscape:window-maximized="1"
     inkscape:current-layer="svg2"
     showguides="false" /><path
     d="M 0,0 H 512 V 512 H 0 Z"
     fill="#000"
     fill-opacity="1"
     id="path1"
     style="display:inline;fill:#1b1f21"
     inkscape:label="background" /><g
     id="g6"
     inkscape:label="arrow"
     transform="matrix(0.46038606,0.46033936,-0.68972855,0.68969738,313.34162,-37.013373)"
     style="height:512px;width:512px;filter:url(#filter36);stroke:#000000;stroke-width:3.93032;stroke-linecap:round;stroke-linejoin:round;stroke-dasharray:none;stroke-opacity:1;paint-order:normal"><g
       id="g1"
       inkscape:label="base"
       transform="translate(-0.0138297)"><path
         id="rect6"
         style="display:inline;fill:#2d2d2d;stroke:#000000;stroke-width:5.42486;stroke-linecap:round;stroke-linejoin:round;stroke-miterlimit:5;stroke-dasharray:none;stroke-opacity:1;paint-order:normal"
         inkscape:label="shaft"
         d="m 222.78825,225.34378 0.007,330.45921 33.1915,33.19149 33.20058,-33.20058 -0.006,-330.45212 z" /><path
         d="M 307.07326,274.69591 C 317.73997,215.3944 211.11251,105.00231 383.72859,157.47105 L 255.96369,-81.752371 128.24252,157.47246 c 171.2351,-52.05225 67.6475,56.18388 76.39016,115.80995 10.74832,-32.85429 30.21137,-36.30916 51.06615,-36.1493 21.21335,0.16261 42.68409,12.84587 51.37443,37.5628 z M 179.32957,120.34652 239.67548,7.1882267 V 141.58094 C 223.8575,115.85498 200.71602,109.47617 179.32887,120.34723 Z m 93.18254,21.36877 V 6.9223546 l 60.435,113.4255854 c -21.43029,-10.89015 -44.61703,-4.47316 -60.435,21.36735 z"
         fill="#ffffff"
         fill-opacity="1"
         id="path2"
         sodipodi:nodetypes="cccccacccccccccc"
         style="display:inline;fill:#9eabb0;stroke:#000000;stroke-width:3.93032;stroke-linecap:round;stroke-linejoin:round;stroke-dasharray:none;stroke-opacity:1;paint-order:normal"
         inkscape:label="arrowhead" /></g><path
       id="path23"
       style="display:inline;fill:#000000;fill-opacity:0.4;stroke:none;stroke-width:5.53132;stroke-linecap:round;stroke-linejoin:round;stroke-miterlimit:5;stroke-dasharray:none;stroke-opacity:1;paint-order:normal"
       inkscape:label="shadow"
       d="m 255.9629,-81.72625 0.002,30.750775 108.4107,202.986005 c 6.06393,1.59709 12.39568,3.34976 19.3369,5.45962 z M 274.84533,149.721 c -19.91039,16.08133 7.58439,61.49503 14.8564,99.74455 7.46617,6.14579 13.6057,14.55989 17.35726,25.23003 8.35469,-46.44783 -55.2127,-124.2185 -0.23407,-130.54728 -3.51599,-0.29229 -6.83014,-0.46333 -9.79099,-0.42417 -10.47501,0.13853 -17.5939,2.2858 -22.1886,5.99687 z m -2.09916,90.33574 0.004,332.16026 16.4231,-16.4231 -0.005,-306.76497 c -4.99845,-4.00806 -10.57809,-6.98781 -16.42255,-8.97219 z" /><path
       id="path27"
       style="display:inline;fill:#ffffff;fill-opacity:0.4;stroke:none;stroke-width:5.53132;stroke-linecap:round;stroke-linejoin:round;stroke-miterlimit:5;stroke-dasharray:none;stroke-opacity:1;paint-order:normal"
       inkscape:label="highlight"
       d="M 255.94872,-81.751767 128.23046,157.47142 c 6.94209,-2.11027 13.27345,-3.86243 19.33795,-5.45972 L 255.96535,-51.018001 255.9629,-81.72625 Z M 205.17995,144.13494 c 54.35295,6.29412 -7.39229,82.55947 -0.56123,129.14814 4.62851,-14.14792 10.88188,-22.81749 18.15779,-28.12062 l 0.005,310.64053 16.4228,16.4228 -0.006,-333.88541 c -5.81893,1.09767 -11.34197,3.12802 -16.37098,6.77955 0.12515,-0.0909 0.24562,-0.20028 0.37138,-0.28916 10.4958,-46.26276 45.90291,-100.63313 -8.66178,-101.10802 -2.84729,-0.0248 -6.00336,0.13457 -9.35719,0.41219 z" /></g><g
     id="g2"
     inkscape:label="ammoVariety"
     style="fill:#000000;stroke:none;stroke-width:0.563757;stroke-linecap:round;stroke-linejoin:round;stroke-dasharray:none;stroke-opacity:1;paint-order:markers fill stroke"
     transform="matrix(1.4671189,1.4671189,-1.4671189,1.4671189,-6.8240416,-68.511456)"><path
       id="path1-1"
       style="display:inline;fill:#dae639;stroke:none;stroke-width:10;stroke-dasharray:none;stroke-dashoffset:0"
       inkscape:label="Yellow-Background"
       d="M 369,241 241,369 369,497 497,369 Z"
       transform="matrix(0.3834045,-0.3834045,0.3834045,0.3834045,-6.4461316,21.023318)" /><path
       style="display:inline;fill:#000000;fill-opacity:1;stroke:none;stroke-width:0.623824;stroke-linecap:round;stroke-linejoin:round;stroke-dasharray:none;stroke-opacity:1;paint-order:markers fill stroke"
       d="m 238.1659,24.857402 0.94972,0.94973 c 10.43648,10.436468 21.91141,19.778976 33.46826,25.108303 11.55706,5.329124 23.3549,6.61183 33.90022,0.612893 l 0.28927,-0.162015 0.17483,-0.276462 c 7.13913,-11.007587 5.89546,-22.897923 0.28581,-34.34764 -5.60976,-11.4496306 -15.50295,-22.6686338 -25.94379,-33.109466 l -0.94983,-0.949832 z m 3.81173,-0.0128 38.3531,-38.353103 c 10.00013,10.0840734 19.29598,20.8199784 24.49541,31.432393 5.31347,10.844753 6.42847,21.347286 0.0412,31.422727 -9.58574,5.310726 -20.18686,4.189426 -31.15918,-0.870248 -10.7421,-4.953663 -21.68362,-13.71377 -31.73091,-23.631565 z m 3.81762,-0.0061 c 8.63306,8.469009 18.83494,16.296765 28.87877,20.886962 2.92959,1.338913 5.83103,2.400854 8.67127,3.131854 l 0.75275,-8.566482 -11.77131,-3.487597 -1.57868,-0.466734 0.7751,-1.454885 c 0,0 2.75233,-5.148203 4.28478,-7.994651 l 1.34033,-2.814126 -24.93358,-5.65376 z m 16.28792,-16.2879239 13.95345,4.6468129 9.07143,-17.8444563 c -1.57696,-1.71722 -3.18268,-3.396728 -4.79633,-5.0311085 L 262.08307,8.5504871 Z m 24.9528,-11.0599343 -8.42012,16.5643922 7.59134,2.528012 7.58188,2.321979 5.2279,-5.602946 C 295.7046,7.9070904 291.53276,2.5592648 287.03597,-2.5095602 Z m -0.30137,22.0654912 -2.07103,4.17987 21.59225,7.921572 c -0.54754,-4.16859 -2.01889,-8.470431 -4.17357,-12.838233 -0.50993,-1.03399 -1.05951,-2.068996 -1.64191,-3.103496 l -5.26316,5.638004 -0.57162,0.616349 -0.80377,-0.244751 z m -9.6085,10.561077 c -0.93112,1.738564 -1.93971,3.619222 -2.45513,4.583488 l 11.24055,3.325378 1.05147,0.314578 -0.0954,1.092638 -0.8796,10.008153 c 6.15739,1.142442 11.96464,0.603847 17.05328,-2.188324 2.38144,-3.786117 3.44196,-7.811697 3.45252,-12.002954 l -29.36765,-5.133262 z"
       id="path3-1"
       inkscape:label="Armor Piercing" /><path
       id="rect2"
       style="display:inline;fill:#000000;stroke:none;stroke-width:10;stroke-dasharray:none;stroke-opacity:1;paint-order:markers fill stroke"
       d="M 352.00001,224 224,352 351.99999,480 480,352 Z m 0,16.78699 L 463.21303,352.00002 352.00001,463.21303 240.78699,352.00002 Z"
       inkscape:label="Border"
       sodipodi:insensitive="true"
       transform="matrix(0.3834045,-0.3834045,0.3834045,0.3834045,6.5896227,21.023318)" /></g></svg>
