<?xml version="1.0" encoding="UTF-8" standalone="no"?>
<svg
   style="height: 512px; width: 512px;"
   viewBox="0 0 512 512"
   version="1.1"
   id="svg2"
   sodipodi:docname="bow_biotoxin.svg"
   inkscape:version="1.4 (86a8ad7, 2024-10-11)"
   xml:space="preserve"
   xmlns:inkscape="http://www.inkscape.org/namespaces/inkscape"
   xmlns:sodipodi="http://sodipodi.sourceforge.net/DTD/sodipodi-0.dtd"
   xmlns="http://www.w3.org/2000/svg"
   xmlns:svg="http://www.w3.org/2000/svg"><defs
     id="defs2"><filter
       style="color-interpolation-filters:sRGB;"
       inkscape:label="Drop Shadow"
       id="filter36"
       x="-0.57132258"
       y="-0.21761554"
       width="2.1426452"
       height="1.4363453"><feFlood
         result="flood"
         in="SourceGraphic"
         flood-opacity="0.533333"
         flood-color="rgb(51,51,51)"
         id="feFlood35" /><feGaussianBlur
         result="blur"
         in="SourceGraphic"
         stdDeviation="30.000000"
         id="feGaussianBlur35" /><feOffset
         result="offset"
         in="blur"
         dx="0.000000"
         dy="0.000000"
         id="feOffset35" /><feComposite
         result="comp1"
         operator="out"
         in="flood"
         in2="offset"
         id="feComposite35" /><feComposite
         result="fbSourceGraphic"
         operator="atop"
         in="comp1"
         in2="SourceGraphic"
         id="feComposite36" /><feColorMatrix
         result="fbSourceGraphicAlpha"
         in="fbSourceGraphic"
         values="0 0 0 -1 0 0 0 0 -1 0 0 0 0 -1 0 0 0 0 1 0"
         id="feColorMatrix2" /><feFlood
         id="feFlood3"
         result="flood"
         in="fbSourceGraphic"
         flood-opacity="0.533333"
         flood-color="rgb(51,51,51)" /><feGaussianBlur
         id="feGaussianBlur3"
         result="blur"
         in="fbSourceGraphic"
         stdDeviation="30.000000" /><feOffset
         id="feOffset3"
         result="offset"
         in="blur"
         dx="0.000000"
         dy="0.000000" /><feComposite
         id="feComposite5"
         result="comp1"
         operator="out"
         in="flood"
         in2="offset" /><feComposite
         id="feComposite6"
         result="comp2"
         operator="atop"
         in="comp1"
         in2="fbSourceGraphic" /></filter></defs><sodipodi:namedview
     id="namedview2"
     pagecolor="#505050"
     bordercolor="#ffffff"
     borderopacity="1"
     inkscape:showpageshadow="0"
     inkscape:pageopacity="0"
     inkscape:pagecheckerboard="1"
     inkscape:deskcolor="#505050"
     inkscape:zoom="1.5761719"
     inkscape:cx="255.68277"
     inkscape:cy="256"
     inkscape:window-width="1920"
     inkscape:window-height="1009"
     inkscape:window-x="1912"
     inkscape:window-y="-8"
     inkscape:window-maximized="1"
     inkscape:current-layer="svg2"
     showguides="false" /><path
     d="M 0,0 H 512 V 512 H 0 Z"
     fill="#000"
     fill-opacity="1"
     id="path1"
     style="display:inline;fill:#1b1f21"
     inkscape:label="background" /><g
     id="g6"
     inkscape:label="arrow"
     transform="matrix(0.46038606,0.46033936,-0.68972855,0.68969738,313.34162,-37.013373)"
     style="height:512px;width:512px;filter:url(#filter36);stroke:#000000;stroke-width:3.93032;stroke-linecap:round;stroke-linejoin:round;stroke-dasharray:none;stroke-opacity:1;paint-order:normal"><g
       id="g1"
       inkscape:label="base"
       transform="translate(-0.0138297)"><path
         id="rect6"
         style="display:inline;fill:#2d2d2d;stroke:#000000;stroke-width:5.42486;stroke-linecap:round;stroke-linejoin:round;stroke-miterlimit:5;stroke-dasharray:none;stroke-opacity:1;paint-order:normal"
         inkscape:label="shaft"
         d="m 222.78825,225.34378 0.007,330.45921 33.1915,33.19149 33.20058,-33.20058 -0.006,-330.45212 z" /><path
         d="M 307.07326,274.69591 C 317.73997,215.3944 211.11251,105.00231 383.72859,157.47105 L 255.96369,-81.752371 128.24252,157.47246 c 171.2351,-52.05225 67.6475,56.18388 76.39016,115.80995 10.74832,-32.85429 30.21137,-36.30916 51.06615,-36.1493 21.21335,0.16261 42.68409,12.84587 51.37443,37.5628 z M 179.32957,120.34652 239.67548,7.1882267 V 141.58094 C 223.8575,115.85498 200.71602,109.47617 179.32887,120.34723 Z m 93.18254,21.36877 V 6.9223546 l 60.435,113.4255854 c -21.43029,-10.89015 -44.61703,-4.47316 -60.435,21.36735 z"
         fill="#ffffff"
         fill-opacity="1"
         id="path2"
         sodipodi:nodetypes="cccccacccccccccc"
         style="display:inline;fill:#9eabb0;stroke:#000000;stroke-width:3.93032;stroke-linecap:round;stroke-linejoin:round;stroke-dasharray:none;stroke-opacity:1;paint-order:normal"
         inkscape:label="arrowhead" /></g><path
       id="path23"
       style="display:inline;fill:#000000;fill-opacity:0.4;stroke:none;stroke-width:5.53132;stroke-linecap:round;stroke-linejoin:round;stroke-miterlimit:5;stroke-dasharray:none;stroke-opacity:1;paint-order:normal"
       inkscape:label="shadow"
       d="m 255.9629,-81.72625 0.002,30.750775 108.4107,202.986005 c 6.06393,1.59709 12.39568,3.34976 19.3369,5.45962 z M 274.84533,149.721 c -19.91039,16.08133 7.58439,61.49503 14.8564,99.74455 7.46617,6.14579 13.6057,14.55989 17.35726,25.23003 8.35469,-46.44783 -55.2127,-124.2185 -0.23407,-130.54728 -3.51599,-0.29229 -6.83014,-0.46333 -9.79099,-0.42417 -10.47501,0.13853 -17.5939,2.2858 -22.1886,5.99687 z m -2.09916,90.33574 0.004,332.16026 16.4231,-16.4231 -0.005,-306.76497 c -4.99845,-4.00806 -10.57809,-6.98781 -16.42255,-8.97219 z" /><path
       id="path27"
       style="display:inline;fill:#ffffff;fill-opacity:0.4;stroke:none;stroke-width:5.53132;stroke-linecap:round;stroke-linejoin:round;stroke-miterlimit:5;stroke-dasharray:none;stroke-opacity:1;paint-order:normal"
       inkscape:label="highlight"
       d="M 255.94872,-81.751767 128.23046,157.47142 c 6.94209,-2.11027 13.27345,-3.86243 19.33795,-5.45972 L 255.96535,-51.018001 255.9629,-81.72625 Z M 205.17995,144.13494 c 54.35295,6.29412 -7.39229,82.55947 -0.56123,129.14814 4.62851,-14.14792 10.88188,-22.81749 18.15779,-28.12062 l 0.005,310.64053 16.4228,16.4228 -0.006,-333.88541 c -5.81893,1.09767 -11.34197,3.12802 -16.37098,6.77955 0.12515,-0.0909 0.24562,-0.20028 0.37138,-0.28916 10.4958,-46.26276 45.90291,-100.63313 -8.66178,-101.10802 -2.84729,-0.0248 -6.00336,0.13457 -9.35719,0.41219 z" /></g><g
     id="g2"
     inkscape:label="ammoVariety"
     style="fill:#000000;stroke:none;stroke-width:0.563757;stroke-linecap:round;stroke-linejoin:round;stroke-dasharray:none;stroke-opacity:1;paint-order:markers fill stroke"
     transform="matrix(1.3010376,1.3010376,-1.3010376,1.3010376,35.606956,-5.5973005)"><path
       id="path1-2"
       style="display:inline;fill:#dae639;stroke:none;stroke-width:10;stroke-dasharray:none;stroke-dashoffset:0"
       inkscape:label="Yellow-Background"
       d="M 369,241 241,369 369,497 497,369 Z"
       transform="matrix(0.43234722,-0.43234722,0.43234722,0.43234722,-47.754052,15.835152)" /><path
       d="m 225.26563,-0.80263726 c 0.46472,6.24074156 3.06708,12.35897126 7.83962,17.13152126 3.44191,3.441917 7.58659,5.765621 11.97406,6.967016 -3.20336,3.234912 -5.63304,7.322993 -6.8941,12.028874 -1.7464,6.518065 -0.94625,13.121068 1.77288,18.758186 -0.87833,-3.65126 -0.81138,-7.539643 0.22834,-11.421306 1.43575,-5.358624 4.62579,-9.772858 8.78505,-12.796523 a 26.094329,26.094329 0 0 0 3.99289,5.135248 c 8.39664,8.396615 21.13132,9.869928 31.05636,4.431482 2.01992,4.652816 2.54402,9.996821 1.12829,15.281326 -1.04027,3.88283 -3.06121,7.246099 -5.6469,9.968316 5.18058,-3.521592 9.29963,-8.795863 11.04661,-15.322407 1.25506,-4.68527 1.19731,-9.418199 0.0549,-13.805679 4.38895,1.143506 9.12304,1.205343 13.81007,-0.05059 6.52682,-1.746396 11.79613,-5.870148 15.31831,-11.051006 -2.72338,2.58714 -6.08213,4.611446 -9.96378,5.651156 -5.30161,1.420244 -10.66376,0.889425 -15.32723,-1.146722 5.35103,-9.90399 3.8451,-22.5604643 -4.5135,-30.9190716 a 26.118106,26.118106 0 0 0 -5.1076,-3.9746321 c 3.026,-4.2285703 7.47794,-7.4706443 12.89707,-8.9221733 3.88241,-1.038979 7.77007,-1.107249 11.42102,-0.228642 -5.63683,-2.719442 -12.2394,-3.518811 -18.75787,-1.772272 -4.6793,1.253148 -8.74765,3.662226 -11.97407,6.838954 -1.20079,-4.389527 -3.52335,-8.539737 -6.96688,-11.983262 -4.77748,-4.777518 -10.98477,-7.277962 -17.23239,-7.738758 3.60068,1.066313 7.03032,2.964458 9.87241,5.806554 4.00742,4.007382 6.24836,9.106372 6.72508,14.3357634 -6.47625,0.1578872 -12.90806,2.7021925 -17.83998,7.6340866 -4.88449,4.8845275 -7.42706,11.2385674 -7.62969,17.652544 -5.16986,-0.509328 -10.20265,-2.746925 -14.16661,-6.7108929 -2.84195,-2.8419479 -4.83628,-6.1753922 -5.90229,-9.77636476 z m 30.43077,1.56687368 c 4.20269,-4.20269422 9.65195,-6.38020682 15.14467,-6.52815172 -0.34779,4.7317586 -2.13661,9.3759497 -5.36815,13.2255914 l 2.89634,2.8963349 c 2.41389,-1.361329 5.50159,-1.0135404 7.56579,1.050675 0.34941,0.349395 0.64852,0.72803 0.89968,1.1283 l 3.93838,-1.160756 c -0.81267,-4.9112818 -0.01,-9.7789982 2.06466,-14.006691 a 22.403517,22.403517 0 0 1 4.35851,3.39893712 c 7.15136,7.15136528 8.4301,17.90618488 3.84631,26.35089588 -4.23678,-2.757887 -7.59214,-6.899181 -9.32405,-11.99203 l -3.93811,1.160461 c -0.0963,1.478136 -0.7102,2.929956 -1.85048,4.070247 -1.1777,1.177712 -2.68876,1.796976 -4.21646,1.859253 l -1.35253,4.504435 c 5.02996,1.755313 9.11587,5.10206 11.8416,9.310746 -8.4678,4.681471 -19.31239,3.429054 -26.50586,-3.764411 -1.35226,-1.352267 -2.49402,-2.834059 -3.42657,-4.404294 4.31703,-2.156313 9.31498,-2.981121 14.34936,-2.105881 l 1.37082,-4.577672 a 6.4194343,6.4194343 0 0 1 -1.0052,-0.822176 c -1.95602,-1.956035 -2.37399,-4.828832 -1.25649,-7.177238 l -2.97399,-2.973962 c -3.92944,3.368966 -8.71119,5.214918 -13.57746,5.536979 0.18829,-5.436547 2.35924,-10.819586 6.51923,-14.97959258 z"
       fill="#ffffff"
       fill-opacity="1"
       id="path2-7"
       style="fill:#000000;stroke:none;stroke-width:0.116555;stroke-linecap:round;stroke-linejoin:round;stroke-dasharray:none;stroke-opacity:1;paint-order:markers fill stroke"
       inkscape:label="Biotoxin" /><path
       id="rect2"
       style="display:inline;fill:#000000;stroke:none;stroke-width:10;stroke-dasharray:none;stroke-opacity:1;paint-order:markers fill stroke"
       d="M 352.00001,224 224,352 351.99999,480 480,352 Z m 0,16.78699 L 463.21303,352.00002 352.00001,463.21303 240.78699,352.00002 Z"
       inkscape:label="Border"
       sodipodi:insensitive="true"
       transform="matrix(0.43234722,-0.43234722,0.43234722,0.43234722,-33.054249,15.835152)" /></g></svg>
