<?xml version="1.0" encoding="UTF-8" standalone="no"?>
<svg
   style="height: 512px; width: 512px;"
   viewBox="0 0 512 512"
   version="1.1"
   id="svg2"
   sodipodi:docname="bow_poison.svg"
   inkscape:version="1.4 (86a8ad7, 2024-10-11)"
   xml:space="preserve"
   xmlns:inkscape="http://www.inkscape.org/namespaces/inkscape"
   xmlns:sodipodi="http://sodipodi.sourceforge.net/DTD/sodipodi-0.dtd"
   xmlns="http://www.w3.org/2000/svg"
   xmlns:svg="http://www.w3.org/2000/svg"><defs
     id="defs2"><filter
       style="color-interpolation-filters:sRGB;"
       inkscape:label="Drop Shadow"
       id="filter36"
       x="-0.57132258"
       y="-0.21761554"
       width="2.1426452"
       height="1.4363453"><feFlood
         result="flood"
         in="SourceGraphic"
         flood-opacity="0.533333"
         flood-color="rgb(51,51,51)"
         id="feFlood35" /><feGaussianBlur
         result="blur"
         in="SourceGraphic"
         stdDeviation="30.000000"
         id="feGaussianBlur35" /><feOffset
         result="offset"
         in="blur"
         dx="0.000000"
         dy="0.000000"
         id="feOffset35" /><feComposite
         result="comp1"
         operator="out"
         in="flood"
         in2="offset"
         id="feComposite35" /><feComposite
         result="fbSourceGraphic"
         operator="atop"
         in="comp1"
         in2="SourceGraphic"
         id="feComposite36" /><feColorMatrix
         result="fbSourceGraphicAlpha"
         in="fbSourceGraphic"
         values="0 0 0 -1 0 0 0 0 -1 0 0 0 0 -1 0 0 0 0 1 0"
         id="feColorMatrix2" /><feFlood
         id="feFlood3"
         result="flood"
         in="fbSourceGraphic"
         flood-opacity="0.533333"
         flood-color="rgb(51,51,51)" /><feGaussianBlur
         id="feGaussianBlur3"
         result="blur"
         in="fbSourceGraphic"
         stdDeviation="30.000000" /><feOffset
         id="feOffset3"
         result="offset"
         in="blur"
         dx="0.000000"
         dy="0.000000" /><feComposite
         id="feComposite5"
         result="comp1"
         operator="out"
         in="flood"
         in2="offset" /><feComposite
         id="feComposite6"
         result="comp2"
         operator="atop"
         in="comp1"
         in2="fbSourceGraphic" /></filter></defs><sodipodi:namedview
     id="namedview2"
     pagecolor="#505050"
     bordercolor="#ffffff"
     borderopacity="1"
     inkscape:showpageshadow="0"
     inkscape:pageopacity="0"
     inkscape:pagecheckerboard="1"
     inkscape:deskcolor="#505050"
     inkscape:zoom="1.5761719"
     inkscape:cx="255.68277"
     inkscape:cy="256"
     inkscape:window-width="1920"
     inkscape:window-height="1009"
     inkscape:window-x="1912"
     inkscape:window-y="-8"
     inkscape:window-maximized="1"
     inkscape:current-layer="svg2"
     showguides="false" /><path
     d="M 0,0 H 512 V 512 H 0 Z"
     fill="#000"
     fill-opacity="1"
     id="path1"
     style="display:inline;fill:#1b1f21"
     inkscape:label="background" /><g
     id="g6"
     inkscape:label="arrow"
     transform="matrix(0.46038606,0.46033936,-0.68972855,0.68969738,313.34162,-37.013373)"
     style="height:512px;width:512px;filter:url(#filter36);stroke:#000000;stroke-width:3.93032;stroke-linecap:round;stroke-linejoin:round;stroke-dasharray:none;stroke-opacity:1;paint-order:normal"><g
       id="g1"
       inkscape:label="base"
       transform="translate(-0.0138297)"><path
         id="rect6"
         style="display:inline;fill:#2d2d2d;stroke:#000000;stroke-width:5.42486;stroke-linecap:round;stroke-linejoin:round;stroke-miterlimit:5;stroke-dasharray:none;stroke-opacity:1;paint-order:normal"
         inkscape:label="shaft"
         d="m 222.78825,225.34378 0.007,330.45921 33.1915,33.19149 33.20058,-33.20058 -0.006,-330.45212 z" /><path
         d="M 307.07326,274.69591 C 317.73997,215.3944 211.11251,105.00231 383.72859,157.47105 L 255.96369,-81.752371 128.24252,157.47246 c 171.2351,-52.05225 67.6475,56.18388 76.39016,115.80995 10.74832,-32.85429 30.21137,-36.30916 51.06615,-36.1493 21.21335,0.16261 42.68409,12.84587 51.37443,37.5628 z M 179.32957,120.34652 239.67548,7.1882267 V 141.58094 C 223.8575,115.85498 200.71602,109.47617 179.32887,120.34723 Z m 93.18254,21.36877 V 6.9223546 l 60.435,113.4255854 c -21.43029,-10.89015 -44.61703,-4.47316 -60.435,21.36735 z"
         fill="#ffffff"
         fill-opacity="1"
         id="path2"
         sodipodi:nodetypes="cccccacccccccccc"
         style="display:inline;fill:#9eabb0;stroke:#000000;stroke-width:3.93032;stroke-linecap:round;stroke-linejoin:round;stroke-dasharray:none;stroke-opacity:1;paint-order:normal"
         inkscape:label="arrowhead" /></g><path
       id="path23"
       style="display:inline;fill:#000000;fill-opacity:0.4;stroke:none;stroke-width:5.53132;stroke-linecap:round;stroke-linejoin:round;stroke-miterlimit:5;stroke-dasharray:none;stroke-opacity:1;paint-order:normal"
       inkscape:label="shadow"
       d="m 255.9629,-81.72625 0.002,30.750775 108.4107,202.986005 c 6.06393,1.59709 12.39568,3.34976 19.3369,5.45962 z M 274.84533,149.721 c -19.91039,16.08133 7.58439,61.49503 14.8564,99.74455 7.46617,6.14579 13.6057,14.55989 17.35726,25.23003 8.35469,-46.44783 -55.2127,-124.2185 -0.23407,-130.54728 -3.51599,-0.29229 -6.83014,-0.46333 -9.79099,-0.42417 -10.47501,0.13853 -17.5939,2.2858 -22.1886,5.99687 z m -2.09916,90.33574 0.004,332.16026 16.4231,-16.4231 -0.005,-306.76497 c -4.99845,-4.00806 -10.57809,-6.98781 -16.42255,-8.97219 z" /><path
       id="path27"
       style="display:inline;fill:#ffffff;fill-opacity:0.4;stroke:none;stroke-width:5.53132;stroke-linecap:round;stroke-linejoin:round;stroke-miterlimit:5;stroke-dasharray:none;stroke-opacity:1;paint-order:normal"
       inkscape:label="highlight"
       d="M 255.94872,-81.751767 128.23046,157.47142 c 6.94209,-2.11027 13.27345,-3.86243 19.33795,-5.45972 L 255.96535,-51.018001 255.9629,-81.72625 Z M 205.17995,144.13494 c 54.35295,6.29412 -7.39229,82.55947 -0.56123,129.14814 4.62851,-14.14792 10.88188,-22.81749 18.15779,-28.12062 l 0.005,310.64053 16.4228,16.4228 -0.006,-333.88541 c -5.81893,1.09767 -11.34197,3.12802 -16.37098,6.77955 0.12515,-0.0909 0.24562,-0.20028 0.37138,-0.28916 10.4958,-46.26276 45.90291,-100.63313 -8.66178,-101.10802 -2.84729,-0.0248 -6.00336,0.13457 -9.35719,0.41219 z" /></g><g
     id="g2"
     inkscape:label="ammoVariety"
     style="fill:#000000;stroke:none;stroke-width:0.563757;stroke-linecap:round;stroke-linejoin:round;stroke-dasharray:none;stroke-opacity:1;paint-order:markers fill stroke"
     transform="matrix(1.3010376,1.3010376,-1.3010376,1.3010376,35.606956,-5.5973005)"><path
       id="path1-1"
       style="display:inline;fill:#dae639;stroke:none;stroke-width:10;stroke-dasharray:none;stroke-dashoffset:0"
       inkscape:label="Yellow-Background"
       d="M 369,241 241,369 369,497 497,369 Z"
       transform="matrix(0.43234722,-0.43234722,0.43234722,0.43234722,-47.754052,15.835152)" /><path
       id="path8"
       style="fill:#000000;stroke:none;stroke-width:0.259102;stroke-linecap:round;stroke-linejoin:round;stroke-dasharray:none;stroke-opacity:1;paint-order:markers fill stroke"
       d="m 244.5334,-12.007074 c -6.03823,6.0382517 -7.71166,12.08191934 -7.02277,17.9975883 0.64118,5.5022097 3.54984,10.8199817 7.42414,15.0101777 7.12122,-2.776021 12.51115,-3.127858 16.30303,-1.031724 a 11.054098,12.869317 45 0 1 1.77139,1.253049 c 2.65288,-0.909369 6.02376,-3.156555 8.90822,-6.041699 2.55669,-2.557377 4.7245,-5.5874082 5.96748,-8.3032476 a 11.853264,13.799717 45 0 1 -1.40774,-1.9873491 c -2.09878,-3.872414 -1.87655,-9.4002273 1.04081,-16.5160853 -3.97938,-3.648059 -9.25458,-6.568834 -14.78234,-7.27036 -5.97828,-0.759414 -12.12896,0.816404 -18.20222,6.88965 z m 6.80813,18.6199424 c 1.81018,-1.8101911 4.53753,-2.0219241 6.09256,-0.4670061 1.55487,1.5548615 1.34778,4.2865787 -0.46262,6.0969687 -1.8102,1.810193 -4.53794,2.01147 -6.09297,0.456488 -1.55488,-1.554856 -1.34743,-4.2759868 0.46277,-6.0863606 z m 10.95772,-10.9577406 0.001,-0.00126 c 1.81038,-1.8103876 4.53753,-2.0220221 6.09258,-0.4670036 1.55483,1.5548587 1.34627,4.28805064 -0.46366,6.0982243 -1.8104,1.8103908 -4.53555,2.0113258 -6.09058,0.4562416 -1.55484,-1.55486044 -1.34977,-4.2758098 0.46084,-6.0862132 z m 0.005,11.4060048 c 3.48918,1.0089584 6.72305,2.276111 9.46017,4.0368334 -2.32159,1.295279 -4.19794,3.034463 -5.42462,5.424614 -1.58937,-2.909739 -3.04525,-5.954009 -4.03555,-9.4614474 z m 3.45473,18.0957134 8.7e-4,0.0011 c 0.66785,1.512372 1.12385,3.214157 1.41388,5.04731 3.71509,-1.001662 8.41715,-4.067045 12.1948,-7.91803 3.71369,-3.786404 6.34478,-8.236089 7.0306,-11.24377 -1.68052,-0.276954 -3.271,-0.735929 -4.7057,-1.4067662 -1.61187,3.1115692 -3.94355,6.1079132 -6.57772,8.7424252 -2.85561,2.856275 -6.06406,5.3092 -9.35696,6.777733 z m -11.07093,16.865381 c 0.15395,3.672696 1.31026,6.328875 4.18353,8.148887 C 273.43764,37.486453 296.74981,23.133715 313.9988,15.675407 313.9136,11.968631 312.62441,9.3512456 309.72484,7.4590518 295.16178,19.690074 272.39806,35.025303 254.68805,42.022227 Z m 42.8177,-42.81728778 c -2.32762,5.89207508 -5.57894,12.34083578 -9.33124,18.86293978 4.76547,-3.259697 9.32218,-6.591702 13.42246,-9.7926948 1.36414,-1.7125938 2.72043,-3.3508249 4.05769,-4.8867259 -1.82082,-2.87248254 -4.47637,-4.02976598 -8.14891,-4.18351908 z M 266.99744,49.252556 a 156.5992,182.31472 45 0 1 -4.05594,4.988056 c 1.89177,2.899974 4.50996,4.190905 8.21616,4.276337 2.55126,-5.899719 5.90399,-12.509798 9.72525,-19.234977 -4.95974,3.291604 -9.68543,6.675246 -13.88547,9.970584 z"
       inkscape:label="Poison" /><path
       id="rect2"
       style="display:inline;fill:#000000;stroke:none;stroke-width:10;stroke-dasharray:none;stroke-opacity:1;paint-order:markers fill stroke"
       d="M 352.00001,224 224,352 351.99999,480 480,352 Z m 0,16.78699 L 463.21303,352.00002 352.00001,463.21303 240.78699,352.00002 Z"
       inkscape:label="Border"
       sodipodi:insensitive="true"
       transform="matrix(0.43234722,-0.43234722,0.43234722,0.43234722,-33.054249,15.835152)" /></g></svg>
