<?xml version="1.0" encoding="UTF-8" standalone="no"?>
<svg
   viewBox="0 0 512 512"
   version="1.1"
   id="svg3"
   sodipodi:docname="grenade_incendiary.svg"
   xml:space="preserve"
   width="512"
   height="512"
   inkscape:version="1.4 (86a8ad7, 2024-10-11)"
   xmlns:inkscape="http://www.inkscape.org/namespaces/inkscape"
   xmlns:sodipodi="http://sodipodi.sourceforge.net/DTD/sodipodi-0.dtd"
   xmlns="http://www.w3.org/2000/svg"
   xmlns:svg="http://www.w3.org/2000/svg"
   xmlns:rdf="http://www.w3.org/1999/02/22-rdf-syntax-ns#"
   xmlns:cc="http://creativecommons.org/ns#"
   xmlns:dc="http://purl.org/dc/elements/1.1/"><sodipodi:namedview
     id="namedview3"
     pagecolor="#ffffff"
     bordercolor="#000000"
     borderopacity="0.25"
     inkscape:showpageshadow="2"
     inkscape:pageopacity="0.0"
     inkscape:pagecheckerboard="true"
     inkscape:deskcolor="#505050"
     inkscape:zoom="1.5761719"
     inkscape:cx="255.68277"
     inkscape:cy="256"
     inkscape:window-width="1920"
     inkscape:window-height="1009"
     inkscape:window-x="1912"
     inkscape:window-y="-8"
     inkscape:window-maximized="1"
     inkscape:current-layer="svg3"><inkscape:page
       x="0"
       y="0"
       width="512"
       height="512"
       id="page2"
       margin="0"
       bleed="0" /></sodipodi:namedview><defs
     id="defs2"><filter
       style="color-interpolation-filters:sRGB;"
       inkscape:label="Drop Shadow"
       id="filter2"
       x="-0.15781133"
       y="-0.16251688"
       width="1.3156227"
       height="1.3250338"><feFlood
         result="flood"
         in="SourceGraphic"
         flood-opacity="0.533333"
         flood-color="rgb(51,51,51)"
         id="feFlood1" /><feGaussianBlur
         result="blur"
         in="SourceGraphic"
         stdDeviation="30.000000"
         id="feGaussianBlur1" /><feOffset
         result="offset"
         in="blur"
         dx="0.000000"
         dy="0.000000"
         id="feOffset1" /><feComposite
         result="comp1"
         operator="out"
         in="flood"
         in2="offset"
         id="feComposite1" /><feComposite
         result="comp2"
         operator="atop"
         in="comp1"
         in2="SourceGraphic"
         id="feComposite2" /></filter><filter
       id="shadow-1-57"
       height="1"
       width="1"
       x="0"
       y="0"><feComposite
         in2="SourceGraphic"
         in="offset"
         operator="atop"
         id="feComposite2-47" /></filter></defs><path
     d="M 0,0 H 512 V 512 H 0 Z"
     fill="#1b1f21"
     fill-opacity="1"
     id="path2"
     inkscape:label="Background" /><metadata
     id="metadata1"><rdf:RDF><cc:Work
         rdf:about=""><dc:source>https://www.svgrepo.com/svg/276049/granade</dc:source><cc:license
           rdf:resource="http://creativecommons.org/publicdomain/zero/1.0/" /></cc:Work><cc:License
         rdf:about="http://creativecommons.org/publicdomain/zero/1.0/"><cc:permits
           rdf:resource="http://creativecommons.org/ns#Reproduction" /><cc:permits
           rdf:resource="http://creativecommons.org/ns#Distribution" /><cc:permits
           rdf:resource="http://creativecommons.org/ns#DerivativeWorks" /></cc:License></rdf:RDF></metadata><g
     id="g26"
     inkscape:label="grenade"
     style="filter:url(#filter2)"><g
       id="g9"
       inkscape:label="base"
       transform="matrix(0.6187281,0.6187281,-0.6187281,0.6187281,265.899,-70.677979)"
       style="display:inline;stroke:none;stroke-width:1.14284;stroke-dasharray:none;stroke-opacity:1"><path
         id="path1"
         style="display:inline;fill:#999999;stroke:#000000;stroke-width:2.28568;stroke-linecap:round;stroke-linejoin:round;stroke-dasharray:none;stroke-opacity:1;paint-order:fill markers stroke"
         inkscape:label="ring"
         d="m 121.93588,63.273094 c -19.316,19.312125 -31.281097,45.974376 -31.281097,75.379876 0,29.7701 12.269327,56.7151 31.999237,76.08224 v -34.83709 c -6.78129,-12.23299 -10.65536,-26.29184 -10.65536,-41.24357 0,-43.429522 32.62934,-79.363332 74.65384,-84.635256 V 32.534948 c -25.15515,2.510181 -47.76616,13.791084 -64.71662,30.738146 z" /><path
         id="path2-0"
         style="display:inline;fill:#666666;fill-opacity:1;stroke:#000000;stroke-width:2.28568;stroke-linecap:round;stroke-linejoin:round;stroke-dasharray:none;stroke-opacity:1;paint-order:fill markers stroke"
         inkscape:label="top"
         d="m 192.60284,1.1449478 h 116.1089 C 307.28445,0.4359595 305.69756,6.5224531e-4 303.99409,6.5224531e-4 l -106.66887,-0.001578339 c -1.70407,0 -3.29267,0.43610940369 -4.72238,1.14587389369 z M 186.6525,20.186026 v 65.144351 l 127.99853,-0.0016 0.002,-65.142773 z" /><path
         id="path62"
         style="display:inline;fill:#333333;stroke:none;stroke-width:1.14284;stroke-linecap:round;stroke-linejoin:round;stroke-dasharray:none;stroke-opacity:1;paint-order:fill markers stroke"
         d="m 169.25447,3.9244022 c -1.72249,1.7188466 -2.78577,4.0952821 -2.78577,6.7316148 0,5.272665 4.2542,9.530009 9.52686,9.530009 h 159.99935 a 1.1429543,1.1429543 0 0 1 1.14113,1.141139 v 53.328907 c 0,3.198757 1.58772,6.164159 4.23784,7.921682 a 1.1429543,1.1429543 0 0 1 0.005,0.0016 l 59.24768,39.499506 a 1.1429543,1.1429543 0 0 1 0.51138,0.95016 v 250.29295 c 0,5.27266 4.25609,9.53001 9.51107,9.53001 5.29034,0 9.54421,-4.25799 9.54421,-9.52844 l 0.002,-255.99548 c 0,-3.18123 -1.58873,-6.15138 -4.241,-7.92484 L 356.70271,69.903695 a 1.1429543,1.1429543 0 0 1 -0.50823,-0.95016 V 10.656017 c 0,-5.2714308 -4.25462,-9.5110692 -9.54579,-9.5110692 H 175.99556 c -2.63737,0 -5.0186,1.0606078 -6.74109,2.7794544 z"
         inkscape:label="spring" /><path
         id="path4"
         style="display:inline;fill:#e64539;stroke:none;stroke-width:1.14284;stroke-dasharray:none;stroke-opacity:1"
         d="m 175.99725,85.329023 c -5.891,0 -10.67171,4.779476 -10.67171,10.669476 V 127.998 h -31.9995 c -5.891,0 -10.67171,4.76608 -10.67171,10.65608 v 362.66621 c 0,5.891 4.78071,10.67171 10.67171,10.67171 h 234.66598 c 5.891,0 10.65608,-4.78071 10.65608,-10.67171 V 138.65408 c 0,-5.891 -4.76508,-10.65608 -10.65608,-10.65608 H 335.99475 V 95.998499 c 0,-5.89 -4.78108,-10.669476 -10.65608,-10.669476 z"
         inkscape:label="canister" /><path
         id="rect5"
         style="display:inline;fill:#cccccc;stroke:none;stroke-width:0.878239;stroke-dasharray:none;stroke-opacity:1"
         d="m 122.65656,402.65973 v 27.33718 l 26.72727,-27.33718 z m 40.36321,0 -40.36321,41.28588 v 32.54915 l 72.18414,-73.83503 z m 45.45911,0 -73.90286,75.58949 h 31.82093 l 73.90287,-75.58949 z m 45.73367,0 -73.90064,75.58949 h 31.82094 l 73.90063,-75.58949 z m 45.45687,0 -73.90063,75.58949 h 31.82093 l 73.90064,-75.58949 z m 46.71802,0 -73.90063,75.58949 h 31.8187 l 73.90063,-75.58949 z m 32.26959,13.48735 -60.71334,62.10214 h 31.82093 l 28.89241,-29.55431 z m 0,46.49652 -15.25646,15.60562 h 15.25646 z" /><path
         id="rect6"
         style="display:inline;fill:#ffffff;fill-opacity:1;stroke:none;stroke-width:0.878239;stroke-dasharray:none;stroke-opacity:1"
         d="m 122.65656,402.65973 v 27.33718 l 26.72727,-27.33718 z m 40.36321,0 -40.36321,41.28588 v 32.54915 l 72.18414,-73.83503 z m 45.45911,0 -73.90286,75.58949 h 31.82093 l 73.90287,-75.58949 z m 42.17792,3.63679 -70.34489,71.9527 h 31.82094 l 38.52395,-39.40487 z m 0,46.49653 -24.88801,25.45617 h 24.88801 z" /><path
         id="path15"
         style="display:inline;fill:#333333;fill-opacity:1;stroke:none;stroke-width:1.14284;stroke-dasharray:none;stroke-opacity:1"
         inkscape:label="bars"
         d="m 175.99725,191.997 c -5.891,0 -10.67171,4.76508 -10.67171,10.65608 0,5.89 4.78071,10.67171 10.67171,10.67171 h 149.34142 c 5.875,0 10.65608,-4.78171 10.65608,-10.67171 0,-5.89 -4.78108,-10.65608 -10.65608,-10.65608 z m 0,42.65558 c -5.891,0 -10.67171,4.78071 -10.67171,10.67171 0,0.0685 0.01,0.1349 0.0112,0.20312 -0.001,0.0682 -0.0112,0.13459 -0.0112,0.20312 0,5.89 4.78071,10.67171 10.67171,10.67171 h 149.34142 c 5.875,0 10.65608,-4.78171 10.65608,-10.67171 0,-0.0685 -0.01,-0.13491 -0.0112,-0.20312 0.001,-0.0682 0.0112,-0.13459 0.0112,-0.20312 0,-5.891 -4.78108,-10.67171 -10.65608,-10.67171 z m 0,43.07745 c -5.891,0 -10.67171,4.78071 -10.67171,10.67171 0,5.891 4.78071,10.67171 10.67171,10.67171 h 149.34142 c 5.875,0 10.65608,-4.78071 10.65608,-10.67171 0,-5.891 -4.78108,-10.67171 -10.65608,-10.67171 z" /></g><path
       id="path84"
       style="display:inline;fill:#000000;fill-opacity:0.4;stroke:none;stroke-width:2.28568;stroke-linecap:round;stroke-linejoin:round;stroke-dasharray:none;stroke-opacity:1;paint-order:fill markers stroke"
       inkscape:label="shadow"
       d="m 133.32517,127.99761 6.14131,0.002 v -0.003 z M 278.13459,6.5224531e-4 c 1.70347,8.08109e-6 3.29037,0.43530884469 4.71765,1.14429555469 h 25.8595 C 307.28445,0.4359595 305.69756,6.5224531e-4 303.99409,6.5224531e-4 Z M 288.79311,20.186026 l -0.002,65.142773 10.68693,0.0016 c 5.87524,-2.34e-4 10.65694,4.779567 10.65694,10.66957 v 31.999241 h 25.85951 l -0.002,-32.00082 c 0,-5.89 -4.77879,-10.669569 -10.65379,-10.669569 h -10.68851 l 0.002,-65.142773 z M 320.78919,1.1449478 c 5.29118,-1.62e-5 9.54579,4.2396418 9.54579,9.5110692 v 9.530009 h 5.65993 a 1.1429543,1.1429543 0 0 1 1.14113,1.141139 V 74.09734 l 52.958,35.30586 c 2.65228,1.77346 4.24099,4.74361 4.241,7.92484 v 0.55557 l 6.29126,4.19523 a 1.1429543,1.1429543 0 0 1 0.51138,0.95016 v 250.29295 c 0,5.27266 4.25609,9.53001 9.51107,9.53001 5.29034,0 9.54421,-4.25799 9.54421,-9.52844 l 0.002,-255.99548 c 0,-3.18123 -1.58873,-6.15138 -4.241,-7.92484 L 356.70271,69.903695 a 1.1429543,1.1429543 0 0 1 -0.50823,-0.95016 V 10.656017 c 0,-5.2714312 -4.25462,-9.5110692 -9.54579,-9.5110692 z m 21.3565,126.8526622 c 5.88508,0.007 10.64432,4.77022 10.64432,10.65694 l -0.002,362.66593 c 2.7e-4,5.89126 -4.76436,10.67115 -10.65537,10.67115 h 25.85951 c 5.891,0 10.65536,-4.78015 10.65536,-10.67115 V 138.65297 c 0,-5.891 -4.76436,-10.65536 -10.65536,-10.65536 z"
       transform="matrix(0.6187281,0.6187281,-0.6187281,0.6187281,265.899,-70.677979)" /><path
       id="path87"
       style="display:inline;fill:#ffffff;fill-opacity:0.4;stroke:none;stroke-width:2.28568;stroke-linecap:round;stroke-linejoin:round;stroke-dasharray:none;stroke-opacity:1;paint-order:fill markers stroke"
       inkscape:label="highlight"
       d="m 121.93588,63.273094 c -19.316,19.312125 -31.281097,45.974376 -31.281097,75.379876 0,29.7701 12.269327,56.7151 31.999237,76.08224 v 286.58527 c 0,5.891 4.78015,10.67115 10.67115,10.67115 h 25.84687 c -5.88429,-0.008 -10.65852,-4.78502 -10.65852,-10.67115 l 0.002,-362.66593 c 2.7e-4,-5.88974 4.78015,-10.65537 10.67115,-10.65536 l -25.86108,-0.002 c -2.9455,0 -5.61291,1.19102 -7.54446,3.11879 -1.93155,1.92777 -3.12669,4.59157 -3.12669,7.53657 v 41.24515 c -6.78129,-12.23299 -10.65536,-26.29184 -10.65536,-41.24357 0,-20.33825 7.15809,-39.031734 19.08369,-53.702974 4.64227,-7.92795 10.25487,-15.221618 16.71303,-21.678482 10.88894,-10.88676 24.1224,-19.416425 38.85712,-24.803593 v 46.860876 l -10.65537,-0.0016 c -2.9455,0 -5.6129,1.193991 -7.54445,3.12511 -1.93156,1.931119 -3.12827,4.599459 -3.12827,7.544459 v 31.999244 l 25.86108,0.002 V 95.999947 c -3.1e-4,-5.88544 4.77264,-10.661673 10.65694,-10.66957 H 212.512 V 20.186026 h -25.8595 v 12.348922 c -25.15515,2.510181 -47.76616,13.791084 -64.71662,30.738146 z M 192.60284,1.1449478 h 25.8595 c 1.42792,-0.70888241 3.01442,-1.14478085569 4.71607,-1.14587389338 h -25.85319 c -1.70407,0 -3.29267,0.43610940338 -4.72238,1.14587389338 z"
       transform="matrix(0.6187281,0.6187281,-0.6187281,0.6187281,265.899,-70.677979)" /><path
       id="path9"
       style="display:inline;stroke:none;stroke-width:1.14284;stroke-dasharray:none;stroke-opacity:1;stroke-linecap:round;stroke-linejoin:round;paint-order:fill markers stroke"
       d="M 167.6493 2.3160751 C 165.5091 4.4521152 164.18169 7.4029275 164.18169 10.657595 C 164.18169 17.16693 169.4878 22.473039 175.99713 22.473039 L 334.85061 22.473039 L 334.85061 74.656072 C 334.85061 78.613315 336.82649 82.30391 340.11437 84.484387 L 398.85067 123.64297 L 398.84909 373.32195 C 398.84909 379.83128 404.15373 385.13739 410.64875 385.13739 C 417.17241 385.13739 422.47997 379.83264 422.47997 373.3251 L 422.47997 117.32804 C 422.47997 113.3842 420.50686 109.6976 417.22253 107.50288 A 1.1429543 1.1429543 0 0 0 417.22095 107.5013 L 358.47992 68.341139 L 358.47992 10.656017 C 358.47992 4.1474474 353.16952 -1.1436433 346.64869 -1.1436433 L 175.99713 -1.142065 C 172.7435 -1.142065 169.78951 0.18003497 167.6493 2.3160751 z M 169.25447 3.9244022 C 170.97696 2.2055556 173.35819 1.1449478 175.99556 1.1449478 L 346.64869 1.1449478 C 351.93986 1.1449478 356.19448 5.3845862 356.19448 10.656017 L 356.19448 68.953535 A 1.1429543 1.1429543 0 0 0 356.70271 69.903695 L 415.95354 109.4032 C 418.60581 111.17666 420.19454 114.14681 420.19454 117.32804 L 420.19296 373.32352 C 420.19296 378.59397 415.93909 382.85196 410.64875 382.85196 C 405.39377 382.85196 401.13768 378.59461 401.13768 373.32195 L 401.13768 123.029 A 1.1429543 1.1429543 0 0 0 400.6263 122.07884 L 341.37862 82.579333 A 1.1429543 1.1429543 0 0 0 341.37388 82.577754 C 338.72376 80.820231 337.13604 77.854829 337.13604 74.656072 L 337.13604 21.327165 A 1.1429543 1.1429543 0 0 0 335.99491 20.186026 L 175.99556 20.186026 C 170.7229 20.186026 166.4687 15.928682 166.4687 10.656017 C 166.4687 8.0196843 167.53198 5.6432488 169.25447 3.9244022 z M 124.97891 130.31461 C 122.83873 132.45076 121.51288 135.40034 121.51288 138.65455 L 121.5113 501.32048 C 121.5113 507.82978 126.81587 513.13434 133.32517 513.13434 L 367.99257 513.13434 C 374.50187 513.13434 379.79065 507.82776 379.79065 501.32048 L 379.79223 138.65455 C 379.79223 132.14727 374.49984 126.85489 367.99257 126.85489 L 337.13604 126.85489 L 337.13604 95.998368 C 337.13604 89.489917 331.83278 84.184503 325.33796 84.184503 L 175.99713 84.186081 C 169.48799 84.186081 164.18327 89.488387 164.18327 95.99679 L 164.18327 126.85647 L 133.32675 126.85647 C 130.07305 126.85647 127.1191 128.17845 124.97891 130.31461 z M 126.58408 131.91978 C 128.30708 130.20031 130.68787 129.14032 133.32517 129.14032 L 165.32599 129.1419 A 1.1429543 1.1429543 0 0 0 166.4687 127.99919 L 166.4687 95.99679 C 166.4687 90.725192 170.72584 86.473094 175.99871 86.473094 L 325.33796 86.473094 C 330.59314 86.473094 334.85061 90.726818 334.85061 95.998368 L 334.85061 127.99761 A 1.1429543 1.1429543 0 0 0 335.99333 129.14032 L 367.99257 129.14032 C 373.26729 129.14032 377.50679 133.37982 377.50679 138.65455 L 377.50521 501.32048 C 377.50521 506.59521 373.26527 510.84891 367.99257 510.84891 L 133.32675 510.85049 C 128.05405 510.85049 123.79673 506.59318 123.79674 501.32048 L 123.79674 138.65297 C 123.79674 136.01717 124.86109 133.63925 126.58408 131.91978 z "
       inkscape:label="stroke"
       transform="matrix(0.6187281,0.6187281,-0.6187281,0.6187281,265.899,-70.677979)" /></g><g
     id="g2"
     inkscape:label="ammoVariety"
     style="fill:#000000;stroke:none;stroke-width:0.563757;stroke-linecap:round;stroke-linejoin:round;stroke-dasharray:none;stroke-opacity:1;paint-order:markers fill stroke"
     transform="matrix(1.3010376,1.3010376,-1.3010376,1.3010376,35.606956,-5.5973005)"><path
       id="path1-5"
       style="display:inline;fill:#dae639;stroke:none;stroke-width:10;stroke-dasharray:none;stroke-dashoffset:0"
       inkscape:label="Yellow-Background"
       d="M 369,241 241,369 369,497 497,369 Z"
       transform="matrix(0.43234722,-0.43234722,0.43234722,0.43234722,-47.754052,15.835152)" /><path
       d="M 152.03,353.782 C 116.95,413.083 38.11,332.11979 43.75,227 -6.035,361.93772 30.21,443.745 95.22,492.75 c 1.386,0.34 17.577,0.498 41.186,0.562 -28.478,-16.9 -32.06,-75.355 32.813,-103.25 l 15.78,-7 -2.937,16.938 c -1.356,8.34 -0.318,13.95 1.188,16.937 1.507,2.987 3.106,3.544 5.844,4.094 5.475,1.1 16.963,-2.395 26.28,-14.624 18.636,-24.457 29.117,-4.68811 -26.874,-167 l -4.094,-12.04077 -10.52903,-47.53382 c 20.51261,32.64313 44.94797,49.69539 77.1209,68.99754 C 276.47064,267.52183 334.3,283.835 373.625,338.095 c 21.544,-22.906 38.7,-66.49634 43.812,-91.69 l 3.5,-19.85424 13.438,17.32584 c 25.525,33.1063 30.267,103.9424 11.094,155.5304 -14.23,38.28 -42.036,72.34 -84,93.5 13.623,-0.01 24.05,0.032 25.25,0.124 154.76,-34.77 139.345,-245.41601 -14.19,-353.21713 0.012,0.52476 0,1.0553 0,1.58151 C 451.493,275.74472 236.064,290.23 253.279,112.596 211.593,213.059 106.28663,94.127498 220.03324,0.82502269 -90.568492,163.11573 239.07911,206.62836 152.03,353.782 Z m 105.98253,-46.83025 c 15.27768,23.67548 25.27432,49.55884 25.76058,76.11025 0.6638,35.99404 -1.19311,47.12 -16.43011,66.563 -14.832,18.926 -34.837,34.62 -56.625,43.656 33.127,-0.065 64.926,-0.16 95.217,-0.25 l -0.062,-0.186 c 30.95,-18.584 47.31,-38.83 53.75,-57.813 6.44,-18.982 4.43987,-29.91522 -5.844,-54.58829 -17.4602,-41.89569 -56.20849,-71.46383 -95.76647,-73.48896 z"
       fill="#e64539"
       fill-opacity="1"
       filter="url(#shadow-1)"
       id="path3"
       style="display:inline;fill:#000000;fill-opacity:1;stroke:none;stroke-width:4.19868;stroke-linecap:round;stroke-linejoin:round;stroke-dasharray:none;stroke-opacity:1;paint-order:markers fill stroke;filter:url(#shadow-1-57)"
       transform="matrix(0.09074598,-0.09074598,0.1245379,0.1245379,213.93485,5.2772055)"
       inkscape:label="Incendiary"
       sodipodi:nodetypes="scccccccsccccccccccccccccsccscccsccc" /><path
       id="rect2"
       style="display:inline;fill:#000000;stroke:none;stroke-width:10;stroke-dasharray:none;stroke-opacity:1;paint-order:markers fill stroke"
       d="M 352.00001,224 224,352 351.99999,480 480,352 Z m 0,16.78699 L 463.21303,352.00002 352.00001,463.21303 240.78699,352.00002 Z"
       inkscape:label="Border"
       sodipodi:insensitive="true"
       transform="matrix(0.43234722,-0.43234722,0.43234722,0.43234722,-33.054249,15.835152)" /></g></svg>
