<?xml version="1.0" encoding="UTF-8" standalone="no"?>
<svg
   viewBox="0 0 512 512"
   version="1.1"
   id="svg3"
   sodipodi:docname="paintball_acid.svg"
   inkscape:export-filename="ammo_paintball_basic.svg"
   inkscape:export-xdpi="96"
   inkscape:export-ydpi="96"
   xml:space="preserve"
   width="512"
   height="512"
   inkscape:version="1.4 (86a8ad7, 2024-10-11)"
   xmlns:inkscape="http://www.inkscape.org/namespaces/inkscape"
   xmlns:sodipodi="http://sodipodi.sourceforge.net/DTD/sodipodi-0.dtd"
   xmlns="http://www.w3.org/2000/svg"
   xmlns:svg="http://www.w3.org/2000/svg"
   xmlns:rdf="http://www.w3.org/1999/02/22-rdf-syntax-ns#"
   xmlns:cc="http://creativecommons.org/ns#"
   xmlns:dc="http://purl.org/dc/elements/1.1/"><sodipodi:namedview
     id="namedview3"
     pagecolor="#999999"
     bordercolor="#000000"
     borderopacity="0.25"
     inkscape:showpageshadow="2"
     inkscape:pageopacity="0.0"
     inkscape:pagecheckerboard="true"
     inkscape:deskcolor="#333333"
     inkscape:zoom="1.5761719"
     inkscape:cx="255.68277"
     inkscape:cy="256"
     inkscape:window-width="1920"
     inkscape:window-height="1009"
     inkscape:window-x="1912"
     inkscape:window-y="-8"
     inkscape:window-maximized="1"
     inkscape:current-layer="svg3"><inkscape:page
       x="0"
       y="0"
       width="512"
       height="512"
       id="page2"
       margin="0"
       bleed="0" /></sodipodi:namedview><defs
     id="defs2"><filter
       style="color-interpolation-filters:sRGB;"
       inkscape:label="Drop Shadow"
       id="filter21"
       x="-0.17777778"
       y="-0.27858387"
       width="1.3555556"
       height="1.5571677"><feFlood
         result="flood"
         in="SourceGraphic"
         flood-opacity="0.533333"
         flood-color="rgb(51,51,51)"
         id="feFlood19" /><feGaussianBlur
         result="blur"
         in="SourceGraphic"
         stdDeviation="30.000000"
         id="feGaussianBlur19" /><feOffset
         result="offset"
         in="blur"
         dx="0.000000"
         dy="0.000000"
         id="feOffset19" /><feComposite
         result="comp1"
         operator="out"
         in="flood"
         in2="offset"
         id="feComposite20" /><feComposite
         result="comp2"
         operator="atop"
         in="comp1"
         in2="SourceGraphic"
         id="feComposite21" /></filter></defs><path
     d="M 0,1.77002e-6 H 512 V 512 H 0 Z"
     fill="#1b1f21"
     fill-opacity="1"
     id="path2"
     inkscape:label="Background" /><g
     id="g14"
     inkscape:label="Paintballs"
     transform="matrix(1.1851852,0,0,1.1851852,15.700145,15.69896)"
     style="filter:url(#filter21)">
	
<path
   id="path4"
   style="fill:#cc0000"
   inkscape:label="ball"
   d="M 137.75294 88.529697 C 106.04294 88.529697 80.252696 114.31829 80.252696 146.02829 C 80.252696 177.72829 106.04294 203.52854 137.75294 203.52854 C 169.45294 203.52854 195.25318 177.72829 195.25318 146.02829 C 195.25318 114.31829 169.45294 88.529697 137.75294 88.529697 z M 267.75306 88.529697 C 236.04306 88.529697 210.25282 114.31829 210.25282 146.02829 C 210.25282 177.72829 236.04306 203.52854 267.75306 203.52854 C 299.45306 203.52854 325.2533 177.72829 325.2533 146.02829 C 325.2533 114.31829 299.45306 88.529697 267.75306 88.529697 z M 293.15125 108.15512 C 293.28381 108.14483 293.41711 108.165 293.55006 108.16172 C 293.24678 108.16919 292.94551 108.2002 292.64533 108.24411 C 292.81483 108.21926 292.98053 108.16839 293.15125 108.15512 z M 294.28175 108.17655 C 294.46364 108.18976 294.643 108.20444 294.82392 108.23093 C 294.6438 108.20456 294.46282 108.18977 294.28175 108.17655 z M 292.02076 108.35288 C 291.7205 108.42318 291.42824 108.52405 291.13746 108.63138 C 291.42904 108.52371 291.71968 108.42333 292.02076 108.35288 z M 295.64625 108.40726 C 295.82012 108.45314 295.99261 108.49357 296.1637 108.55228 C 295.9932 108.49382 295.81951 108.45299 295.64625 108.40726 z M 290.56068 108.85221 C 290.25163 108.99654 289.95914 109.17993 289.66914 109.36801 C 289.95969 109.17961 290.25101 108.99673 290.56068 108.85221 z M 297.02558 108.92307 C 297.16047 108.98933 297.29922 109.04089 297.43098 109.11588 C 297.29944 109.04106 297.16024 108.9892 297.02558 108.92307 z M 289.21265 109.65805 C 288.79051 109.97818 288.39083 110.33954 288.03272 110.75888 C 288.39107 110.33926 288.79005 109.97833 289.21265 109.65805 z M 72.75288 201.97946 C 41.04288 201.97946 15.252636 227.76971 15.252636 259.47971 C 15.252636 291.17971 41.04288 316.9783 72.75288 316.9783 C 104.45288 316.9783 130.25312 291.17971 130.25312 259.47971 C 130.25312 227.76971 104.45288 201.97946 72.75288 201.97946 z M 202.753 201.97946 C 171.043 201.97946 145.25276 227.76971 145.25276 259.47971 C 145.25276 291.17971 171.043 316.9783 202.753 316.9783 C 234.453 316.9783 260.25324 291.17971 260.25324 259.47971 C 260.25324 227.76971 234.453 201.97946 202.753 201.97946 z M 332.75312 201.97946 C 301.04312 201.97946 275.25288 227.76971 275.25288 259.47971 C 275.25288 291.17971 301.04312 316.9783 332.75312 316.9783 C 364.45312 316.9783 390.25336 291.17971 390.25336 259.47971 C 390.25336 227.76971 364.45312 201.97946 332.75312 201.97946 z " /><path
   id="path5"
   style="display:inline;fill:#ffffff;fill-opacity:0.666667"
   d="m 137.75294,98.529453 c -4.15,0 -7.49982,3.349817 -7.49982,7.499817 0,4.14 3.34982,7.49982 7.49982,7.49982 17.92,0 32.50085,14.5792 32.50085,32.4992 0,4.14 3.34982,7.50147 7.49982,7.50147 4.14,0 7.49982,-3.36147 7.49982,-7.50147 0,-26.2 -21.31049,-47.498837 -47.50049,-47.498837 z m 130.00012,0 c -4.15,0 -7.49982,3.349817 -7.49982,7.499817 0,4.14 3.34982,7.49982 7.49982,7.49982 1.9,0 3.82048,0.15944 5.68048,0.48944 0.44,0.08 0.88012,0.1203 1.31012,0.1203 3.57,0 6.72952,-2.55959 7.37952,-6.19959 0.72,-4.08 -2.00094,-7.969633 -6.08094,-8.689633 -2.72,-0.48 -5.50918,-0.720154 -8.28918,-0.720154 z m 26.1167,9.604247 c -2.16255,-0.039 -4.32391,0.85331 -5.83704,2.62518 -2.69,3.14 -2.32932,7.87995 0.82068,10.56995 7.24,6.2 11.39887,15.19946 11.39887,24.69946 0,4.14 3.35146,7.50147 7.50146,7.50147 4.14,0 7.49982,-3.36147 7.49982,-7.50147 0,-13.88 -6.07099,-27.04008 -16.64099,-36.09008 -1.37813,-1.18125 -3.06082,-1.77421 -4.7428,-1.80451 z M 72.75288,211.97922 c -4.15,0 -7.499817,3.34982 -7.499817,7.49982 0,4.14 3.349817,7.49981 7.499817,7.49981 17.92,0 32.50085,14.58086 32.50085,32.50086 0,4.14 3.34982,7.49981 7.49982,7.49981 4.14,0 7.49982,-3.35981 7.49982,-7.49981 0,-26.2 -21.31049,-47.50049 -47.50049,-47.50049 z m 130.00012,0 c -4.15,0 -7.49982,3.34982 -7.49982,7.49982 0,4.14 3.34982,7.49981 7.49982,7.49981 17.92,0 32.49921,14.58086 32.49921,32.50086 0,4.14 3.35146,7.49981 7.50146,7.49981 4.14,0 7.49982,-3.35981 7.49982,-7.49981 0,-26.2 -21.31049,-47.50049 -47.50049,-47.50049 z m 130.00012,0 c -4.15,0 -7.49982,3.34982 -7.49982,7.49982 0,4.14 3.34982,7.49981 7.49982,7.49981 17.92,0 32.49921,14.58086 32.49921,32.50086 0,4.14 3.35146,7.49981 7.50146,7.49981 4.14,0 7.49982,-3.35981 7.49982,-7.49981 0,-26.2 -21.31049,-47.50049 -47.50049,-47.50049 z"
   inkscape:label="shine" /><path
   style="display:inline;fill:#000000"
   d="m 332.753,186.979 c 39.97,0 72.5,32.52 72.5,72.5 0,39.97 -32.53,72.5 -72.5,72.5 -28.47,0 -53.15,-16.5 -65,-40.44 -11.86,23.94 -36.53,40.44 -65,40.44 -28.47,0 -53.15,-16.5 -65,-40.44 -11.86,23.94 -36.54,40.44 -65,40.44 -39.98,0 -72.5,-32.53 -72.5,-72.5 0,-39.98 32.52,-72.5 72.5,-72.5 1.8,0 3.59,0.09 5.37,0.22 -8.11,-11.71 -12.87,-25.89 -12.87,-41.17 0,-39.98 32.52,-72.5 72.5,-72.5 28.47,0 53.14,16.5 65,40.43 11.85,-23.93 36.53,-40.43 65,-40.43 39.97,0 72.5,32.52 72.5,72.5 0,15.28 -4.77,29.46 -12.87,41.17 1.77,-0.13 3.56,-0.22 5.37,-0.22 z m 57.5,72.5 c 0,-31.71 -25.8,-57.5 -57.5,-57.5 -31.71,0 -57.5,25.79 -57.5,57.5 0,31.7 25.79,57.5 57.5,57.5 31.7,0 57.5,-25.8 57.5,-57.5 z m -65,-113.45 c 0,-31.71 -25.8,-57.5 -57.5,-57.5 -31.71,0 -57.5,25.79 -57.5,57.5 0,31.7 25.79,57.5 57.5,57.5 31.7,0 57.5,-25.8 57.5,-57.5 z m -52.13,72.28 c -1.78,0.13 -3.56,0.22 -5.37,0.22 -1.81,0 -3.6,-0.09 -5.37,-0.22 2,2.89 3.8,5.93 5.37,9.1 1.57,-3.17 3.37,-6.21 5.37,-9.1 z m -12.87,41.17 c 0,-31.71 -25.8,-57.5 -57.5,-57.5 -31.71,0 -57.5,25.79 -57.5,57.5 0,31.7 25.79,57.5 57.5,57.5 31.7,0 57.5,-25.8 57.5,-57.5 z m -57.5,-72.5 c 1.8,0 3.59,0.09 5.37,0.22 -2,-2.89 -3.8,-5.94 -5.37,-9.11 -1.58,3.17 -3.37,6.22 -5.37,9.11 1.77,-0.13 3.56,-0.22 5.37,-0.22 z m -7.5,-40.95 c 0,-31.71 -25.8,-57.5 -57.5,-57.5 -31.71,0 -57.5,25.79 -57.5,57.5 0,31.7 25.79,57.5 57.5,57.5 31.7,0 57.5,-25.8 57.5,-57.5 z m -52.13,72.28 c -1.78,0.13 -3.57,0.22 -5.37,0.22 -1.81,0 -3.6,-0.09 -5.37,-0.22 2,2.89 3.79,5.93 5.37,9.1 1.57,-3.17 3.37,-6.21 5.37,-9.1 z m -12.87,41.17 c 0,-31.71 -25.8,-57.5 -57.5,-57.5 -31.71,0 -57.5,25.79 -57.5,57.5 0,31.7 25.79,57.5 57.5,57.5 31.7,0 57.5,-25.8 57.5,-57.5 z"
   id="path1"
   inkscape:label="outline" /></g><metadata
     id="metadata5"><rdf:RDF><cc:Work
         rdf:about=""><dc:source>https://www.svgrepo.com/svg/170009/round-shot</dc:source><cc:license
           rdf:resource="http://creativecommons.org/publicdomain/zero/1.0/" /></cc:Work><cc:License
         rdf:about="http://creativecommons.org/publicdomain/zero/1.0/"><cc:permits
           rdf:resource="http://creativecommons.org/ns#Reproduction" /><cc:permits
           rdf:resource="http://creativecommons.org/ns#Distribution" /><cc:permits
           rdf:resource="http://creativecommons.org/ns#DerivativeWorks" /></cc:License></rdf:RDF></metadata><g
     id="g2"
     inkscape:label="ammoVariety"
     style="fill:#000000;stroke:none;stroke-width:0.563757;stroke-linecap:round;stroke-linejoin:round;stroke-dasharray:none;stroke-opacity:1;paint-order:markers fill stroke"
     transform="matrix(1.3010376,1.3010376,-1.3010376,1.3010376,35.606956,-5.5973005)"><path
       id="path1-0"
       style="display:inline;fill:#dae639;stroke:none;stroke-width:10;stroke-dasharray:none;stroke-dashoffset:0"
       inkscape:label="Yellow-Background"
       d="M 369,241 241,369 369,497 497,369 Z"
       transform="matrix(0.43234722,-0.43234722,0.43234722,0.43234722,-47.754052,15.835152)" /><path
       d="m 236.44827,-6.1584548 c -0.91846,0.9184707 -1.00831,2.13686 -0.8583,3.1102811 0.15034,0.9730896 0.49413,1.8307324 1.19456,2.53115762 0.70054,0.70054684 1.55475,1.07613014 2.55941,1.30347756 1.00489,0.22712642 2.322,0.30378532 3.33763,-0.71184854 l -0.0224,0.022427 0.75029,-0.71881952 13.51689,13.51689658 c 1.56694,13.02863 4.66214,38.387124 4.66214,38.387124 l 0.0122,0.101376 0.0263,0.09827 c 0.41083,1.540899 1.22226,3.44254 2.83794,5.058224 3.93646,3.936452 10.44851,3.91618 14.36479,1.11e-4 l 33.19341,-33.193403 c 3.90576,-3.905764 3.97877,-10.386121 0,-14.3648966 -1.80548,-1.8054738 -3.95873,-2.384142 -5.19051,-2.7094282 L 306.73177,6.2456864 268.76334,1.827836 254.86089,-12.074612 c 0.28042,-0.295035 0.3244,-0.354084 0.68691,-0.71704 l 0.01,-0.0099 c 1.01576,-1.015745 0.93898,-2.333175 0.71196,-3.337728 -0.0739,-0.325847 -0.17139,-0.630074 -0.2824,-0.924127 l 2.5e-4,-0.309883 -0.0902,0.09014 c -0.22379,-0.523389 -0.51561,-1.000014 -0.93131,-1.41571 -0.70021,-0.700205 -1.55784,-1.044446 -2.53105,-1.194449 -0.9732,-0.150236 -2.19181,-0.06021 -3.1105,0.858526 l -12.8763,12.8762854 z m 2.0705,2.0704864 12.87651,-12.8765066 c -0.01,0.0099 0.19089,-0.09722 0.5934,-0.03502 0.40241,0.06208 0.87659,0.340353 0.90739,0.371154 0.0306,0.0306 0.40473,0.635841 0.51752,1.134627 0.11234,0.497017 -0.0321,0.726132 0.0731,0.621545 -0.75737,0.757375 -1.32075,1.364404 -1.55298,1.616123 l -0.023,-0.02298 -10.7411,10.7411048 0.003,0.00331 -0.55065,0.5273655 -0.0112,0.011268 c 0.10769,-0.1077131 -0.12231,0.038777 -0.62122,-0.073908 -0.49856,-0.1130053 -1.10393,-0.487042 -1.13461,-0.517732 -0.0306,-0.030602 -0.309,-0.5046517 -0.37116,-0.9073899 -0.0619,-0.4022852 0.0456,-0.6035935 0.0351,-0.5930652 z m 6.95344,1.3883447 7.31185,-7.3118493 8.31718,8.3171756 -0.004,0.00442 5.81626,5.8162772 0.0114,0.0011 0.48992,0.4899143 38.75971,4.5102523 c 1.1795,0.3135432 2.60065,0.7453004 3.77914,1.9238006 2.84293,2.842932 2.77534,7.448571 2.2e-4,10.223698 l -33.1934,33.193414 c -2.76483,2.764379 -7.4406,2.783326 -10.22391,0 -0.3941,-0.394089 -0.72383,-0.819088 -1.00136,-1.25528 l 0.0154,0.0032 a 8.0566957,8.0566957 0 0 1 -0.71228,-1.395652 l 0.008,0.04609 a 9.5723009,9.5723009 0 0 1 -0.36505,-1.067484 c -0.0206,-0.168617 -3.16643,-25.941361 -4.70722,-38.757712 l -0.0604,-0.502444 -0.12797,-0.127964 c -7.7e-4,-0.0058 -0.002,-0.0175 -0.003,-0.02326 l -5.78171,-5.7817021 -0.01,0.010164 -8.31717,-8.3171878 z m 10.39787,6.2365035 6.49443,6.4944282 0.0606,0.501558 c 1.04322,8.598596 4.90732,39.381262 4.93536,39.604731 0.20186,0.729235 0.57722,1.569928 1.25606,2.248752 1.68492,1.684929 4.52586,1.674071 6.19085,0.009 l 33.12637,-33.126355 c 1.67561,-1.675624 1.7186,-4.46316 -0.009,-6.190856 -0.69556,-0.695554 -1.5398,-0.958355 -2.31988,-1.166977 L 265.55266,6.9083304 259.02554,0.38122326 255.87019,3.5365893 Z m 12.81668,13.7136592 c 2.32829,-2.328302 6.14741,-2.328191 8.47561,0 2.32852,2.328524 2.32863,6.147649 2.6e-4,8.47595 -2.3283,2.328302 -6.14765,2.328412 -8.47584,2.23e-4 -2.32841,-2.328414 -2.32841,-6.14787 -1.1e-4,-8.476173 z m 2.07071,2.07071 c -1.20908,1.209077 -1.20919,3.125453 -2.2e-4,4.33442 1.20929,1.209298 3.12589,1.209188 4.33485,2.21e-4 1.20919,-1.209188 1.20941,-3.125453 0,-4.334862 -1.20918,-1.209188 -3.12578,-1.209078 -4.33485,0 z m -0.6067,12.753312 c 2.32831,-2.328302 6.14776,-2.328302 8.47605,0 2.32841,2.328413 2.3283,6.147757 0,8.47606 -2.32829,2.328302 -6.14785,2.328189 -8.47616,-1.1e-4 -2.3283,-2.328303 -2.3283,-6.14776 0,-8.476061 z m 11.89167,-9.518507 c 2.73259,-2.732583 7.20761,-2.73225 9.94007,2.22e-4 2.7327,2.732694 2.73248,7.207377 0,9.939849 -2.73246,2.732473 -7.20748,2.732806 -9.94007,2.21e-4 -2.73246,-2.732472 -2.73246,-7.207819 0,-9.940292 z m -9.82096,11.589216 c -1.20908,1.209076 -1.20897,3.125674 0,4.33464 1.20918,1.20919 3.12578,1.20908 4.33474,1.11e-4 1.2092,-1.209189 1.20931,-3.125564 0,-4.334864 -1.20907,-1.209076 -3.12567,-1.208965 -4.33474,1.13e-4 z m 11.89167,-9.518507 c -1.61335,1.613359 -1.61335,4.185515 0,5.798873 1.61348,1.613471 4.18552,1.613358 5.79888,0 1.61358,-1.613579 1.61369,-4.185181 0,-5.798873 -1.61336,-1.613359 -4.1854,-1.613469 -5.79888,0 z"
       fill="#fff"
       fill-opacity="1"
       id="path2-1"
       inkscape:label="Acid"
       style="fill:#000000;stroke-width:0.0883319" /><path
       id="rect2"
       style="display:inline;fill:#000000;stroke:none;stroke-width:10;stroke-dasharray:none;stroke-opacity:1;paint-order:markers fill stroke"
       d="M 352.00001,224 224,352 351.99999,480 480,352 Z m 0,16.78699 L 463.21303,352.00002 352.00001,463.21303 240.78699,352.00002 Z"
       inkscape:label="Border"
       transform="matrix(0.43234722,-0.43234722,0.43234722,0.43234722,-33.054249,15.835152)" /></g></svg>
