<?xml version="1.0" encoding="UTF-8" standalone="no"?>
<!-- Created with Inkscape (http://www.inkscape.org/) -->

<svg
   width="511.99997"
   height="511.99997"
   viewBox="0 0 512 512"
   version="1.1"
   id="svg1"
   xml:space="preserve"
   sodipodi:docname="pistolveryheavy_armorpiercing.svg"
   inkscape:version="1.4 (86a8ad7, 2024-10-11)"
   xmlns:inkscape="http://www.inkscape.org/namespaces/inkscape"
   xmlns:sodipodi="http://sodipodi.sourceforge.net/DTD/sodipodi-0.dtd"
   xmlns="http://www.w3.org/2000/svg"
   xmlns:svg="http://www.w3.org/2000/svg"><sodipodi:namedview
     id="namedview1"
     pagecolor="#1b1f21"
     bordercolor="#000000"
     borderopacity="0.25"
     inkscape:showpageshadow="2"
     inkscape:pageopacity="0.0"
     inkscape:pagecheckerboard="true"
     inkscape:deskcolor="#111111"
     inkscape:document-units="px"
     showborder="true"
     labelstyle="default"
     inkscape:zoom="1.576172"
     inkscape:cx="256.3172"
     inkscape:cy="258.53777"
     inkscape:window-width="1920"
     inkscape:window-height="1009"
     inkscape:window-x="1912"
     inkscape:window-y="-8"
     inkscape:window-maximized="1"
     inkscape:current-layer="svg1"
     showguides="true"><inkscape:page
       x="0"
       y="0"
       width="512"
       height="512"
       id="page2"
       margin="0"
       bleed="0" /><sodipodi:guide
       position="256.31411,436.6135"
       orientation="1,0"
       id="guide5"
       inkscape:locked="false" /></sodipodi:namedview><defs
     id="defs1"><filter
       style="color-interpolation-filters:sRGB;"
       inkscape:label="Drop Shadow"
       id="filter2"
       x="-1.6744186"
       y="-0.41142857"
       width="4.3488372"
       height="1.8228571"><feFlood
         result="flood"
         in="SourceGraphic"
         flood-opacity="0.533333"
         flood-color="rgb(51,51,51)"
         id="feFlood1" /><feGaussianBlur
         result="blur"
         in="SourceGraphic"
         stdDeviation="30.000000"
         id="feGaussianBlur1" /><feOffset
         result="offset"
         in="blur"
         dx="0.000000"
         dy="0.000000"
         id="feOffset1" /><feComposite
         result="comp1"
         operator="out"
         in="flood"
         in2="offset"
         id="feComposite1" /><feComposite
         result="comp2"
         operator="atop"
         in="comp1"
         in2="SourceGraphic"
         id="feComposite2" /></filter></defs><path
     id="rect5"
     style="fill:#1b1f21;stroke-width:6.78108"
     inkscape:label="background"
     d="M 0,0 H 512 V 512 H 0 Z" /><g
     id="path3"
     inkscape:label="pistol-very"
     transform="matrix(1.3803089,1.3803088,-1.3412288,1.3412289,262.82866,-439.34252)"
     style="filter:url(#filter2)"><g
       id="g11"
       style="display:inline"
       inkscape:label="base"><path
         style="display:inline;fill:#000000;stroke-linecap:round;stroke-linejoin:round;paint-order:markers stroke fill"
         d="m 240.04102,169 a 2.0002,2.0002 0 0 0 -1.78125,1.0918 l -1.94336,3.81054 c -1.22644,2.40355 -2.76832,6.79667 -3.67579,10.29883 C 231.72753,187.72206 231,192.21836 231,194.89453 V 199 a 2.0002,2.0002 0 0 0 0.82031,0.82031 c -0.3241,0.0889 -0.63947,0.16971 -0.96484,0.34375 -0.42424,0.22693 -0.97238,0.6151 -1.26172,1.3711 -0.22296,0.58325 -0.13351,0.53573 -0.14648,0.66406 -0.013,0.12833 -0.0227,0.25397 -0.0312,0.4043 -0.0171,0.30065 -0.0308,0.6888 -0.0449,1.17773 -0.0282,0.97786 -0.054,2.35408 -0.0762,4.09766 -0.0443,3.48715 -0.0756,8.43549 -0.0957,14.48828 -0.0402,12.10558 -0.0305,28.62405 0.041,46.64062 l 0.25977,65.5 a 2.0002,2.0002 0 0 0 0.49609,0.4961 A 2.0002,2.0002 0 0 0 228,337 v 2.5 2.5 a 2.0002,2.0002 0 0 0 2,2 h 19.5 19.5 a 2.0002,2.0002 0 0 0 2,-2 v -2.5 -2.5 a 2.0002,2.0002 0 0 0 -1.99609,-1.99609 2.0002,2.0002 0 0 0 0.49609,-0.4961 l 0.22852,-65.22461 c 0.063,-17.94146 0.0551,-34.42411 -0.01,-46.53125 -0.0324,-6.05356 -0.08,-11.01298 -0.13867,-14.52148 -0.0293,-1.75425 -0.0618,-3.14288 -0.0977,-4.13867 -0.0179,-0.4979 -0.0351,-0.89515 -0.0566,-1.20899 -0.0107,-0.15691 -0.0229,-0.29072 -0.0391,-0.42773 -0.0162,-0.13701 0.0374,-0.16175 -0.14844,-0.64649 -0.2568,-0.66902 -0.85601,-1.1807 -1.49805,-1.5625 a 2.0002,2.0002 0 0 0 0.52539,-1.41211 l -0.51953,-6.25 c -0.31099,-3.72431 -1.53464,-9.42326 -2.82617,-13.22656 -0.62168,-1.83075 -1.30142,-3.62917 -1.91015,-5.08594 -0.30437,-0.72838 -0.59141,-1.37019 -0.85352,-1.90429 -0.26211,-0.5341 -0.4245,-0.90129 -0.82617,-1.38867 a 2.0002,2.0002 0 0 0 0,-0.002 c -0.63831,-0.77317 -1.30161,-0.97915 -1.9961,-1.18945 -0.69448,-0.2103 -1.47535,-0.34843 -2.41015,-0.46094 C 255.05422,169.10115 252.57686,169 249.39844,169 Z m 1.2246,4 h 8.13282 c 3.09058,0 5.46215,0.10614 7.04687,0.29687 0.79236,0.0954 1.38988,0.21582 1.72852,0.31836 0.0979,0.0297 0.11287,0.0469 0.1582,0.0723 0.0329,0.0621 0.0828,0.13256 0.23438,0.44141 0.20853,0.42493 0.46937,1.0093 0.75195,1.68554 0.56516,1.35249 1.22019,3.08388 1.8125,4.82813 1.13647,3.3467 2.36785,9.12375 2.63086,12.27344 L 264.10156,197 H 249.63672 235 v -2.10547 c 0,-1.83983 0.68881,-6.51632 1.51172,-9.68945 0.82653,-3.18984 2.45563,-7.69988 3.36719,-9.48633 z m 8.09571,30 c 7.33869,0 11.71651,0.0663 14.16211,0.27344 1.06736,0.0904 1.60509,0.21452 1.93164,0.30664 0.0104,0.20415 0.0209,0.36672 0.0312,0.65429 0.0341,0.94777 0.0646,2.3241 0.0937,4.06446 0.0582,3.48071 0.10627,8.4298 0.13867,14.47461 0.0648,12.08961 0.0727,28.5626 0.01,46.49414 L 265.50781,332.5 H 249.5 233.49219 l -0.25196,-63.50781 c -0.0715,-18.00843 -0.0812,-34.52017 -0.041,-46.61133 0.0201,-6.04558 0.0517,-10.98711 0.0957,-14.45117 0.022,-1.73204 0.0472,-3.096 0.0742,-4.03321 0.004,-0.14506 0.009,-0.20586 0.0137,-0.33007 0.51646,-0.10178 1.23951,-0.21445 2.41992,-0.29688 C 238.49877,203.08127 242.86851,203 249.36133,203 Z M 232,339 h 17.5 17.5 v 0.5 0.5 H 249.5 232 v -0.5 z"
         id="path1"
         inkscape:label="outline" /><path
         id="path5"
         style="fill:#e69b39;stroke-linecap:round;stroke-linejoin:round;paint-order:markers stroke fill"
         d="m 249.36133,201 c -13.018,0 -17.54439,0.316 -17.90039,1.25 -0.263,0.688 -0.36371,30.725 -0.22071,66.75 L 231.5,334.5 h 18 18 l 0.22852,-65.22461 c 0.126,-35.873 -0.0354,-65.91 -0.35743,-66.75 C 266.87709,201.23839 264.06033,201 249.36133,201 Z M 230,337 v 2.5 2.5 h 19.5 19.5 v -2.5 -2.5 h -19.5 z"
         inkscape:label="brass" /><path
         style="fill:#999999;stroke-linecap:round;stroke-linejoin:round;paint-order:markers stroke fill"
         d="m 240.04102,171 -1.94336,3.81055 c -1.069,2.095 -2.65449,6.54657 -3.52149,9.89257 C 233.70817,188.05013 233,192.63653 233,194.89453 V 199 h 16.63672 16.63672 l -0.51953,-6.25 c -0.287,-3.437 -1.51452,-9.175 -2.72852,-12.75 -1.214,-3.575 -2.67128,-7.062 -3.23828,-7.75 -0.691,-0.837 -4.11967,-1.25 -10.38867,-1.25 z"
         id="path2"
         inkscape:label="lead" /></g><path
       id="path5-5"
       style="display:inline;fill:#000000;fill-opacity:0.40000001;stroke-linecap:round;stroke-linejoin:round;paint-order:markers stroke fill"
       inkscape:label="shadow"
       d="M 240.06324 170.72486 L 240.05333 170.74379 C 244.91499 170.83451 247.61346 171.24223 248.21783 171.9743 C 248.78483 172.6623 250.24275 176.1493 251.45675 179.7243 C 252.67075 183.2993 253.89785 189.03797 254.18485 192.47497 L 254.70486 198.72434 L 266.29647 198.72434 L 265.77646 192.47497 C 265.48946 189.03797 264.26236 183.29931 263.04836 179.72431 C 261.83436 176.14931 260.37644 172.6623 259.80944 171.9743 C 259.11844 171.1373 255.68958 170.72486 249.42058 170.72486 L 240.06324 170.72486 z M 244.13841 200.76524 C 253.01093 200.85576 255.39509 201.19109 255.80148 202.24985 C 256.12351 203.08985 256.28547 233.12709 256.15947 269.00009 L 255.93095 334.22494 L 267.52255 334.22494 L 267.75108 269.00009 C 267.87708 233.12709 267.71512 203.08985 267.39309 202.24985 C 266.89909 200.96285 264.08279 200.72446 249.38379 200.72446 C 247.31157 200.72446 245.79773 200.748 244.13841 200.76524 z M 257.43154 336.72454 L 257.43084 339.22414 L 257.43084 341.72447 L 269.02244 341.72447 L 269.02244 339.22414 L 269.02315 336.72454 L 257.43154 336.72454 z " /><path
       id="path5-8"
       style="fill:#ffffff;fill-opacity:0.40000001;display:inline;stroke-linecap:round;stroke-linejoin:round;paint-order:markers stroke fill"
       inkscape:label="highlight"
       d="M 240.06324 170.72486 L 238.11975 174.53506 C 237.05075 176.63006 235.46554 181.0819 234.59854 184.4279 C 233.73054 187.77491 233.02295 192.36126 233.02295 194.61926 L 233.02295 198.72434 L 244.61456 198.72434 L 244.61456 194.61926 C 244.61456 192.36126 245.32215 187.77491 246.19015 184.4279 C 247.05715 181.0819 248.64236 176.63006 249.71136 174.53506 L 251.64494 170.74379 C 250.94812 170.73079 250.20647 170.72486 249.42058 170.72486 L 240.06324 170.72486 z M 231.60018 201.80643 C 231.54429 201.86005 231.50569 201.91625 231.48344 201.97463 C 231.22044 202.66263 231.1197 232.69986 231.2627 268.72486 L 231.52235 334.22493 L 243.11395 334.22494 L 242.85431 268.72486 C 242.71131 232.69986 242.81205 202.66263 243.07505 201.97463 C 243.37402 201.19025 246.95521 200.85677 255.69606 200.76524 C 253.79021 200.74595 251.9766 200.72446 249.38379 200.72446 C 237.17941 200.72446 232.43846 201.0021 231.60018 201.80643 z M 230.02316 336.72454 L 230.02245 339.22414 L 230.02245 341.72447 L 241.61406 341.72447 L 241.61406 339.22414 L 241.61477 336.72454 L 230.02316 336.72454 z " /></g><g
     id="g2"
     inkscape:label="ammoVariety"
     style="fill:#000000;stroke:none;stroke-width:0.563757;stroke-linecap:round;stroke-linejoin:round;stroke-dasharray:none;stroke-opacity:1;paint-order:markers fill stroke"
     transform="matrix(1.4671189,1.4671189,-1.4671189,1.4671189,-6.8240721,-68.511486)"><path
       id="path1-8"
       style="display:inline;fill:#dae639;stroke:none;stroke-width:10;stroke-dasharray:none;stroke-dashoffset:0"
       inkscape:label="Yellow-Background"
       d="M 369,241 241,369 369,497 497,369 Z"
       transform="matrix(0.3834045,-0.3834045,0.3834045,0.3834045,-6.4461316,21.023318)" /><path
       style="display:inline;fill:#000000;fill-opacity:1;stroke:none;stroke-width:0.623824;stroke-linecap:round;stroke-linejoin:round;stroke-dasharray:none;stroke-opacity:1;paint-order:markers fill stroke"
       d="m 238.1659,24.857402 0.94972,0.94973 c 10.43648,10.436468 21.91141,19.778976 33.46826,25.108303 11.55706,5.329124 23.3549,6.61183 33.90022,0.612893 l 0.28927,-0.162015 0.17483,-0.276462 c 7.13913,-11.007587 5.89546,-22.897923 0.28581,-34.34764 -5.60976,-11.4496306 -15.50295,-22.6686338 -25.94379,-33.109466 l -0.94983,-0.949832 z m 3.81173,-0.0128 38.3531,-38.353103 c 10.00013,10.0840734 19.29598,20.8199784 24.49541,31.432393 5.31347,10.844753 6.42847,21.347286 0.0412,31.422727 -9.58574,5.310726 -20.18686,4.189426 -31.15918,-0.870248 -10.7421,-4.953663 -21.68362,-13.71377 -31.73091,-23.631565 z m 3.81762,-0.0061 c 8.63306,8.469009 18.83494,16.296765 28.87877,20.886962 2.92959,1.338913 5.83103,2.400854 8.67127,3.131854 l 0.75275,-8.566482 -11.77131,-3.487597 -1.57868,-0.466734 0.7751,-1.454885 c 0,0 2.75233,-5.148203 4.28478,-7.994651 l 1.34033,-2.814126 -24.93358,-5.65376 z m 16.28792,-16.2879239 13.95345,4.6468129 9.07143,-17.8444563 c -1.57696,-1.71722 -3.18268,-3.396728 -4.79633,-5.0311085 L 262.08307,8.5504871 Z m 24.9528,-11.0599343 -8.42012,16.5643922 7.59134,2.528012 7.58188,2.321979 5.2279,-5.602946 C 295.7046,7.9070904 291.53276,2.5592648 287.03597,-2.5095602 Z m -0.30137,22.0654912 -2.07103,4.17987 21.59225,7.921572 c -0.54754,-4.16859 -2.01889,-8.470431 -4.17357,-12.838233 -0.50993,-1.03399 -1.05951,-2.068996 -1.64191,-3.103496 l -5.26316,5.638004 -0.57162,0.616349 -0.80377,-0.244751 z m -9.6085,10.561077 c -0.93112,1.738564 -1.93971,3.619222 -2.45513,4.583488 l 11.24055,3.325378 1.05147,0.314578 -0.0954,1.092638 -0.8796,10.008153 c 6.15739,1.142442 11.96464,0.603847 17.05328,-2.188324 2.38144,-3.786117 3.44196,-7.811697 3.45252,-12.002954 l -29.36765,-5.133262 z"
       id="path3-1"
       inkscape:label="Armor Piercing" /><path
       id="rect2"
       style="display:inline;fill:#000000;stroke:none;stroke-width:10;stroke-dasharray:none;stroke-opacity:1;paint-order:markers fill stroke"
       d="M 352.00001,224 224,352 351.99999,480 480,352 Z m 0,16.78699 L 463.21303,352.00002 352.00001,463.21303 240.78699,352.00002 Z"
       inkscape:label="Border"
       sodipodi:insensitive="true"
       transform="matrix(0.3834045,-0.3834045,0.3834045,0.3834045,6.5896227,21.023318)" /></g></svg>
