<?xml version="1.0" encoding="UTF-8" standalone="no"?>
<!-- Created with Inkscape (http://www.inkscape.org/) -->

<svg
   width="511.99997"
   height="511.99997"
   viewBox="0 0 512 512"
   version="1.1"
   id="svg1"
   xml:space="preserve"
   sodipodi:docname="pistolheavy_rubber.svg"
   inkscape:version="1.4 (86a8ad7, 2024-10-11)"
   xmlns:inkscape="http://www.inkscape.org/namespaces/inkscape"
   xmlns:sodipodi="http://sodipodi.sourceforge.net/DTD/sodipodi-0.dtd"
   xmlns="http://www.w3.org/2000/svg"
   xmlns:svg="http://www.w3.org/2000/svg"><sodipodi:namedview
     id="namedview1"
     pagecolor="#1b1f21"
     bordercolor="#000000"
     borderopacity="0.25"
     inkscape:showpageshadow="2"
     inkscape:pageopacity="0.0"
     inkscape:pagecheckerboard="false"
     inkscape:deskcolor="#d1d1d1"
     inkscape:document-units="px"
     showborder="false"
     labelstyle="default"
     inkscape:zoom="1.576172"
     inkscape:cx="256.3172"
     inkscape:cy="256.63443"
     inkscape:window-width="1920"
     inkscape:window-height="1009"
     inkscape:window-x="1912"
     inkscape:window-y="-8"
     inkscape:window-maximized="1"
     inkscape:current-layer="svg1"
     showguides="true"><inkscape:page
       x="0"
       y="0"
       width="512"
       height="512"
       id="page2"
       margin="0"
       bleed="0" /></sodipodi:namedview><defs
     id="defs1"><filter
       style="color-interpolation-filters:sRGB;"
       inkscape:label="Drop Shadow"
       id="filter8"
       x="-0.70051687"
       y="-0.18749987"
       width="2.4010337"
       height="1.3749997"><feFlood
         result="flood"
         in="SourceGraphic"
         flood-opacity="0.533333"
         flood-color="rgb(51,51,51)"
         id="feFlood3" /><feGaussianBlur
         result="blur"
         in="SourceGraphic"
         stdDeviation="30.000000"
         id="feGaussianBlur3" /><feOffset
         result="offset"
         in="blur"
         dx="0.000000"
         dy="0.000000"
         id="feOffset3" /><feComposite
         result="comp1"
         operator="out"
         in="flood"
         in2="offset"
         id="feComposite7" /><feComposite
         result="comp2"
         operator="atop"
         in="comp1"
         in2="SourceGraphic"
         id="feComposite8" /></filter></defs><path
     id="rect5"
     style="fill:#1b1f21;stroke-width:6.78108"
     inkscape:label="background"
     d="M 0,0 H 512 V 512 H 0 Z" /><g
     id="path2"
     inkscape:label="pistol-heavy"
     transform="matrix(0.62696757,0.62696757,-0.62696757,0.62696757,290.3441,-91.881795)"
     style="filter:url(#filter8)"><g
       id="g1"
       inkscape:label="base"><path
         style="display:inline;fill:#000000;stroke-linecap:round;stroke-linejoin:round;paint-order:markers stroke fill"
         d="m 250.8418,95.152344 v 0.0059 c -0.0162,1.15e-4 -0.0307,-0.004 -0.0469,-0.0039 -3.07621,0.0266 -6.2898,0.392797 -9.23242,0.974609 -2.94262,0.581813 -5.45351,1.203134 -7.87305,2.613281 -2.87811,1.677416 -4.5382,3.869536 -6.63476,6.666016 -2.09656,2.79648 -4.18628,6.10904 -5.91407,9.4961 -3.78507,7.41756 -7.75974,21.3887 -9.85742,33.14648 -2.07256,11.61973 -3.77466,27.701 -3.83008,36.92383 l -0.0937,15.55273 a 5.4100911,5.4100911 0 0 0 0.39063,0.95703 5.4100911,5.4100911 0 0 0 -2.66406,3.9336 l -1.70117,22.38672 c -0.99082,13.03524 -2.30962,63.26501 -3.03516,112.92383 -0.48314,33.12962 -0.60637,55.95639 -0.31445,70.96679 0.14595,7.50521 0.39086,13.04161 0.76953,17.0625 0.18933,2.01045 0.40641,3.63482 0.71289,5.0586 0.30633,1.42309 0.37378,2.59178 1.90429,4.43554 1.39222,1.67872 3.0188,2.62021 4.875,3.29492 -1.09116,0.76455 -2.0851,1.69715 -2.68164,2.87891 -1.04189,2.06403 -0.96093,3.73124 -0.96093,4.90039 0,1.2798 0.17404,3.48439 1.39843,5.48242 h -1.39843 a 5.4100911,5.4100911 0 0 0 -5.41016,5.41016 v 6.76172 6.76172 a 5.4100911,5.4100911 0 0 0 5.41016,5.41015 h 45.98047 45.98046 a 5.4100911,5.4100911 0 0 0 5.41016,-5.41015 v -6.76172 -6.76172 a 5.4100911,5.4100911 0 0 0 -5.41016,-5.41016 H 295.168 c 0.42449,-0.72673 0.74843,-1.50492 0.89258,-2.23437 0.29606,-1.49827 0.11371,-2.64059 -0.0547,-3.51758 a 5.4100911,5.4100911 0 0 0 0,-0.002 c -0.37271,-1.94084 -1.97273,-4.77733 -4.23438,-6.14649 -0.44541,-0.26964 -0.93773,-0.37937 -1.39453,-0.58593 1.37399,-0.38032 2.62993,-0.87833 3.79688,-1.59375 2.2544,-1.38213 3.69586,-3.49045 4.54883,-5.08399 0.90775,-1.69538 1.01295,-2.78111 1.25781,-4.29297 0.24486,-1.51186 0.43413,-3.30248 0.59961,-5.48437 0.33095,-4.36378 0.55375,-10.27124 0.68554,-17.92383 0.26359,-15.30519 0.15436,-37.55263 -0.30859,-67.57422 -0.73935,-47.99308 -2.26298,-97.0487 -3.54101,-110.56641 l -2.17579,-22.99023 a 5.4100911,5.4100911 0 0 0 -1.76367,-3.47852 5.4100911,5.4100911 0 0 0 0.88086,-3.22461 l -1.7539,-20.96093 v -0.002 c -0.98165,-11.7513 -3.02979,-27.79812 -4.67383,-36.40234 a 5.4100911,5.4100911 0 0 0 0,-0.002 c -1.65634,-8.65362 -4.55204,-18.73591 -7.38477,-24.39453 a 5.4100911,5.4100911 0 0 0 -0.002,-0.002 c -2.56457,-5.11672 -6.81883,-11.42629 -10.47266,-15.42578 a 5.4100911,5.4100911 0 0 0 -0.002,-0.002 c -4.77707,-5.222721 -11.54791,-7.811389 -19.21484,-7.75977 a 5.4100911,5.4100911 0 0 0 -0.0117,-0.0059 z m 0.0449,10.820316 c 7.3e-4,-1e-5 0.001,0 0.002,0 5.60879,-0.0476 8.33081,1.11632 11.19531,4.24804 2.46465,2.6984 6.87832,9.16431 8.78711,12.97266 1.63577,3.26861 4.95605,13.87469 6.43164,21.58398 1.48258,7.75977 3.57538,23.96809 4.51954,35.27149 l 1.26367,15.10156 h -32.21875 -32.65625 l 0.0625,-10.10937 c 0.0474,-7.88218 1.71882,-24.20584 3.66015,-35.08985 1.91607,-10.73981 6.35396,-25.25214 8.84375,-30.13086 1.40975,-2.7636 3.24044,-5.66346 4.9336,-7.92187 1.69316,-2.25841 3.69108,-3.96322 3.42578,-3.8086 0.19327,-0.11264 2.23768,-0.89533 4.52539,-1.34765 2.2871,-0.45221 4.98089,-0.74999 7.22461,-0.76953 z m -35.39844,105.35937 34.57422,0.6543 34.86133,0.65429 1.7207,18.18165 c 1.11298,11.77195 2.75865,61.84524 3.49609,109.71484 0.46208,29.96494 0.56623,52.14787 0.30665,67.2207 -0.1298,7.53642 -0.3519,13.30372 -0.6543,17.29102 -0.1512,1.99365 -0.32622,3.54754 -0.49219,4.57226 -0.16596,1.02473 -0.5172,1.66871 -0.11523,0.91797 a 5.4100911,5.4100911 0 0 0 -0.002,0 c -0.52241,0.97599 -0.4559,0.83799 -0.66601,0.9668 -0.21011,0.12881 -1.23143,0.57255 -3.72852,0.89062 -4.99417,0.63615 -15.14542,0.77539 -33.91601,0.77539 -15.49909,0 -25.65654,-0.22427 -31.92188,-0.77148 -4.0781,-0.35618 -6.12641,-1.09348 -6.91797,-1.30859 -0.14591,-0.76423 -0.31093,-1.79636 -0.45703,-3.34766 -0.33122,-3.51706 -0.57935,-8.88911 -0.72265,-16.25781 -0.28661,-14.7374 -0.16997,-37.51632 0.3125,-70.59961 0.72422,-49.5686 2.12692,-100.67268 3.00781,-112.26172 z m -5.42578,254.29688 h 40.57227 40.57226 v 1.35156 1.35351 H 250.63477 210.0625 v -1.35351 z"
         id="path4"
         inkscape:label="outline" /><path
         id="path8"
         style="display:inline;fill:#e69b39;stroke-linecap:round;stroke-linejoin:round;paint-order:markers stroke fill"
         d="m 210.48047,205.82617 -1.70117,22.38867 c -0.93585,12.31214 -2.29661,62.97809 -3.02149,112.5918 -0.9656,66.21292 -0.47905,91.21439 1.82813,93.99219 2.43159,2.93198 12.1903,3.78125 43.28711,3.78125 37.57475,0 40.32931,-0.34921 43.08007,-5.48828 2.02317,-3.77858 2.52074,-32.65214 1.59571,-92.63868 -0.7384,-47.93133 -2.32207,-97.49579 -3.51758,-110.14062 l -2.17773,-22.99023 -39.68946,-0.74415 z m 16.98437,238.45899 c -16.62169,-0.0108 -17.40234,1.0731 -17.40234,5.04101 0,5.26349 1.62136,5.48242 40.76758,5.48242 37.3719,0 40.69635,-0.39396 39.86328,-4.73242 -0.80872,-4.21134 -5.30376,-4.819 -40.77148,-5.48437 -9.61955,-0.18068 -16.91647,-0.30323 -22.45704,-0.30664 z m -22.81054,15.93359 v 6.76172 6.76172 h 45.98047 45.98046 v -6.76172 -6.76172 h -45.98046 z"
         inkscape:label="brass" /><path
         style="display:inline;fill:#999999;stroke-linecap:round;stroke-linejoin:round;paint-order:markers stroke fill"
         d="m 250.84094,100.56273 c -5.32029,0.046 -11.81441,1.32988 -14.42722,2.85267 -2.61281,1.52279 -7.31707,7.79584 -10.45461,13.9465 -3.13754,6.14796 -7.34355,20.38934 -9.35049,31.6385 -2.00695,11.25187 -3.69408,27.45483 -3.74547,36.00733 l -0.0952,15.55247 h 38.09932 38.09932 l -1.75389,-20.96202 c -0.9629,-11.52776 -3.03265,-27.65634 -4.59601,-35.83828 -1.56606,-8.18195 -4.67572,-18.52772 -6.90986,-22.9906 -2.23685,-4.46288 -6.57139,-10.85157 -9.6305,-14.20008 -3.82725,-4.18429 -8.58444,-6.0633 -15.23549,-6.00649 z"
         id="path5"
         inkscape:label="lead" /></g><path
       id="path3"
       style="fill:#000000;fill-opacity:0.40000001;display:inline;stroke-linecap:round;stroke-linejoin:round;paint-order:markers stroke fill"
       inkscape:label="shadow"
       d="M 236.61963 103.31484 C 238.03983 104.18695 239.35169 105.25221 240.55723 106.57022 C 243.61634 109.91873 247.94944 116.30639 250.18629 120.76927 C 252.42043 125.23215 255.53129 135.579 257.09735 143.76095 C 258.66071 151.94289 260.72936 168.07037 261.69226 179.59813 L 263.44611 200.56027 L 288.96577 200.56027 L 287.21192 179.59813 C 286.24902 168.07037 284.18037 151.94289 282.61701 143.76095 C 281.05095 135.579 277.94009 125.23215 275.70595 120.76927 C 273.4691 116.30639 269.13444 109.91717 266.07533 106.56866 C 262.24808 102.38437 257.49309 100.50576 250.84204 100.56257 C 245.64062 100.60754 239.34116 101.837 236.61963 103.31484 z M 210.48004 205.8265 L 210.44266 206.30936 L 224.64482 206.57726 L 264.33394 207.32335 L 266.51146 230.31348 C 267.70697 242.95831 269.29167 292.52135 270.03007 340.45268 C 270.9551 400.43922 270.4567 429.31216 268.43353 433.09074 C 266.15788 437.34219 262.68146 438.27842 240.68807 438.48781 C 244.04643 438.51937 246.82126 438.57971 250.87319 438.57971 C 288.44794 438.57971 291.20244 438.22981 293.9532 433.09074 C 295.97637 429.31216 296.47476 400.43922 295.54973 340.45268 C 294.81133 292.52135 293.22663 242.95831 292.03112 230.31348 L 289.8536 207.32335 L 250.16449 206.57726 L 210.48004 205.8265 z M 218.00791 444.5048 C 220.38359 444.54542 221.6641 444.54058 224.4034 444.59203 C 259.87112 445.2574 264.36477 445.86499 265.17349 450.07633 C 265.89451 453.83126 262.09317 454.5909 237.20684 454.73821 C 241.48894 454.76382 245.00503 454.8083 250.83114 454.8083 C 288.20304 454.8083 291.52622 454.41479 290.69315 450.07633 C 289.88443 445.86499 285.39078 445.2574 249.92306 444.59203 C 240.30351 444.41135 233.00464 444.28859 227.46407 444.28518 C 223.42572 444.28256 220.39211 444.35253 218.00791 444.5048 z M 271.09547 460.21939 L 271.09547 466.97936 L 271.09547 473.74245 L 296.61513 473.74245 L 296.61513 466.97936 L 296.61513 460.21939 L 271.09547 460.21939 z " /><path
       id="path9"
       style="fill:#ffffff;fill-opacity:0.40000001;display:inline;stroke-linecap:round;stroke-linejoin:round;paint-order:markers stroke fill"
       inkscape:label="highlight"
       d="M 234.11968 105.37243 C 231.54726 108.06746 228.31259 112.74825 225.95944 117.36125 C 222.8219 123.50921 218.61612 137.75155 216.60918 149.00071 C 214.60223 160.25258 212.91455 176.45517 212.86316 185.00767 L 212.76815 200.56027 L 238.28781 200.56027 L 238.38283 185.00767 C 238.43422 176.45517 240.12189 160.25258 242.12884 149.00071 C 244.13578 137.75155 248.34156 123.50921 251.4791 117.36125 C 254.61664 111.21058 259.32087 104.93732 261.93368 103.41453 C 261.99144 103.38087 262.07624 103.34982 262.13773 103.3164 C 259.04925 101.41993 255.39797 100.52366 250.84204 100.56257 C 245.52175 100.60857 239.02683 101.89174 236.41402 103.41453 C 235.76082 103.79523 234.97716 104.47408 234.11968 105.37243 z M 210.48004 205.8265 L 208.77915 228.21539 C 207.8433 240.52753 206.48385 291.19255 205.75897 340.80626 C 204.79337 407.01918 205.27885 432.02162 207.58603 434.79942 C 210.01762 437.7314 219.77638 438.57971 250.87319 438.57971 C 257.38615 438.57971 261.66028 438.53036 266.26225 438.48625 C 243.80559 438.2766 235.22211 437.35137 233.10569 434.79942 C 230.79851 432.02162 230.31303 407.01918 231.27863 340.80626 C 232.00351 291.19255 233.36296 240.52753 234.29881 228.21539 L 235.96232 206.30936 L 210.48004 205.8265 z M 211.18563 445.98452 C 210.17187 446.75572 210.06261 447.8376 210.06261 449.32556 C 210.06261 454.58905 211.68492 454.8083 250.83114 454.8083 C 255.85772 454.8083 258.85907 454.7611 262.7265 454.73821 C 238.23672 454.59176 235.58227 453.80569 235.58227 449.32556 C 235.58227 446.32168 236.09847 444.97928 243.52757 444.5048 C 237.56058 444.40279 231.42689 444.28762 227.46407 444.28518 C 217.07552 444.27843 212.87523 444.69919 211.18563 445.98452 z M 204.65463 460.21939 L 204.65463 466.97936 L 204.65463 473.74245 L 230.17429 473.74245 L 230.17429 466.97936 L 230.17429 460.21939 L 204.65463 460.21939 z " /></g><g
     id="g2"
     inkscape:label="ammoVariety"
     style="fill:#000000;stroke:none;stroke-width:0.563757;stroke-linecap:round;stroke-linejoin:round;stroke-dasharray:none;stroke-opacity:1;paint-order:markers fill stroke"
     transform="matrix(1.3010376,1.3010376,-1.3010376,1.3010376,35.606925,-5.597331)"><path
       id="path1"
       style="display:inline;fill:#dae639;stroke:none;stroke-width:10;stroke-dasharray:none;stroke-dashoffset:0"
       inkscape:label="Yellow-Background"
       d="M 369,241 241,369 369,497 497,369 Z"
       transform="matrix(0.43234722,-0.43234722,0.43234722,0.43234722,-47.754052,15.835152)" /><path
       id="path2-3"
       style="fill:#000000;stroke-width:4.34945;stroke-linecap:round;stroke-linejoin:round;stroke-miterlimit:5;paint-order:stroke fill markers"
       d="m 243.1898,-11.372449 c -2.37584,2.4372149 -4.42873,5.1871121 -6.05869,8.1896434 -5.33959,9.5696205 -6.45774,21.4264366 -2.80072,31.7779516 3.18199,9.236564 9.90782,17.229955 18.58157,21.765216 8.24294,4.424579 18.09498,5.74863 27.20671,3.60864 10.9526,-2.497812 20.69168,-9.942709 25.83789,-19.94663 4.04162,-7.70403 5.4717,-16.771643 3.82187,-25.3280538 -1.94727,-10.5570082 -8.40001,-20.2355612 -17.53635,-25.9129732 -6.42519,-4.060821 -14.03673,-6.248556 -21.64584,-6.060953 -10.24495,0.09384 -20.27889,4.595511 -27.40644,11.907159 z m 3.52305,2.6129969 a 34.795625,34.795625 0 0 1 30.75528,-9.6335499 34.795625,34.795625 0 0 0 -18.45317,9.6335499 34.795625,34.795625 0 0 0 0,49.2084461 34.795625,34.795625 0 0 0 18.45317,9.574982 34.795625,34.795625 0 0 1 -30.75528,-9.574982 34.795625,34.795625 0 0 1 0,-49.2084461 z"
       inkscape:label="Rubber" /><path
       id="rect2"
       style="display:inline;fill:#000000;stroke:none;stroke-width:10;stroke-linecap:round;stroke-linejoin:round;stroke-dasharray:none;stroke-opacity:1;paint-order:markers fill stroke"
       d="M 352.00001,224 224,352 351.99999,480 480,352 Z m 0,16.78699 L 463.21303,352.00002 352.00001,463.21303 240.78699,352.00002 Z"
       inkscape:label="Border"
       sodipodi:insensitive="true"
       transform="matrix(0.43234722,-0.43234722,0.43234722,0.43234722,-33.054249,15.835152)" /></g></svg>
