<?xml version="1.0" encoding="UTF-8" standalone="no"?>
<!-- Created with Inkscape (http://www.inkscape.org/) -->

<svg
   width="511.99997"
   height="511.99997"
   viewBox="0 0 512 512"
   version="1.1"
   id="svg1"
   xml:space="preserve"
   sodipodi:docname="pistolmedium_armorpiercing.svg"
   inkscape:version="1.4 (86a8ad7, 2024-10-11)"
   xmlns:inkscape="http://www.inkscape.org/namespaces/inkscape"
   xmlns:sodipodi="http://sodipodi.sourceforge.net/DTD/sodipodi-0.dtd"
   xmlns="http://www.w3.org/2000/svg"
   xmlns:svg="http://www.w3.org/2000/svg"><sodipodi:namedview
     id="namedview1"
     pagecolor="#1b1f21"
     bordercolor="#000000"
     borderopacity="0.25"
     inkscape:showpageshadow="2"
     inkscape:pageopacity="0.0"
     inkscape:pagecheckerboard="false"
     inkscape:deskcolor="#d1d1d1"
     inkscape:document-units="px"
     showborder="false"
     labelstyle="default"
     inkscape:zoom="1.5244448"
     inkscape:cx="276.82209"
     inkscape:cy="261.40664"
     inkscape:window-width="1920"
     inkscape:window-height="1009"
     inkscape:window-x="1912"
     inkscape:window-y="-8"
     inkscape:window-maximized="1"
     inkscape:current-layer="svg1"
     showguides="true"><inkscape:page
       x="0"
       y="0"
       width="512"
       height="512"
       id="page2"
       margin="0"
       bleed="0" /><sodipodi:guide
       position="255.83087,384.74054"
       orientation="1,0"
       id="guide12"
       inkscape:locked="false" /></sodipodi:namedview><defs
     id="defs1"><filter
       style="color-interpolation-filters:sRGB;"
       inkscape:label="Drop Shadow"
       id="filter3"
       x="-0.67895722"
       y="-0.28124906"
       width="2.3579144"
       height="1.5624981"><feFlood
         result="flood"
         in="SourceGraphic"
         flood-opacity="0.533333"
         flood-color="rgb(51,51,51)"
         id="feFlood2" /><feGaussianBlur
         result="blur"
         in="SourceGraphic"
         stdDeviation="30.000000"
         id="feGaussianBlur2" /><feOffset
         result="offset"
         in="blur"
         dx="0.000000"
         dy="0.000000"
         id="feOffset2" /><feComposite
         result="comp1"
         operator="out"
         in="flood"
         in2="offset"
         id="feComposite2" /><feComposite
         result="comp2"
         operator="atop"
         in="comp1"
         in2="SourceGraphic"
         id="feComposite3" /></filter></defs><path
     id="rect5"
     style="fill:#1b1f21;stroke-width:6.78108"
     inkscape:label="background"
     d="M 0,0 H 512 V 512 H 0 Z" /><g
     id="g12"
     transform="matrix(0.88388049,0.8838805,-0.8838805,0.88388049,453.10436,-161.60794)"
     inkscape:label="pistol-medium"
     style="filter:url(#filter3)"><g
       id="g20"
       inkscape:label="base"><path
         style="display:inline;fill:#000000;stroke-linecap:round;stroke-linejoin:round;paint-order:markers stroke fill"
         d="m 124.46297,204.00039 c -5.45907,0.0433 -12.06758,1.87026 -17.25782,4.44336 a 5.1734671,5.1734671 0 0 0 -0.002,0.002 c -5.84671,2.90209 -11.923088,8.78432 -15.95703,14.70117 -4.095903,6.00776 -8.331322,16.0343 -10.431641,24.13672 -2.004546,7.72295 -3.642578,16.60148 -3.642578,21.94531 v 7.13281 a 5.1734671,5.1734671 0 0 0 -5.171875,5.17188 v 68.33008 c 0,18.82311 0.176948,36.39246 0.462891,49.57226 0.142972,6.58991 0.312436,12.07663 0.503906,16.11328 0.09574,2.01833 0.196527,3.6687 0.308594,4.96485 0.112067,1.29615 -0.175683,1.50378 0.638672,3.625 0.813379,2.11942 3.032806,4.17305 5.277344,5.06836 1.63908,0.6538 3.53217,1.00039 5.693359,1.27929 -0.121347,0.019 -0.349132,0.0254 -0.466797,0.0449 -1.130488,0.18754 -2.060597,0.36806 -3.128906,0.76367 -0.534155,0.1978 -1.11685,0.41408 -1.929688,1.04492 -0.812837,0.63084 -2.1875,2.15183 -2.1875,4.38281 0,1.94755 1.046415,3.27528 1.845703,4.01172 -1.465253,0.37046 -2.811914,0.92981 -4.121093,1.9961 -1.223493,0.9965 -2.164209,2.54999 -2.535157,3.85351 -0.370947,1.30353 -0.361328,2.29784 -0.361328,3.07031 0,0.77247 -0.0096,1.76679 0.361328,3.07032 0.370948,1.30352 1.311664,2.85506 2.535157,3.85156 2.446986,1.993 4.908349,2.30594 8.347656,2.67773 6.878614,0.7436 18.708173,0.7461 41.777343,0.7461 23.06917,0 34.89873,-0.002 41.77734,-0.7461 3.43931,-0.37179 5.90263,-0.68473 8.34961,-2.67773 1.22349,-0.9965 2.16421,-2.54804 2.53516,-3.85156 0.37095,-1.30353 0.36133,-2.29785 0.36133,-3.07032 0,-0.77247 0.01,-1.76678 -0.36133,-3.07031 -0.37095,-1.30352 -1.31167,-2.85701 -2.53516,-3.85351 -1.59979,-1.30299 -3.31952,-1.81759 -5.20117,-2.16993 0.27727,-0.32868 0.54659,-0.61472 0.85937,-1.12109 0.79058,-1.28245 0.98769,-3.99934 0.14063,-5.5293 -0.84801,-1.53167 -1.78632,-1.99997 -2.43359,-2.3457 -1.29456,-0.69145 -2.13982,-0.82678 -3.19141,-1.0332 -0.42468,-0.0834 -1.21373,-0.10983 -1.6875,-0.18164 1.70703,-0.26493 3.25616,-0.59424 4.63086,-1.14258 2.24419,-0.89517 4.46365,-2.94929 5.27734,-5.06836 0.81434,-2.12121 0.52856,-2.32885 0.64063,-3.625 0.11206,-1.29615 0.21286,-2.94652 0.30859,-4.96485 0.19147,-4.03665 0.36094,-9.52337 0.50391,-16.11328 0.28594,-13.1798 0.46289,-30.74915 0.46289,-49.57226 v -68.33008 a 5.1734671,5.1734671 0 0 0 -4.17188,-4.75586 5.1734671,5.1734671 0 0 0 0.2793,-2.06641 l -0.80273,-11.63867 c -0.47749,-6.91104 -2.02312,-16.11241 -3.76368,-21.83984 -1.8224,-5.99681 -5.86673,-13.73862 -9.83593,-19.05469 a 5.1734671,5.1734671 0 0 0 -0.002,0 c -4.0472,-5.41647 -10.0562,-10.94884 -15.54297,-13.78516 -5.12561,-2.64962 -11.63717,-4.43832 -17.15234,-4.39257 z m 0.084,10.3457 a 5.1734671,5.1734671 0 0 0 0.004,0 c 2.44517,-0.0206 9.19752,1.62406 12.3164,3.23633 2.75887,1.42616 9.14399,6.95438 12.00781,10.78711 h -0.002 c 2.93665,3.93313 7.02476,11.91002 8.22852,15.87109 1.28563,4.23047 2.93277,13.65299 3.33984,19.54492 l 0.42773,6.20313 -36.58203,0.61914 -36.769526,0.62305 v -2.00196 c 0,-2.64274 1.492529,-12.34371 3.310547,-19.34765 a 5.1734671,5.1734671 0 0 0 0,-0.002 c 1.717321,-6.62492 6.21376,-16.86621 8.966797,-20.90429 2.814732,-4.12855 9.316742,-9.92641 12.005862,-11.26172 3.34392,-1.65778 10.23957,-3.34768 12.74609,-3.36719 z m -42.201171,72.36133 h 41.382811 41.38477 v 63.15625 c 0,18.75821 -0.17732,36.27486 -0.46094,49.34765 -0.14181,6.5364 -0.312,11.9665 -0.4961,15.84766 -0.092,1.94058 -0.18733,3.49891 -0.27929,4.5625 -0.002,0.0284 -0.0107,0.0455 -0.0137,0.0742 -0.68842,0.2179 -2.00011,0.55656 -4.66407,0.79883 -5.97938,0.54378 -16.89595,0.70898 -35.4707,0.70898 -18.57475,0 -29.491314,-0.1652 -35.470701,-0.70898 -2.663835,-0.24226 -3.973636,-0.58092 -4.66211,-0.79883 -0.003,-0.0287 -0.01121,-0.0458 -0.01367,-0.0742 -0.09196,-1.06359 -0.189203,-2.62192 -0.28125,-4.5625 -0.184095,-3.88116 -0.35233,-9.31126 -0.494141,-15.84766 -0.283622,-13.07279 -0.460937,-30.58944 -0.460938,-49.34765 z M 163.629,432.14296 c 0.28853,-0.1016 0.34466,0.13405 0.23438,0.16602 -0.0546,0.0158 -0.34683,0.0629 -0.45508,0.0879 0.048,-0.0277 0.18142,-0.24007 0.2207,-0.25391 z"
         id="path4"
         inkscape:label="outline" /><path
         id="path9"
         style="fill:#e69b39;stroke-linecap:round;stroke-linejoin:round;paint-order:markers stroke fill"
         d="m 77.171951,281.53359 v 68.33008 c 0,37.58132 0.708386,70.1697 1.572266,72.41992 1.34496,3.50725 7.780674,4.0918 44.984373,4.0918 37.20369,0 43.64136,-0.58455 44.98633,-4.0918 0.86387,-2.25022 1.57031,-34.8386 1.57031,-72.41992 V 281.53359 H 123.72859 Z M 125.1739,434.13515 c -26.829387,0 -42.828121,0.96877 -42.82812,2.58789 0,1.61654 15.46866,2.58594 41.23242,2.58594 24.69815,0 41.87113,-1.03665 42.82812,-2.58594 1.04234,-1.68379 -13.33741,-2.58789 -41.23242,-2.58789 z m -0.15234,10.34571 c -46.12441,0 -47.849609,0.18712 -47.849609,5.17382 0,4.9867 1.725199,5.17188 47.849609,5.17188 46.12441,0 47.84961,-0.18518 47.84961,-5.17188 0,-4.9867 -1.7252,-5.17382 -47.84961,-5.17382 z"
         inkscape:label="brass" /><path
         style="fill:#999999;stroke-linecap:round;stroke-linejoin:round;paint-order:markers stroke fill"
         d="m 124.507,209.17397 c -3.98315,0.031 -10.73584,1.78921 -15.00351,3.90494 -4.26766,2.11831 -10.558589,7.95992 -13.983069,12.98283 -3.42447,5.02292 -7.79042,15.15678 -9.69924,22.52045 -1.91139,7.36366 -3.47556,16.65274 -3.47556,20.64624 v 7.26431 l 42.030039,-0.71228 42.03004,-0.71229 -0.80323,-11.63909 c -0.44228,-6.40149 -2.03823,-15.71276 -3.55132,-20.69171 -1.51308,-4.97894 -5.57949,-12.83907 -9.03242,-17.46367 -3.45551,-4.6246 -9.65312,-10.15446 -13.77594,-12.2857 -4.12283,-2.13125 -10.75522,-3.84765 -14.73579,-3.81403 z"
         id="path5"
         inkscape:label="lead" /></g><path
       id="path21"
       style="fill:#000000;fill-opacity:0.40000001;stroke-linecap:round;stroke-linejoin:round;paint-order:markers stroke fill"
       inkscape:label="shadow"
       d="M 115.54808 210.7878 C 117.58805 211.40967 119.55123 212.16693 121.14088 212.98868 C 125.2637 215.11992 131.46184 220.649 134.91735 225.2736 C 138.37028 229.8982 142.43649 237.75915 143.94957 242.73809 C 145.46266 247.71704 147.0594 257.02728 147.50168 263.42877 L 148.30381 275.06734 L 106.27391 275.77997 L 82.345994 276.18546 L 82.345994 276.49261 L 124.3759 275.77997 L 166.40581 275.06734 L 165.60257 263.42987 C 165.16029 257.02838 163.56355 247.71593 162.05046 242.73698 C 160.53738 237.75804 156.47228 229.8982 153.01935 225.2736 C 149.56384 220.649 143.36569 215.11992 139.24287 212.98868 C 135.12004 210.85743 128.48795 209.13999 124.50738 209.17361 C 122.13333 209.19208 118.77729 209.83217 115.54808 210.7878 z M 152.18297 281.53407 L 152.18407 349.86402 C 152.18407 387.44534 151.47684 420.03283 150.61297 422.28305 C 149.40356 425.4368 142.82438 426.18957 114.71281 426.31689 C 117.84419 426.33092 120.00819 426.37544 123.72956 426.37544 C 160.93325 426.37544 167.36999 425.7903 168.71496 422.28305 C 169.57883 420.03283 170.28496 387.44424 170.28496 349.86292 L 170.28496 281.53407 L 152.18407 281.53297 L 152.18297 281.53407 z M 116.46954 434.22104 C 137.75072 434.42106 149.21386 435.25414 148.30492 436.72244 C 147.47041 438.07344 133.90142 438.98999 114.16812 439.21389 C 117.27594 439.24889 120.07718 439.31002 123.57819 439.31002 C 148.27634 439.31002 165.44882 438.27283 166.40581 436.72354 C 167.44815 435.03975 153.06862 434.13486 125.17361 434.13486 C 121.93206 434.13486 119.38577 434.19332 116.46954 434.22104 z M 115.97014 444.51611 C 151.66265 444.57472 154.76944 445.08702 154.76944 449.6548 C 154.76944 454.22259 151.66265 454.73295 115.97014 454.79129 C 119.24354 454.79664 121.14638 454.82664 125.02114 454.82664 C 171.14555 454.82664 172.87144 454.6415 172.87144 449.6548 C 172.87144 444.6681 171.14555 444.48075 125.02114 444.48075 C 121.14638 444.48075 119.24354 444.51073 115.97014 444.51611 z " /><path
       id="path24"
       style="fill:#ffffff;fill-opacity:0.40000001;stroke-linecap:round;stroke-linejoin:round;paint-order:markers stroke fill"
       inkscape:label="highlight"
       d="M 100.32535 220.30505 C 98.492836 222.17938 96.804501 224.17887 95.520321 226.06247 C 92.095851 231.08539 87.729592 241.21912 85.820772 248.58279 C 83.909382 255.94645 82.344889 265.23467 82.344889 269.22817 L 82.345994 276.49261 L 100.44799 276.18546 L 100.44799 269.22927 C 100.44799 265.23577 102.01248 255.94534 103.92387 248.58168 C 105.83269 241.21801 110.19895 231.08428 113.62342 226.06136 C 117.0479 221.03845 123.33774 215.19648 127.6054 213.07817 C 129.3289 212.22373 131.45987 211.43541 133.64787 210.7878 C 130.39749 209.79706 126.95281 209.15295 124.50738 209.17361 C 120.52423 209.20461 113.77108 210.96244 109.50341 213.07817 C 106.83612 214.40212 103.37954 217.18117 100.32535 220.30505 z M 77.171944 281.53408 L 77.171944 349.86292 C 77.171944 387.44424 77.880278 420.03283 78.744158 422.28305 C 80.089118 425.7903 86.525859 426.37544 123.72956 426.37544 C 127.47939 426.37544 129.66379 426.33116 132.81481 426.31689 C 104.64084 426.19059 98.05658 425.43948 96.846152 422.28305 C 95.982272 420.03283 95.273939 387.44424 95.273939 349.86292 L 95.273938 281.53408 L 77.171944 281.53408 z M 82.531611 436.42744 C 82.407883 436.52348 82.345995 436.62235 82.345995 436.72354 C 82.345995 438.34008 97.814436 439.31002 123.57819 439.31002 C 126.75708 439.31002 129.4077 439.24712 132.31873 439.21389 C 112.52721 438.99231 100.44799 438.12154 100.44799 436.72354 C 100.44799 435.30068 113.34064 434.42221 134.54391 434.21994 C 131.42851 434.19075 128.73309 434.13486 125.17361 434.13486 C 100.02106 434.13486 84.387536 434.9869 82.531611 436.42744 z M 78.163002 446.7424 C 77.280571 447.4612 77.171945 448.40702 77.171945 449.6537 C 77.171945 454.6404 78.896726 454.82664 125.02114 454.82664 C 128.8959 454.82664 130.79874 454.79664 134.07214 454.79129 C 98.379629 454.73295 95.273939 454.22148 95.273939 449.6537 C 95.273939 445.08592 98.379629 444.57472 134.07214 444.51611 C 130.79874 444.51073 128.8959 444.48075 125.02114 444.48075 C 90.427829 444.48075 80.810296 444.58601 78.163002 446.7424 z " /></g><g
     id="g2"
     inkscape:label="ammoVariety"
     style="fill:#000000;stroke:none;stroke-width:0.563757;stroke-linecap:round;stroke-linejoin:round;stroke-dasharray:none;stroke-opacity:1;paint-order:markers fill stroke"
     transform="matrix(1.4671189,1.4671189,-1.4671189,1.4671189,-6.8240721,-68.511486)"><path
       id="path1"
       style="display:inline;fill:#dae639;stroke:none;stroke-width:10;stroke-dasharray:none;stroke-dashoffset:0"
       inkscape:label="Yellow-Background"
       d="M 369,241 241,369 369,497 497,369 Z"
       transform="matrix(0.3834045,-0.3834045,0.3834045,0.3834045,-6.4461316,21.023318)" /><path
       style="display:inline;fill:#000000;fill-opacity:1;stroke:none;stroke-width:0.623824;stroke-linecap:round;stroke-linejoin:round;stroke-dasharray:none;stroke-opacity:1;paint-order:markers fill stroke"
       d="m 238.1659,24.857402 0.94972,0.94973 c 10.43648,10.436468 21.91141,19.778976 33.46826,25.108303 11.55706,5.329124 23.3549,6.61183 33.90022,0.612893 l 0.28927,-0.162015 0.17483,-0.276462 c 7.13913,-11.007587 5.89546,-22.897923 0.28581,-34.34764 -5.60976,-11.4496306 -15.50295,-22.6686338 -25.94379,-33.109466 l -0.94983,-0.949832 z m 3.81173,-0.0128 38.3531,-38.353103 c 10.00013,10.0840734 19.29598,20.8199784 24.49541,31.432393 5.31347,10.844753 6.42847,21.347286 0.0412,31.422727 -9.58574,5.310726 -20.18686,4.189426 -31.15918,-0.870248 -10.7421,-4.953663 -21.68362,-13.71377 -31.73091,-23.631565 z m 3.81762,-0.0061 c 8.63306,8.469009 18.83494,16.296765 28.87877,20.886962 2.92959,1.338913 5.83103,2.400854 8.67127,3.131854 l 0.75275,-8.566482 -11.77131,-3.487597 -1.57868,-0.466734 0.7751,-1.454885 c 0,0 2.75233,-5.148203 4.28478,-7.994651 l 1.34033,-2.814126 -24.93358,-5.65376 z m 16.28792,-16.2879239 13.95345,4.6468129 9.07143,-17.8444563 c -1.57696,-1.71722 -3.18268,-3.396728 -4.79633,-5.0311085 L 262.08307,8.5504871 Z m 24.9528,-11.0599343 -8.42012,16.5643922 7.59134,2.528012 7.58188,2.321979 5.2279,-5.602946 C 295.7046,7.9070904 291.53276,2.5592648 287.03597,-2.5095602 Z m -0.30137,22.0654912 -2.07103,4.17987 21.59225,7.921572 c -0.54754,-4.16859 -2.01889,-8.470431 -4.17357,-12.838233 -0.50993,-1.03399 -1.05951,-2.068996 -1.64191,-3.103496 l -5.26316,5.638004 -0.57162,0.616349 -0.80377,-0.244751 z m -9.6085,10.561077 c -0.93112,1.738564 -1.93971,3.619222 -2.45513,4.583488 l 11.24055,3.325378 1.05147,0.314578 -0.0954,1.092638 -0.8796,10.008153 c 6.15739,1.142442 11.96464,0.603847 17.05328,-2.188324 2.38144,-3.786117 3.44196,-7.811697 3.45252,-12.002954 l -29.36765,-5.133262 z"
       id="path3-1"
       inkscape:label="Armor Piercing" /><path
       id="rect2"
       style="display:inline;fill:#000000;stroke:none;stroke-width:10;stroke-dasharray:none;stroke-opacity:1;paint-order:markers fill stroke"
       d="M 352.00001,224 224,352 351.99999,480 480,352 Z m 0,16.78699 L 463.21303,352.00002 352.00001,463.21303 240.78699,352.00002 Z"
       inkscape:label="Border"
       sodipodi:insensitive="true"
       transform="matrix(0.3834045,-0.3834045,0.3834045,0.3834045,6.5896227,21.023318)" /></g></svg>
