<?xml version="1.0" encoding="UTF-8" standalone="no"?>
<!-- Created with Inkscape (http://www.inkscape.org/) -->

<svg
   width="511.99997"
   height="511.99997"
   viewBox="0 0 512 512"
   version="1.1"
   id="svg1"
   xml:space="preserve"
   sodipodi:docname="rifle_expansive.svg"
   inkscape:version="1.4 (86a8ad7, 2024-10-11)"
   xmlns:inkscape="http://www.inkscape.org/namespaces/inkscape"
   xmlns:sodipodi="http://sodipodi.sourceforge.net/DTD/sodipodi-0.dtd"
   xmlns="http://www.w3.org/2000/svg"
   xmlns:svg="http://www.w3.org/2000/svg"><sodipodi:namedview
     id="namedview1"
     pagecolor="#1b1f21"
     bordercolor="#000000"
     borderopacity="0.25"
     inkscape:showpageshadow="2"
     inkscape:pageopacity="0.0"
     inkscape:pagecheckerboard="false"
     inkscape:deskcolor="#d1d1d1"
     inkscape:document-units="px"
     showborder="false"
     labelstyle="default"
     inkscape:zoom="1.591797"
     inkscape:cx="249.40366"
     inkscape:cy="256.6282"
     inkscape:window-width="1920"
     inkscape:window-height="1009"
     inkscape:window-x="1912"
     inkscape:window-y="-8"
     inkscape:window-maximized="1"
     inkscape:current-layer="svg1"
     showguides="true"><inkscape:page
       x="0"
       y="0"
       width="512"
       height="512"
       id="page2"
       margin="0"
       bleed="0" /><sodipodi:guide
       position="255.68588,423.42086"
       orientation="1,0"
       id="guide6"
       inkscape:locked="false" /></sodipodi:namedview><defs
     id="defs1"><filter
       style="color-interpolation-filters:sRGB;"
       inkscape:label="Drop Shadow"
       id="filter12"
       x="-0.89807094"
       y="-0.16071427"
       width="2.7961419"
       height="1.3214285"><feFlood
         result="flood"
         in="SourceGraphic"
         flood-opacity="0.533333"
         flood-color="rgb(51,51,51)"
         id="feFlood5" /><feGaussianBlur
         result="blur"
         in="SourceGraphic"
         stdDeviation="30.000000"
         id="feGaussianBlur5" /><feOffset
         result="offset"
         in="blur"
         dx="0.000000"
         dy="0.000000"
         id="feOffset5" /><feComposite
         result="comp1"
         operator="out"
         in="flood"
         in2="offset"
         id="feComposite9" /><feComposite
         result="comp2"
         operator="atop"
         in="comp1"
         in2="SourceGraphic"
         id="feComposite12" /></filter></defs><path
     id="rect5"
     style="fill:#1b1f21;stroke-width:6.78108"
     inkscape:label="background"
     d="M -1.5258789e-5,-1.5258789e-5 H 511.99998 V 511.99998 H -1.5258789e-5 Z" /><g
     id="path4"
     inkscape:label="rifle"
     transform="rotate(45,277.75286,265.17438)"
     style="filter:url(#filter12)"><g
       id="g1"
       inkscape:label="base"><path
         style="fill:#000000;stroke-linecap:round;stroke-linejoin:round;paint-order:markers stroke fill"
         d="m 255.80273,32 c -1.60772,0.0081 -2.64741,0.801478 -3.33984,1.400391 -0.69243,0.598912 -1.24628,1.222165 -1.94141,1.990234 -1.31113,1.449155 -2.45901,3.416868 -3.95312,6.074219 -1.49411,2.657351 -3.13001,5.834414 -4.58594,8.96289 -2.95015,6.33398 -6.50065,15.862779 -8.11914,21.84375 a 3.4119761,3.4119761 0 0 0 0,0.002 c -1.71951,6.361495 -3.29572,19.771921 -3.82422,31.007816 l 0.002,-0.002 -0.94727,20.04492 a 3.4119761,3.4119761 0 0 0 0.63477,1.69726 3.4119761,3.4119761 0 0 0 -1.875,1.875 v 33.4336 32.72461 l -5.68946,13.12695 -5.96875,13.77734 a 3.4119761,3.4119761 0 0 0 -0.28125,1.35743 v 111.94336 c 0,42.40299 0.12294,70.51808 0.44141,88.27148 0.15923,8.8767 0.36552,15.15445 0.63672,19.39453 0.1356,2.12004 0.28389,3.72149 0.47265,4.96875 0.0944,0.62363 0.19385,1.15444 0.34961,1.69531 0.15576,0.54088 0.16758,1.09532 1.14453,2.07227 1.65915,1.65915 2.85298,1.57837 4.56055,1.87695 0.48574,0.0849 1.33461,0.12142 1.89844,0.19336 a 3.4119761,3.4119761 0 0 0 -2.68164,2.67969 v 4.26562 4.26368 h -3.41211 a 3.4119761,3.4119761 0 0 0 -3.41016,3.41211 v 5.11718 5.11719 A 3.4119761,3.4119761 0 0 0 219.32422,480 H 256 292.67578 a 3.4119761,3.4119761 0 0 0 3.41016,-3.41211 v -5.11719 -5.11718 a 3.4119761,3.4119761 0 0 0 -3.41016,-3.41211 h -5.11914 v -4.26368 -4.26562 a 3.4119761,3.4119761 0 0 0 -2.67969,-2.67969 c 0.56383,-0.0719 1.4127,-0.10842 1.89844,-0.19336 1.70758,-0.29858 2.9014,-0.2178 4.56055,-1.87695 0.98259,-0.9826 0.99114,-1.53621 1.14648,-2.07813 0.15534,-0.54191 0.2534,-1.07493 0.34766,-1.70117 0.18851,-1.25247 0.3371,-2.86153 0.47265,-4.99414 0.27112,-4.26522 0.4775,-10.58358 0.63672,-19.51953 0.31846,-17.87189 0.44141,-46.18074 0.44141,-88.88477 v -112.7207 a 3.4119761,3.4119761 0 0 0 -0.27344,-1.33984 l -5.07031,-11.89063 c -2.52861,-5.9285 -3.58406,-8.31946 -4.18555,-13.77734 -0.60149,-5.45788 -0.63517,-14.09221 -0.6582,-31.32227 l -0.0469,-34.54296 a 3.4119761,3.4119761 0 0 0 -1.74218,-1.73829 3.4119761,3.4119761 0 0 0 0.46679,-1.90429 l -1.21289,-17.48438 c -0.67899,-9.790407 -2.31176,-22.960714 -3.73633,-29.876951 -1.45149,-7.047 -5.1272,-17.730041 -8.46289,-24.671875 -1.60244,-3.334807 -3.32197,-6.704871 -4.82421,-9.486328 -1.50169,-2.780418 -2.6151,-4.786108 -3.66797,-6.154297 l -0.002,-0.002 c -0.58671,-0.76334 -1.05387,-1.393012 -1.71679,-2.041016 C 258.58444,32.882577 257.40861,31.991868 255.80273,32 Z m -0.15039,7.894531 c 0.31563,0.436555 1.58042,2.487544 2.97852,5.076172 1.44218,2.670251 3.12637,5.966633 4.67969,9.199219 2.97583,6.19295 6.67381,17.005966 7.92773,23.09375 1.28086,6.218549 2.95829,19.528277 3.61328,28.972658 l 0.95899,13.83594 h -19.82422 -19.90821 l 0.77735,-16.47071 c 0.50859,-10.812661 2.27015,-24.648999 3.59375,-29.546873 v -0.002 c 1.42823,-5.277263 5.00255,-14.914691 7.71875,-20.746093 1.37574,-2.95617 2.95059,-6.013296 4.34765,-8.498047 1.39641,-2.483583 2.8189,-4.566004 3.06446,-4.837891 l 0.002,-0.002 c 0.0351,-0.03882 0.0362,-0.03669 0.0703,-0.07422 z M 234.67773,130.30859 H 256 277.32812 l 0.041,31.13477 c 0.023,17.23084 0.0184,25.88245 0.69922,32.06055 0.68086,6.17809 2.16056,9.77329 4.69141,15.70703 l 4.79687,11.25 v 112.02343 c 0,42.69084 -0.12273,70.98887 -0.43945,88.76368 -0.15836,8.8874 -0.36719,15.15118 -0.625,19.20703 -0.12257,1.9283 -0.2591,3.28553 -0.38867,4.19531 -0.18967,0.0643 -0.25549,0.12453 -0.50391,0.16797 -1.26058,0.22042 -3.25073,0.42869 -5.91211,0.58984 -5.32276,0.32231 -13.37027,0.47461 -24.54102,0.47461 -11.17074,0 -19.21826,-0.1523 -24.54101,-0.47461 -2.66138,-0.16115 -4.64958,-0.36942 -5.91016,-0.58984 -0.24894,-0.0435 -0.31593,-0.10351 -0.50586,-0.16797 -0.12915,-0.90343 -0.26635,-2.24778 -0.38867,-4.16016 -0.25773,-4.02952 -0.46469,-10.25223 -0.62305,-19.08007 -0.31671,-17.6557 -0.4414,-45.76068 -0.4414,-88.15039 V 222.02344 l 5.68945,-13.12696 5.9707,-13.77734 a 3.4119761,3.4119761 0 0 0 0.28125,-1.35742 v -33.43164 z m -5.11718,327.51563 h 25.58593 25.58789 v 0.85351 0.85157 h -25.58789 -25.58593 v -0.85157 z m -6.82422,11.9414 H 256 289.26367 v 1.70508 1.70508 H 256 222.73633 v -1.70508 z"
         id="path1"
         inkscape:label="outline" /><path
         id="path6"
         style="fill:#e69b39;stroke-linecap:round;stroke-linejoin:round;paint-order:markers stroke fill"
         d="m 231.26562,126.89648 v 33.4336 33.43164 l -5.9707,13.77734 -5.9707,13.77735 v 111.94336 c 0,84.79271 0.49628,112.43964 2.04687,113.99023 1.44483,1.44483 11.37291,2.04492 33.77539,2.04492 22.40249,0 32.33252,-0.60009 33.77735,-2.04492 1.55058,-1.55059 2.04492,-29.37076 2.04492,-114.76562 V 219.76367 l -5.07031,-11.89062 c -5.05945,-11.86224 -5.07113,-11.9727 -5.11719,-46.4336 l -0.0469,-34.54297 H 256 Z m -5.11718,327.51563 v 4.26562 4.26368 h 28.99804 29 v -4.26368 -4.26562 h -29 z m -6.82422,11.94141 v 5.11718 5.11719 H 256 292.67578 v -5.11719 -5.11718 H 256 Z"
         inkscape:label="brass" /><path
         style="fill:#999999;stroke-linecap:round;stroke-linejoin:round;paint-order:markers stroke fill"
         d="m 255.82007,35.411628 c -0.6738,0.0034 -1.40312,0.760074 -2.76863,2.268868 -1.5557,1.719463 -5.14436,8.101614 -7.97602,14.18626 -2.83336,6.082941 -6.39609,15.666856 -7.91939,21.29605 -1.52157,5.629193 -3.18957,19.253547 -3.70813,30.278234 l -0.9462,20.04334 h 23.48496 23.48162 l -1.21272,-17.48461 c -0.66699,-9.617394 -2.32213,-22.857939 -3.67484,-29.425332 -1.35271,-6.567392 -5.04016,-17.314035 -8.19592,-23.881427 -3.15576,-6.567393 -6.81084,-13.335058 -8.12262,-15.039168 -1.15057,-1.496854 -1.76831,-2.245627 -2.44211,-2.242215 z"
         id="path2"
         inkscape:label="lead" /></g><path
       id="path5"
       style="fill:#000000;fill-opacity:0.40000001;stroke-linecap:round;stroke-linejoin:round;paint-order:markers stroke fill"
       inkscape:label="shadow"
       d="M 253.9657 36.689371 C 253.69477 36.972537 253.39281 37.30378 253.05143 37.680978 C 251.49573 39.400441 247.90742 45.781281 245.07576 51.865927 C 244.80264 52.452289 244.5175 53.096671 244.23331 53.741417 C 247.27602 60.357538 250.66922 70.332837 251.95486 76.574613 C 253.30757 83.142006 254.96151 96.38224 255.6285 105.99965 L 256.84108 123.48397 L 279.4685 123.48397 L 278.25592 105.99965 C 277.58893 96.38225 275.93223 83.142006 274.57952 76.574613 C 273.22681 70.007221 269.54002 59.260578 266.38426 52.693186 C 263.2285 46.125793 259.57398 39.358848 258.2622 37.654738 C 257.11163 36.157884 256.49427 35.408471 255.82047 35.411883 C 255.31512 35.414433 254.77848 35.839875 253.9657 36.689371 z M 258.10752 126.89659 L 258.15447 161.43986 C 258.20053 195.90076 258.21188 196.0105 263.27133 207.87274 L 268.34261 219.76374 L 268.34123 332.48512 C 268.34123 417.87998 267.84783 445.69851 266.29725 447.2491 C 265.13498 448.41138 258.10224 449.00836 243.88252 449.2047 C 247.31714 449.25159 250.80319 449.29585 255.14651 449.29585 C 277.549 449.29585 287.47846 448.69531 288.92329 447.25048 C 290.47387 445.69989 290.96865 417.87998 290.96865 332.48512 L 290.97003 219.76374 L 285.89875 207.87274 C 280.8393 196.0105 280.82795 195.90076 280.78189 161.43986 L 280.73494 126.89659 L 258.10752 126.89659 z M 261.52014 454.4127 L 261.52014 458.67744 L 261.52152 462.9408 L 284.14617 462.9408 L 284.14755 458.67744 L 284.14617 454.41132 L 261.52014 454.4127 z M 270.04961 466.35342 L 270.04823 471.47027 L 270.04823 476.58851 L 292.67565 476.58851 L 292.67565 471.47027 L 292.67703 466.35342 L 270.04961 466.35342 z " /><path
       id="path9"
       style="fill:#ffffff;fill-opacity:0.40000001;stroke-linecap:round;stroke-linejoin:round;paint-order:markers stroke fill"
       inkscape:label="highlight"
       d="M 253.9657 36.689371 C 253.69477 36.972537 253.39281 37.30378 253.05143 37.680978 C 251.49573 39.400441 247.90742 45.781281 245.07576 51.865927 C 242.2424 57.948868 238.67864 67.534181 237.15534 73.163375 C 235.63377 78.792568 233.96573 92.415839 233.44717 103.44053 L 232.50114 123.48397 L 255.13132 123.48397 L 256.07597 103.44191 C 256.59453 92.417224 258.26256 78.791187 259.78413 73.161994 C 261.1605 68.075796 264.19681 59.785174 266.86073 53.741417 C 266.702 53.396273 266.54072 53.018802 266.38426 52.693186 C 263.2285 46.125793 259.57398 39.358848 258.2622 37.654738 C 257.11163 36.157884 256.49427 35.408471 255.82047 35.411883 C 255.31512 35.414433 254.77848 35.839875 253.9657 36.689371 z M 231.26508 126.89659 L 231.26508 160.32948 L 231.26508 193.76237 L 225.29473 207.53852 L 219.32437 221.31744 L 219.32299 333.2599 C 219.32299 418.05261 219.82052 445.69851 221.37111 447.2491 C 222.81594 448.69393 232.74403 449.29585 255.14651 449.29585 C 259.51645 449.29585 263.02918 449.25218 266.47955 449.2047 C 252.21798 449.00928 245.16386 448.41443 243.99991 447.25048 C 242.44932 445.69989 241.95317 418.05261 241.95317 333.2599 L 241.95317 221.31606 L 247.92214 207.53852 L 253.89388 193.76099 L 253.89388 160.33086 L 253.8925 126.89659 L 231.26508 126.89659 z M 226.14823 454.4127 L 226.14823 458.67744 L 226.14823 462.94218 L 248.77702 462.9408 L 248.77564 458.67744 L 248.77564 454.4127 L 226.14823 454.4127 z M 219.32299 466.35342 L 219.32437 471.47027 L 219.32437 476.58851 L 241.95179 476.58851 L 241.95179 471.47027 L 241.95317 466.35342 L 219.32299 466.35342 z " /></g><g
     id="g2"
     inkscape:label="ammoVariety"
     style="fill:#000000;stroke:none;stroke-width:0.563757;stroke-linecap:round;stroke-linejoin:round;stroke-dasharray:none;stroke-opacity:1;paint-order:markers fill stroke"
     transform="matrix(1.3010376,1.3010376,-1.3010376,1.3010376,35.606925,-5.5973278)"><path
       id="path1-5"
       style="display:inline;fill:#dae639;stroke:none;stroke-width:10;stroke-dasharray:none;stroke-dashoffset:0"
       inkscape:label="Yellow-Background"
       d="M 369,241 241,369 369,497 497,369 Z"
       transform="matrix(0.43234722,-0.43234722,0.43234722,0.43234722,-47.754054,15.83515)" /><path
       d="m 20.625,16 c -1.74,0.052 -2.956,0.394 -3.594,1.03 -10.2,10.203 58.65,170.85 76.5,178.5 5.02,2.152 15.865,-3.563 28.72,-13.28 h 0.03 L 196,256 122.28,329.75 c -12.863,-9.726 -23.728,-15.433 -28.75,-13.28 -17.85,7.65 -86.7,168.297 -76.5,178.5 10.203,10.2 170.85,-58.65 178.5,-76.5 2.153,-5.022 -3.554,-15.887 -13.28,-28.75 L 256,316 l 73.75,73.75 c -9.717,12.855 -15.432,23.7 -13.28,28.72 7.65,17.85 168.297,86.7 178.5,76.5 10.2,-10.203 -58.65,-170.85 -76.5,-178.5 -5.02,-2.152 -15.865,3.563 -28.72,13.28 L 316,256 389.75,182.25 c 12.855,9.717 23.7,15.432 28.72,13.28 17.85,-7.65 86.7,-168.297 76.5,-178.5 -10.203,-10.2 -170.85,58.65 -178.5,76.5 -2.153,5.022 3.554,15.887 13.28,28.75 L 256,196 182.25,122.28 c 0.005,-0.006 -0.005,-0.023 0,-0.03 9.717,-12.855 15.432,-23.7 13.28,-28.72 C 188.36,76.796 46.71,15.225 20.626,16 Z"
       fill="#e64539"
       fill-opacity="1"
       filter="url(#shadow-1)"
       id="path3-5"
       style="display:inline;fill:#000000;stroke:none;stroke-width:4.9748;stroke-linecap:round;stroke-linejoin:round;stroke-dasharray:none;stroke-opacity:1;paint-order:markers fill stroke"
       transform="matrix(0.09908158,-0.09908158,0.09908158,0.09908158,220.58902,15.835751)"
       inkscape:label="Expansive" /><path
       id="rect2"
       style="display:inline;fill:#000000;stroke:none;stroke-width:10;stroke-dasharray:none;stroke-opacity:1;paint-order:markers fill stroke"
       d="M 352.00001,223.99999 224,352 351.99999,480 480,352 Z m 0,16.787 L 463.21303,352.00001 352.00001,463.21303 240.78699,352.00001 Z"
       inkscape:label="Border"
       sodipodi:insensitive="true"
       transform="matrix(0.43234722,-0.43234722,0.43234722,0.43234722,-33.054249,15.835152)" /></g></svg>
