<?xml version="1.0" encoding="UTF-8" standalone="no"?>
<!-- Created with Inkscape (http://www.inkscape.org/) -->

<svg
   width="511.99997"
   height="511.99997"
   viewBox="0 0 512 512"
   version="1.1"
   id="svg1"
   xml:space="preserve"
   sodipodi:docname="rocket_smart.svg"
   inkscape:version="1.4 (86a8ad7, 2024-10-11)"
   xmlns:inkscape="http://www.inkscape.org/namespaces/inkscape"
   xmlns:sodipodi="http://sodipodi.sourceforge.net/DTD/sodipodi-0.dtd"
   xmlns="http://www.w3.org/2000/svg"
   xmlns:svg="http://www.w3.org/2000/svg"
   xmlns:rdf="http://www.w3.org/1999/02/22-rdf-syntax-ns#"
   xmlns:cc="http://creativecommons.org/ns#"
   xmlns:dc="http://purl.org/dc/elements/1.1/"><sodipodi:namedview
     id="namedview1"
     pagecolor="#1b1f21"
     bordercolor="#000000"
     borderopacity="0.25"
     inkscape:showpageshadow="2"
     inkscape:pageopacity="0.0"
     inkscape:pagecheckerboard="false"
     inkscape:deskcolor="#505050"
     inkscape:document-units="px"
     showborder="false"
     labelstyle="default"
     inkscape:zoom="1.576172"
     inkscape:cx="256.3172"
     inkscape:cy="258.53777"
     inkscape:window-width="1920"
     inkscape:window-height="1009"
     inkscape:window-x="1912"
     inkscape:window-y="-8"
     inkscape:window-maximized="1"
     inkscape:current-layer="svg1"
     showguides="true"><inkscape:page
       x="0"
       y="0"
       width="512"
       height="512"
       id="page2"
       margin="0"
       bleed="0" /></sodipodi:namedview><defs
     id="defs1"><filter
       style="color-interpolation-filters:sRGB;"
       inkscape:label="Drop Shadow"
       id="filter12"
       x="-0.17502315"
       y="-0.17502073"
       width="1.3500463"
       height="1.3500415"><feFlood
         result="flood"
         in="SourceGraphic"
         flood-opacity="0.533333"
         flood-color="rgb(51,51,51)"
         id="feFlood5" /><feGaussianBlur
         result="blur"
         in="SourceGraphic"
         stdDeviation="30.000000"
         id="feGaussianBlur5" /><feOffset
         result="offset"
         in="blur"
         dx="0.000000"
         dy="0.000000"
         id="feOffset5" /><feComposite
         result="comp1"
         operator="out"
         in="flood"
         in2="offset"
         id="feComposite9" /><feComposite
         result="comp2"
         operator="atop"
         in="comp1"
         in2="SourceGraphic"
         id="feComposite12" /></filter></defs><path
     id="rect5"
     style="fill:#1b1f21;stroke-width:0;stroke:none;stroke-dasharray:none"
     inkscape:label="background"
     d="M 0,0 H 511.99999 V 512 H 0 Z" /><g
     id="g14"
     inkscape:label="Rocket"
     transform="matrix(0.8953371,-0.01862478,-0.01862478,0.8953371,-15.632847,78.755818)"
     style="filter:url(#filter12)"><g
       id="g15"
       inkscape:label="base"><path
         id="polygon1"
         style="display:inline;fill:#e6e6e6"
         inkscape:label="ext wings"
         d="m 359.10683,126.37806 -100.08703,-3.57589 -56.29422,56.27848 51.17771,27.03181 z m 26.5167,26.51985 -79.73283,105.20196 27.03024,51.17614 56.28005,-56.29265 z m -155.47232,164.85784 -26.37807,42.46169 27.03181,51.16196 22.36426,-22.36426 z m -35.90695,-35.9038 -71.25624,-23.018 -22.36426,22.36426 51.16197,27.03182 z" /><path
         id="path6"
         style="display:inline;fill:#b3b3b3"
         inkscape:label="fusilage"
         d="m 400.187,59.973678 c -1.76,1.655 -3.52081,3.36228 -5.23781,5.08028 l -2.01478,2.014784 -58.19717,58.216068 -0.009,-0.009 -80.8245,80.84025 -111.79766,111.79767 51.97638,51.97638 9.68483,-9.68797 31.2961,-31.2772 70.80886,-70.82462 141.06323,-141.06323 c 1.716,-1.716 3.4247,-3.47623 5.0787,-5.23623 z" /><path
         id="path8"
         style="display:inline;fill:#f95428"
         d="m 511.99792,0 c -40.993,9.574 -78.73883,29.56075 -109.64583,57.96875 -0.729,0.659 -1.45158,1.32925 -2.16458,2.00625 L 439.92292,99.708333 452.01459,111.8 c 0.677,-0.714 1.34625,-1.43358 2.00625,-2.16458 13.069,-14.177003 24.33275,-29.841503 33.64375,-46.562503 1.36625,-2.461875 2.68993,-4.947715 3.97083,-7.45625 1.2809,-2.508535 2.51822,-5.040922 3.7125,-7.59375 1.19428,-2.552828 2.34569,-5.12608 3.45209,-7.720834 1.10639,-2.594754 2.16816,-5.21152 3.18541,-7.845833 1.01725,-2.634312 1.98983,-5.286829 2.91667,-7.958333 0.92683,-2.671504 1.80859,-5.360339 2.64375,-8.066667 0.83515,-2.706328 1.62237,-5.429965 2.36458,-8.16875 0.74221,-2.7387852 1.4395,-5.493625 2.0875,-8.2625 z"
         inkscape:label="nosecone" /><g
         id="g13"
         inkscape:label="horizontal bands"
         style="display:inline">
	<path
   style="fill:#808080"
   d="m 402.352,57.968 51.667,51.667 c -0.66,0.731 -1.329,1.452 -2.006,2.166 -1.654,1.76 -3.362,3.52 -5.078,5.236 l -2.015,2.015 -51.984,-51.983 2.015,-2.015 c 1.716,-1.716 3.476,-3.424 5.236,-5.078 0.713,-0.678 1.434,-1.348 2.165,-2.008 z"
   id="path11" />
	
		<rect
   x="240.405"
   y="228.26601"
   transform="matrix(-0.7071,0.7071,-0.7071,-0.7071,608.9711,277.8032)"
   style="fill:#808080"
   width="13.092"
   height="73.515999"
   id="rect12" />
	
		<rect
   x="111.22183"
   y="-398.78436"
   transform="rotate(135)"
   style="fill:#808080;stroke-width:0.99999"
   width="13.091874"
   height="73.515297"
   id="rect13" />
</g><g
         id="g11"
         inkscape:label="dorsal wings">
	
		<path
   id="rect9"
   style="fill:#e6e6e6"
   d="M 256.92218,197.90818 H 383.70654 V 185.46367 H 256.92218 Z"
   transform="matrix(-0.7071,0.7071,-0.7071,-0.7071,682.3541,100.7313)" />
	
		<path
   id="rect10"
   style="display:inline;fill:#e6e6e6;stroke-width:0.96815"
   d="m 203.81724,299.39585 -42.81682,42.81683 8.80109,8.80109 42.81683,-42.81682 z" />
	
		
</g></g><g
       id="g10"
       inkscape:label="shadow"
       style="fill:#000000;fill-opacity:0.4"><path
         id="path17"
         style="fill:#000000;fill-opacity:0.4"
         d="M 511.99727,-4.0559065e-4 C 503.82999,1.9070795 495.83642,4.3415995 487.95534,7.0600021 c -0.0424,0.1228162 -0.0771,0.2490233 -0.11973,0.3717663 -0.92684,2.6715036 -1.90017,5.3240056 -2.91742,7.9583176 -1.01725,2.634313 -2.07882,5.250144 -3.18521,7.844898 -1.1064,2.594754 -2.25716,5.167622 -3.45144,7.72045 -1.19428,2.552828 -2.43204,5.085893 -3.71294,7.594428 -1.2809,2.508535 -2.60503,4.993928 -3.97128,7.455803 -9.311,16.721 -20.57427,32.386714 -33.64327,46.56372 -0.66,0.731 -1.32991,1.450435 -2.00691,2.164435 l -0.002,-0.0016 c -1.654,1.76 -3.36113,3.521808 -5.07713,5.237808 l -2.01479,2.014792 -139.04844,139.04843 -70.80886,70.82462 -31.29295,31.27719 -9.6864,9.68956 17.06659,17.06659 9.6864,-9.68955 31.29295,-31.2772 70.80886,-70.82461 139.04844,-139.04844 2.01479,-2.01479 c 1.716,-1.716 3.4247,-3.47623 5.0787,-5.23623 0.677,-0.714 1.34691,-1.43344 2.00691,-2.16444 13.069,-14.177009 24.33227,-29.84272 33.64327,-46.56372 1.36625,-2.461875 2.69038,-4.947268 3.97128,-7.455803 1.2809,-2.508535 2.51866,-5.0416 3.71294,-7.594428 1.19428,-2.552828 2.34504,-5.125696 3.45144,-7.72045 1.10639,-2.594754 2.16796,-5.210585 3.18521,-7.844898 1.01725,-2.634312 1.99058,-5.286813 2.91742,-7.958317 0.92683,-2.671504 1.80974,-5.360684 2.6449,-8.067012 0.83515,-2.706328 1.62071,-5.430621 2.36292,-8.1694058 0.74221,-2.7387852 1.43925,-5.4934718 2.08725,-8.26234679065 z" /><path
         id="path23"
         style="fill:#000000;fill-opacity:0.4"
         inkscape:label="ext wings"
         d="m 386.50096,177.47071 -15.88985,15.88985 1.52329,42.55621 -51.01073,51.02334 11.79727,22.3359 56.28005,-56.29265 z m -51.99686,-51.97166 -32.95172,-1.17831 -64.69205,64.7078 -0.0236,0.0173 -28.84024,-15.23296 -5.27088,5.26774 51.17771,27.03181 0.0252,-0.0189 z m -152.40997,152.42888 -25.79995,-8.33324 -21.55772,21.55772 -0.0173,0.011 -28.82921,-15.23139 -5.26617,5.26616 51.16197,27.03182 0.0173,-0.011 z m 51.98268,51.98268 -8.73336,8.73021 10.75917,33.30773 -17.09809,17.0981 11.80042,22.33275 22.36426,-22.36426 z" /></g><g
       id="g12"
       inkscape:label="highlight"
       style="fill:#ffffff;fill-opacity:0.4"><path
         id="path22"
         style="fill:#ffffff;fill-opacity:0.4"
         d="M 511.99727,-4.0559065e-4 C 471.00427,9.5735944 433.26001,29.560346 402.35301,57.968346 c -0.729,0.659 -1.45143,1.329907 -2.16443,2.006907 -1.76,1.654 -3.52339,3.362705 -5.23939,5.078705 l -2.01478,2.014784 -58.19559,58.214498 -0.011,-0.008 -80.82292,80.84183 -28.29992,28.29991 -0.0126,-0.0126 -9.2595,9.25635 0.0142,0.0142 -74.23983,74.23982 17.06659,17.06659 74.23983,-74.23982 -0.0142,-0.0142 9.2595,-9.25635 0.0126,0.0126 28.29992,-28.29991 80.82292,-80.84183 0.011,0.008 58.19559,-58.214498 2.01478,-2.014784 c 1.716,-1.716 3.47939,-3.424704 5.23939,-5.078704 0.713,-0.677 1.43543,-1.347908 2.16443,-2.006908 24.74921,-22.748105 53.92689,-39.98261 85.60233,-50.908344 0.88029,-2.55028 1.72838,-5.11326 2.52517,-7.695245 0.83515,-2.706328 1.62071,-5.430621 2.36292,-8.1694058 0.74221,-2.7387852 1.43925,-5.4934718 2.08725,-8.26234679065 z" /><path
         id="path20"
         style="fill:#ffffff;fill-opacity:0.4"
         inkscape:label="ext wings"
         d="m 386.50096,177.47071 -80.55985,80.55985 -0.0504,0.0693 27.03024,51.17614 5.26932,-5.26931 -15.23297,-28.84024 0.0504,-0.0693 64.67,-64.67 z m -51.99686,-51.97166 -75.4843,-2.69688 -56.29422,56.27848 22.33747,11.79885 51.02334,-51.01074 42.53258,1.51857 z m -152.40997,152.42888 -59.10611,-19.09398 -22.36426,22.36426 22.33276,11.80043 17.09809,-17.0981 33.30616,10.76074 z m 51.98268,51.98268 -30.27217,30.25642 -0.0315,0.0504 27.03181,51.16196 5.26617,-5.26616 -15.23139,-28.82921 0.0315,-0.0504 21.53881,-21.52621 z" /></g></g><metadata
     id="metadata1"><rdf:RDF><cc:Work
         rdf:about=""><dc:source>https://www.svgrepo.com/svg/193201/rocket-bomb</dc:source><cc:license
           rdf:resource="http://creativecommons.org/publicdomain/zero/1.0/" /></cc:Work><cc:License
         rdf:about="http://creativecommons.org/publicdomain/zero/1.0/"><cc:permits
           rdf:resource="http://creativecommons.org/ns#Reproduction" /><cc:permits
           rdf:resource="http://creativecommons.org/ns#Distribution" /><cc:permits
           rdf:resource="http://creativecommons.org/ns#DerivativeWorks" /></cc:License></rdf:RDF></metadata><g
     id="g2"
     inkscape:label="ammoVariety"
     style="fill:#000000;stroke:none;stroke-width:0.563757;stroke-linecap:round;stroke-linejoin:round;stroke-dasharray:none;stroke-opacity:1;paint-order:markers fill stroke"
     transform="matrix(1.1519604,1.1519604,-1.1519604,1.1519604,73.693608,37.210676)"><path
       id="path1-7"
       style="display:inline;fill:#dae639;stroke:none;stroke-width:10;stroke-dasharray:none;stroke-dashoffset:0"
       inkscape:label="Yellow-Background"
       d="M 369,241 241,369 369,497 497,369 Z"
       transform="matrix(0.48829804,-0.48829804,0.48829804,0.48829804,-89.04575,15.83515)" /><path
       id="path22-1"
       style="display:inline;fill:#000000;stroke:none;stroke-width:0.106477;stroke-linecap:round;stroke-linejoin:round;stroke-dasharray:none;stroke-opacity:1;paint-order:markers fill stroke"
       inkscape:label="Smart"
       d="m 237.30214,-14.215016 c 1.94532,1.945313 3.89138,3.891374 5.83669,5.836687 1.32227,-1.3216146 2.64439,-2.643518 3.96666,-3.965133 -1.94531,-1.945313 -3.89062,-3.890611 -5.83593,-5.835924 -1.32226,1.321615 -2.64515,2.642756 -3.96742,3.96437 z m 16.78754,-16.787534 c -1.32226,1.322266 -2.64364,2.645155 -3.9659,3.967421 l 5.83593,5.835925 c 1.32227,-1.322265 2.64439,-2.644393 3.96665,-3.966659 -1.94531,-1.945312 -3.89136,-3.891375 -5.83668,-5.836687 z M 224.4805,-1.3918523 c 1.94531,1.94531248 3.89061,3.890612 5.83593,5.8359245 1.32226,-1.3222656 2.64516,-2.6451559 3.96742,-3.96742154 l -5.83592,-5.83592446 c -1.32227,1.3222656 -2.64517,2.6451559 -3.96743,3.9674215 z m 6.41197,-6.4104376 c 1.94531,1.9453125 3.8906,3.890612 5.83592,5.8359245 1.32226,-1.3222656 2.64516,-2.6451559 3.96742,-3.9674216 l -5.83592,-5.835924 c -1.32227,1.322265 -2.64516,2.6451555 -3.96742,3.9674211 z m 12.82087,-12.8208751 c 1.94531,1.945313 3.89062,3.890611 5.83593,5.835924 1.32226,-1.322266 2.6444,-2.644393 3.96666,-3.966658 L 247.68,-24.589824 c -1.32227,1.322266 -2.64439,2.644393 -3.96666,3.966659 z M 230.32024,8.0033071 V 23.666993 l 33.16612,33.166118 h 15.66369 L 312.31617,23.666993 V 8.0033071 L 279.15005,-25.162811 h -15.66369 z m 7.82269,2.3278079 c 9.22324,-9.2232475 18.44645,-18.4464615 27.66971,-27.669713 l 11.01113,-0.0015 27.66742,27.670476 -7.6e-4,11.008832 -27.66819,27.669714 h -11.0096 c -9.22326,-9.223275 -18.44647,-18.44649 -27.66971,-27.66974 z m 9.55996,-1.0162699 2.44149,2.4414899 17.09425,-17.0942458 -2.44149,-2.4414902 z M 224.4805,33.062152 c 1.32226,1.322266 2.64439,2.644392 3.96666,3.966658 l 5.83593,-5.835924 c -1.32226,-1.322265 -2.6444,-2.644393 -3.96666,-3.966659 -1.94532,1.945313 -3.89062,3.890612 -5.83593,5.835925 z m 58.23031,-58.228778 c 1.32161,1.322266 2.64276,2.645157 3.96437,3.967422 1.94531,-1.945312 3.89061,-3.890613 5.83592,-5.835925 -1.32162,-1.322266 -2.64276,-2.645156 -3.96437,-3.967421 -1.94532,1.945312 -3.89061,3.890612 -5.83592,5.835924 z M 230.89247,39.47259 c 1.32226,1.322917 2.64515,2.646031 3.96742,3.968947 l 5.83592,-5.835924 c -1.32226,-1.322917 -2.64516,-2.646032 -3.96742,-3.968948 -1.94532,1.945312 -3.89061,3.890613 -5.83592,5.835925 z m 58.22878,-58.228778 c 1.32227,1.322916 2.64438,2.646793 3.96665,3.96971 1.94531,-1.945313 3.89062,-3.890611 5.83593,-5.835924 -1.32227,-1.322917 -2.64439,-2.646794 -3.96666,-3.969711 -1.94531,1.945313 -3.8906,3.890612 -5.83592,5.835925 z M 248.0798,24.381891 262.7707,39.072796 294.55585,7.2876453 279.86495,-7.4032589 Z m -10.77689,21.502662 c 1.32227,1.321614 2.64439,2.643519 3.96665,3.965133 1.94531,-1.945312 3.89062,-3.890613 5.83593,-5.835925 -1.32227,-1.321615 -2.64439,-2.643517 -3.96666,-3.965132 -1.94531,1.945313 -3.8906,3.890611 -5.83592,5.835924 z m 58.22801,-58.228015 c 1.32227,1.321615 2.64515,2.6427554 3.96742,3.96437 l 5.83593,-5.835924 c -1.32226,-1.321614 -2.64516,-2.642755 -3.96742,-3.96437 -1.94531,1.945313 -3.89062,3.890612 -5.83593,5.835924 z m -51.81758,64.638453 c 1.32227,1.322265 2.64439,2.644392 3.96666,3.966658 l 5.83593,-5.835924 c -1.32226,-1.322265 -2.6444,-2.644393 -3.96666,-3.966659 -1.94531,1.945313 -3.89062,3.890612 -5.83593,5.835925 z m 58.22802,-58.228015 c 1.32226,1.3216146 2.64516,2.6427551 3.96742,3.9643697 1.94532,-1.9453125 3.89061,-3.890612 5.83592,-5.8359245 -1.32226,-1.3216146 -2.64515,-2.6427562 -3.96742,-3.9643702 z m -51.81834,64.637689 c 1.32226,1.322266 2.6444,2.644393 3.96666,3.966659 1.94532,-1.945312 3.89061,-3.890612 5.83592,-5.835924 -1.32226,-1.322266 -2.64439,-2.644394 -3.96666,-3.966659 z M 308.35408,0.47665066 c 1.32161,1.32226564 2.64199,2.64439294 3.96361,3.96665854 1.94531,-1.9453125 3.89061,-3.89061198 5.83593,-5.8359245 -1.32162,-1.3222657 -2.64199,-2.6443929 -3.96361,-3.9666585 z m -32.96851,36.51630034 2.44149,2.44149 17.09044,-17.090431 -2.44149,-2.44149 z m 11.29037,15.87579 c -1.32161,1.322265 -2.64352,2.644393 -3.96513,3.966659 1.94531,1.945312 3.8906,3.890611 5.83592,5.835924 1.32161,-1.322266 2.64352,-2.644393 3.96514,-3.966659 -1.94531,-1.945312 -3.89062,-3.890612 -5.83593,-5.835924 z m 8.85498,-8.85498 c 1.94531,1.945312 3.89062,3.890613 5.83593,5.835925 1.32226,-1.321614 2.64439,-2.643519 3.96665,-3.965133 l -5.83592,-5.835924 c -1.32227,1.321615 -2.64439,2.643517 -3.96666,3.965132 z m 16.78753,-16.787534 c -1.32162,1.322266 -2.64352,2.644394 -3.96513,3.966659 l 5.83593,5.835924 c 1.32162,-1.322266 2.64351,-2.644392 3.96513,-3.966658 -1.94532,-1.945312 -3.89062,-3.890612 -5.83593,-5.835925 z m -23.19797,23.199498 c 1.94532,1.945313 3.89062,3.890611 5.83593,5.835924 1.32227,-1.322266 2.64515,-2.645156 3.96742,-3.967421 -1.94531,-1.945313 -3.89062,-3.890612 -5.83593,-5.835925 -1.32227,1.322266 -2.64515,2.645157 -3.96742,3.967422 z m 12.82088,-12.820875 5.83592,5.835924 c 1.32227,-1.322265 2.64439,-2.644393 3.96666,-3.966659 -1.94531,-1.945312 -3.8906,-3.890612 -5.83592,-5.835924 -1.32226,1.322265 -2.6444,2.644393 -3.96666,3.966659 z" /><path
       id="rect2"
       style="display:inline;fill:#000000;stroke:none;stroke-width:10;stroke-linecap:round;stroke-linejoin:round;stroke-dasharray:none;stroke-opacity:1;paint-order:markers fill stroke"
       d="M 352.00001,224 224,352 351.99999,480 480,352 Z m 0,16.78699 L 463.21303,352.00002 352.00001,463.21303 240.78699,352.00002 Z"
       inkscape:label="Border"
       sodipodi:insensitive="true"
       transform="matrix(0.48829804,-0.48829804,0.48829804,0.48829804,-72.443619,15.835149)" /></g></svg>
