<?xml version="1.0" encoding="UTF-8" standalone="no"?>
<svg
   style="height: 512px; width: 512px;"
   viewBox="0 0 512 512"
   version="1.1"
   id="svg2"
   sodipodi:docname="shotgun-shell.svg"
   inkscape:version="1.4 (86a8ad7, 2024-10-11)"
   xmlns:inkscape="http://www.inkscape.org/namespaces/inkscape"
   xmlns:sodipodi="http://sodipodi.sourceforge.net/DTD/sodipodi-0.dtd"
   xmlns="http://www.w3.org/2000/svg"
   xmlns:svg="http://www.w3.org/2000/svg">
  <defs
     id="defs2">
    <filter
       style="color-interpolation-filters:sRGB;"
       inkscape:label="Drop Shadow"
       id="filter8"
       x="-0.50073166"
       y="-0.19013406"
       width="2.0014633"
       height="1.3802681">
      <feFlood
         result="flood"
         in="SourceGraphic"
         flood-opacity="0.533333"
         flood-color="rgb(51,51,51)"
         id="feFlood4" />
      <feGaussianBlur
         result="blur"
         in="SourceGraphic"
         stdDeviation="30.000000"
         id="feGaussianBlur4" />
      <feOffset
         result="offset"
         in="blur"
         dx="0.000000"
         dy="0.000000"
         id="feOffset4" />
      <feComposite
         result="comp1"
         operator="out"
         in="flood"
         in2="offset"
         id="feComposite7" />
      <feComposite
         result="comp2"
         operator="atop"
         in="comp1"
         in2="SourceGraphic"
         id="feComposite8" />
    </filter>
  </defs>
  <sodipodi:namedview
     id="namedview2"
     pagecolor="#505050"
     bordercolor="#ffffff"
     borderopacity="1"
     inkscape:showpageshadow="0"
     inkscape:pageopacity="0"
     inkscape:pagecheckerboard="1"
     inkscape:deskcolor="#505050"
     inkscape:zoom="1.5761719"
     inkscape:cx="255.68277"
     inkscape:cy="256"
     inkscape:window-width="1920"
     inkscape:window-height="1009"
     inkscape:window-x="-8"
     inkscape:window-y="-8"
     inkscape:window-maximized="1"
     inkscape:current-layer="svg2"
     showguides="true">
    <sodipodi:guide
       position="255.04832,435.86617"
       orientation="1,0"
       id="guide13"
       inkscape:locked="false" />
  </sodipodi:namedview>
  <path
     d="M 0,0 H 512 V 512 H 0 Z"
     fill="#000"
     fill-opacity="1"
     id="path1"
     style="display:inline;fill:#1b1f21"
     inkscape:label="background"
     sodipodi:insensitive="true" />
  <g
     id="g13"
     style="stroke:none;stroke-width:15;stroke-linecap:round;stroke-linejoin:round;stroke-dasharray:none;stroke-opacity:1;paint-order:markers stroke fill;filter:url(#filter8)"
     inkscape:label="shotgun-slug"
     transform="matrix(0.79491502,0.79491502,-0.79491502,0.79491502,253.9345,-148.47873)">
    <g
       id="g1"
       inkscape:label="base">
      <path
         id="path13"
         style="display:inline;fill:#e69b39;stroke:none;stroke-width:15;stroke-linecap:round;stroke-linejoin:round;stroke-dasharray:none;stroke-opacity:1;paint-order:markers stroke fill"
         d="m 313.60742,354.9707 c -40.93,13.13 -80.13,14.00121 -116.5,1.65821 v 40.03906 c 35.69,14.074 74.128,13.70526 116.5,-0.92774 z m 3.01563,47.75196 c -42.767,14.164 -83.6698,15.00059 -121.4668,1.43359 L 192,417.77344 c 38.888,19.18 84.99706,18.92601 128.78906,-0.20899 z"
         inkscape:label="brass" />
      <path
         id="path11"
         style="display:inline;fill:#999999;fill-opacity:1;stroke:none;stroke-width:15;stroke-linecap:round;stroke-linejoin:round;stroke-dasharray:none;stroke-opacity:1;paint-order:markers stroke fill"
         d="m 254.94922,69 c -8.67,0.003 -17.31995,0.527234 -25.25195,1.490234 l 22.99609,7.373047 26.05859,-7.203125 -14.90429,8.265625 29.18359,0.9375 -31.16797,1.953125 7.62695,4.894532 c 12.12,-1.384001 25.07982,-4.335797 39.13282,-9.216797 -2.915,-1.435 -6.91677,-2.8715 -11.63477,-4.0625 C 285.62028,70.561641 270.23817,68.996 254.95117,69 Z m -25.45117,1.511719 c -5.98,0.732 -11.56128,1.70464 -16.36328,2.93164 -4.785,1.222 -8.80291,2.70525 -11.62891,4.15625 a 166.702,166.702 0 0 0 9.27734,3.285157 l 32.32422,-1.734375 z m -18.17578,10.542969 c 7.56,2.397 15.35785,4.233514 23.50585,5.353515 l 8.46094,-4.365234 z m 102.28515,1.726562 c -46.084,15.603 -83.883,12.328797 -116.5,0.341797 V 348.50586 c 35.69,13.848 74.13,13.28609 116.5,-1.50391 0.03,-87.962 0.005,-180.64275 0,-264.218747 z m -61.55469,0.439453 -13.19335,3.679688 c 8.334,0.888 17.04051,1.023045 26.22851,0.248047 z"
         inkscape:label="plastic" />
      <path
         id="path26"
         style="display:inline;fill:#1b1f21;fill-opacity:0.4;stroke:none;stroke-width:15;stroke-linecap:round;stroke-linejoin:round;stroke-dasharray:none;stroke-opacity:1;paint-order:markers stroke fill"
         inkscape:label="buckshot"
         d="M 255.06889,15.026408 A 28.465203,28.465203 0 0 0 226.60369,43.49161 28.465203,28.465203 0 0 0 255.06889,71.956813 28.465203,28.465203 0 0 0 283.5341,43.49161 28.465203,28.465203 0 0 0 255.06889,15.026408 Z m -41.60673,42.709965 a 28.465203,28.465203 0 0 0 -16.35394,5.333751 v 46.262906 a 28.465203,28.465203 0 0 0 16.35394,5.33375 28.465203,28.465203 0 0 0 28.46521,-28.465204 28.465203,28.465203 0 0 0 -28.46521,-28.465203 z m 81.42918,0 a 28.465203,28.465203 0 0 0 -28.46521,28.465203 28.465203,28.465203 0 0 0 28.46521,28.465204 28.465203,28.465203 0 0 0 18.71677,-7.17885 c -0.001,-14.302188 0.002,-28.501991 0,-42.572711 a 28.465203,28.465203 0 0 0 -18.71677,-7.178846 z m -39.82245,42.574447 a 28.465203,28.465203 0 0 0 -28.4652,28.46521 28.465203,28.465203 0 0 0 28.4652,28.4652 28.465203,28.465203 0 0 0 28.46521,-28.4652 28.465203,28.465203 0 0 0 -28.46521,-28.46521 z m -41.60673,42.56403 a 28.465203,28.465203 0 0 0 -16.35394,5.33375 v 46.2629 a 28.465203,28.465203 0 0 0 16.35394,5.33375 28.465203,28.465203 0 0 0 28.46521,-28.4652 28.465203,28.465203 0 0 0 -28.46521,-28.4652 z m 81.42918,0 a 28.465203,28.465203 0 0 0 -28.46521,28.4652 28.465203,28.465203 0 0 0 28.46521,28.4652 28.465203,28.465203 0 0 0 18.71677,-7.17884 c 10e-4,-14.46293 5e-4,-28.24221 0,-42.70476 a 28.465203,28.465203 0 0 0 -18.71677,-7.0468 z m -39.82245,42.83158 a 28.465203,28.465203 0 0 0 -28.4652,28.4652 28.465203,28.465203 0 0 0 28.4652,28.46521 28.465203,28.465203 0 0 0 28.46521,-28.46521 28.465203,28.465203 0 0 0 -28.46521,-28.4652 z"
         transform="translate(0,85.395643)" />
      <path
         id="path25"
         style="display:inline;fill:#999999;fill-opacity:0.2;stroke:none;stroke-width:15;stroke-linecap:round;stroke-linejoin:round;stroke-dasharray:none;stroke-opacity:1;paint-order:markers stroke fill"
         inkscape:label="buckshot-highlight"
         d="m 263.33881,20.862261 a 12.416049,8.1833048 45 0 0 -4.06894,1.716529 12.416049,8.1833048 45 0 0 2.99177,14.566178 12.416049,8.1833048 45 0 0 14.56618,2.993502 12.416049,8.1833048 45 0 0 -2.99177,-14.566177 12.416049,8.1833048 45 0 0 -10.49724,-4.710032 z m -41.60673,42.709965 a 12.416049,8.1833048 45 0 0 -4.06894,1.71653 12.416049,8.1833048 45 0 0 2.99351,14.566177 12.416049,8.1833048 45 0 0 14.56444,2.993503 12.416049,8.1833048 45 0 0 -2.99177,-14.566178 12.416049,8.1833048 45 0 0 -10.49724,-4.710032 z m 81.42918,0 a 12.416049,8.1833048 45 0 0 -4.06894,1.71653 12.416049,8.1833048 45 0 0 2.9935,14.566177 12.416049,8.1833048 45 0 0 11.52229,4.458113 c -6.1e-4,-5.35736 6.3e-4,-10.751965 0,-16.072485 a 12.416049,8.1833048 45 0 0 -10.44685,-4.668335 z m -39.82245,42.574454 a 12.416049,8.1833048 45 0 0 -4.06894,1.71653 12.416049,8.1833048 45 0 0 2.99177,14.56617 12.416049,8.1833048 45 0 0 14.56618,2.99351 12.416049,8.1833048 45 0 0 -2.99177,-14.56618 12.416049,8.1833048 45 0 0 -10.49724,-4.71003 z m -41.60673,42.56228 a 12.416049,8.1833048 45 0 0 -4.06894,1.71827 12.416049,8.1833048 45 0 0 2.99351,14.56618 12.416049,8.1833048 45 0 0 14.56444,2.99176 12.416049,8.1833048 45 0 0 -2.99177,-14.56617 12.416049,8.1833048 45 0 0 -10.49724,-4.71004 z m 81.42918,0 a 12.416049,8.1833048 45 0 0 -4.06894,1.71827 12.416049,8.1833048 45 0 0 2.9935,14.56618 12.416049,8.1833048 45 0 0 11.52229,4.55714 c 5e-5,-5.48285 1.5e-4,-10.6943 0,-16.17325 a 12.416049,8.1833048 45 0 0 -10.44685,-4.66834 z m -39.82245,42.83332 a 12.416049,8.1833048 45 0 0 -4.06894,1.71653 12.416049,8.1833048 45 0 0 2.99177,14.56618 12.416049,8.1833048 45 0 0 14.56618,2.9935 12.416049,8.1833048 45 0 0 -2.99177,-14.56617 12.416049,8.1833048 45 0 0 -10.49724,-4.71004 z"
         transform="translate(0,85.395643)" />
    </g>
    <path
       id="path9"
       style="height:512px;width:512px;stroke:none;stroke-width:15;stroke-linecap:round;stroke-linejoin:round;stroke-dasharray:none;stroke-opacity:1;paint-order:markers stroke fill;display:inline;fill:#000000;fill-opacity:0.40000001"
       inkscape:label="shadow"
       d="M 245.83829 61.771508 C 257.79528 62.327836 269.27277 63.781636 278.6973 66.160981 C 283.8265 67.455783 288.22999 69.003492 291.80675 70.764214 A 7.50075 7.50075 0 0 1 295.59917 76.350258 A 7.50075 7.50075 0 0 1 300.97759 82.780288 L 300.97759 82.782746 C 300.98259 166.3571 301.00882 259.04036 300.97882 347.00493 A 7.50075 7.50075 0 0 1 299.26259 351.59342 A 7.50075 7.50075 0 0 1 300.97882 354.9706 L 300.97882 395.73999 A 7.50075 7.50075 0 0 1 300.62255 396.85548 A 7.50075 7.50075 0 0 1 303.71471 400.69458 L 307.88183 415.53746 A 7.50075 7.50075 0 0 1 303.66189 424.43803 C 294.15696 428.59124 284.5315 431.85452 274.87294 434.30052 A 7.50075 7.50075 0 0 1 274.58916 434.50814 C 265.10452 437.6016 255.07647 438.75031 245.01888 439.51555 C 248.19551 439.75882 251.37518 439.96517 254.5423 440.17895 A 7.50075 7.50075 0 0 0 255.06933 439.99099 A 7.50075 7.50075 0 0 0 255.59391 440.17895 C 268.79462 439.28791 282.22705 438.58183 294.71709 434.50814 A 7.50075 7.50075 0 0 0 295.00088 434.30052 C 304.65944 431.85452 314.2849 428.59124 323.78983 424.43803 A 7.50075 7.50075 0 0 0 328.00976 415.53746 L 323.84265 400.69458 A 7.50075 7.50075 0 0 0 320.75049 396.85548 A 7.50075 7.50075 0 0 0 321.10676 395.73999 L 321.10676 354.9706 A 7.50075 7.50075 0 0 0 319.39053 351.59342 A 7.50075 7.50075 0 0 0 321.10676 347.00493 C 321.13676 259.04036 321.11176 166.35588 321.10676 82.781517 A 7.50075 7.50075 0 0 0 315.7271 76.350258 A 7.50075 7.50075 0 0 0 311.93469 70.764214 C 308.35793 69.003492 303.95444 67.455783 298.82524 66.160981 C 286.52867 63.056552 270.75005 61.496002 254.95017 61.500007 L 254.94894 61.498778 A 7.50075 7.50075 0 0 0 254.94771 61.500007 C 251.88598 61.501065 248.8647 61.648473 245.83829 61.771508 z " />
    <path
       id="path12"
       style="height:512px;width:512px;stroke:none;stroke-width:15;stroke-linecap:round;stroke-linejoin:round;stroke-dasharray:none;stroke-opacity:1;paint-order:markers stroke fill;fill:#ffffff;fill-opacity:0.40000001;display:inline"
       inkscape:label="highlight"
       d="M 195.58479 73.410429 A 7.50075 7.50075 0 0 0 194.49756 76.755667 A 7.50075 7.50075 0 0 0 189.60685 83.123043 L 189.60808 348.50494 A 7.50075 7.50075 0 0 0 191.40662 353.12906 A 7.50075 7.50075 0 0 0 189.60808 356.63032 L 189.60808 396.66752 A 7.50075 7.50075 0 0 0 190.37099 399.14542 A 7.50075 7.50075 0 0 0 187.84885 402.46363 L 184.6928 416.07923 A 7.50075 7.50075 0 0 0 188.68424 424.50068 C 197.43429 428.8163 206.53483 432.18018 215.86875 434.63345 C 228.23118 438.57841 241.49468 439.29824 254.5423 440.17895 A 7.50075 7.50075 0 0 0 255.06933 439.99099 A 7.50075 7.50075 0 0 0 255.59391 440.17895 C 258.77275 439.96438 261.96479 439.75828 265.15419 439.51555 C 255.24114 438.75663 245.35979 437.62046 235.99546 434.63222 C 226.66154 432.17895 217.56223 428.8163 208.81218 424.50068 A 7.50075 7.50075 0 0 1 204.82074 416.07923 L 207.97679 402.46363 A 7.50075 7.50075 0 0 1 210.49892 399.14542 A 7.50075 7.50075 0 0 1 209.73602 396.66752 L 209.73602 356.63032 A 7.50075 7.50075 0 0 1 211.53456 353.12906 A 7.50075 7.50075 0 0 1 209.73479 348.50617 L 209.73479 83.123043 A 7.50075 7.50075 0 0 1 214.62549 76.755667 A 7.50075 7.50075 0 0 1 218.20661 70.928835 C 221.75596 69.106432 226.18816 67.510968 231.40697 66.17818 C 236.63725 64.841746 242.49541 63.827444 248.71301 63.066359 A 7.50075 7.50075 0 0 1 248.84323 63.095844 A 7.50075 7.50075 0 0 1 248.92186 63.044246 C 254.36657 62.38322 260.13894 62.007491 265.98712 61.770279 C 262.33697 61.600134 258.64707 61.49907 254.95017 61.500007 L 254.94894 61.498778 A 7.50075 7.50075 0 0 0 254.94771 61.500007 C 245.97685 61.503107 237.04991 62.041911 228.79392 63.044246 A 7.50075 7.50075 0 0 0 228.71652 63.097072 A 7.50075 7.50075 0 0 0 228.5863 63.067588 C 222.3687 63.828673 216.50931 64.841746 211.27903 66.17818 C 206.06022 67.510968 201.62925 69.105203 198.0799 70.927606 A 7.50075 7.50075 0 0 0 195.58479 73.410429 z " />
    <path
       id="path24"
       style="height:512px;width:512px;stroke:none;stroke-width:15;stroke-linecap:round;stroke-linejoin:round;stroke-dasharray:none;stroke-opacity:1;paint-order:markers stroke fill;display:inline"
       inkscape:label="outline"
       d="M 195.58479 73.410429 A 7.50075 7.50075 0 0 0 194.49756 76.755667 A 7.50075 7.50075 0 0 0 189.60685 83.123043 L 189.60808 348.50494 A 7.50075 7.50075 0 0 0 191.40662 353.12906 A 7.50075 7.50075 0 0 0 189.60808 356.63032 L 189.60808 396.66752 A 7.50075 7.50075 0 0 0 190.37099 399.14542 A 7.50075 7.50075 0 0 0 187.84885 402.46363 L 184.6928 416.07923 A 7.50075 7.50075 0 0 0 188.68424 424.50068 C 197.43429 428.8163 206.53483 432.18018 215.86875 434.63345 C 228.23118 438.57841 241.49468 439.29824 254.5423 440.17895 A 7.50075 7.50075 0 0 0 255.06933 439.99099 A 7.50075 7.50075 0 0 0 255.59391 440.17895 C 268.79462 439.28791 282.22705 438.58183 294.71709 434.50814 A 7.50075 7.50075 0 0 0 295.00088 434.30052 C 304.65944 431.85452 314.2849 428.59124 323.78983 424.43803 A 7.50075 7.50075 0 0 0 328.00976 415.53746 L 323.84265 400.69458 A 7.50075 7.50075 0 0 0 320.75049 396.85548 A 7.50075 7.50075 0 0 0 321.10676 395.73999 L 321.10676 354.9706 A 7.50075 7.50075 0 0 0 319.39053 351.59342 A 7.50075 7.50075 0 0 0 321.10676 347.00493 C 321.13676 259.04036 321.11176 166.35588 321.10676 82.781517 A 7.50075 7.50075 0 0 0 315.7271 76.350258 A 7.50075 7.50075 0 0 0 311.93469 70.764214 C 308.35793 69.003492 303.95444 67.455783 298.82524 66.160981 C 286.52867 63.056552 270.75005 61.496002 254.95017 61.500007 L 254.94894 61.498778 A 7.50075 7.50075 0 0 0 254.94771 61.500007 C 245.97685 61.503107 237.04991 62.041911 228.79392 63.044246 A 7.50075 7.50075 0 0 0 228.71652 63.097072 A 7.50075 7.50075 0 0 0 228.5863 63.067588 C 222.3687 63.828673 216.50931 64.841746 211.27903 66.17818 C 206.06022 67.510968 201.62925 69.105203 198.0799 70.927606 A 7.50075 7.50075 0 0 0 195.58479 73.410429 z M 201.50622 77.599654 C 204.33222 76.148654 208.34908 74.665599 213.13408 73.443599 C 217.93608 72.216599 223.51786 71.244369 229.49786 70.512369 L 243.10731 79.151265 L 210.78394 80.884695 A 166.702 166.702 0 0 1 201.50622 77.599654 z M 197.10814 83.123043 C 229.72479 95.109914 267.52337 98.385172 313.60669 82.782746 C 313.60797 104.14218 313.60405 127.99108 313.60669 150.30913 A 28.465203 28.465203 0 0 0 313.60792 150.31035 C 313.60808 151.4099 313.60782 152.53606 313.60792 153.63716 C 313.60855 158.95768 313.60731 164.3512 313.60792 169.70856 C 313.61041 191.57704 313.60715 213.09722 313.60792 235.316 A 28.465203 28.465203 0 0 0 313.60915 235.31723 C 313.60919 236.4876 313.60788 237.61089 313.60792 238.77303 C 313.60807 244.25198 313.60797 249.46231 313.60792 254.94516 C 313.60765 286.15315 313.61837 316.35546 313.60792 347.00247 C 271.23792 361.79247 232.79814 362.35417 197.10814 348.50617 L 197.10814 279.86675 L 197.10814 233.60346 L 197.10814 194.72843 L 197.10814 148.46513 L 197.10814 83.123043 z M 211.32203 81.054229 L 243.28913 82.043181 L 234.82837 86.408084 C 226.68037 85.288083 218.88203 83.451229 211.32203 81.054229 z M 229.69688 70.490256 C 237.62888 69.527256 246.27894 69.003071 254.94894 69.000071 L 254.95139 69.000071 C 270.23839 68.996071 285.61938 70.561314 296.98738 73.431314 C 301.70538 74.622314 305.70762 76.059002 308.62262 77.494002 C 294.56962 82.375002 281.61083 85.327525 269.49083 86.711526 L 261.863 81.815907 L 293.03158 79.863801 L 263.84705 78.925218 L 278.75135 70.659791 L 252.69339 77.862556 L 229.69688 70.490256 z M 238.85912 86.900717 L 252.05334 83.220096 L 265.08785 87.148877 C 255.89985 87.923875 247.19312 87.788717 238.85912 86.900717 z M 197.10814 356.62909 C 233.47814 368.97209 272.67792 368.1006 313.60792 354.9706 L 313.60792 395.73999 C 271.23592 410.37299 232.79692 410.74152 197.10692 396.66752 L 197.10814 356.62909 z M 195.15604 404.15652 C 232.95304 417.72352 273.85569 416.88685 316.62269 402.72285 L 320.78857 417.5645 C 276.99657 436.6995 230.88799 436.95458 191.99999 417.77458 L 195.15604 404.15652 z " />
  </g>
</svg>
