<?xml version="1.0" encoding="UTF-8" standalone="no"?>
<svg
   style="height: 512px; width: 512px;"
   viewBox="0 0 512 512"
   version="1.1"
   id="svg2"
   sodipodi:docname="shotgun-slug.svg"
   inkscape:version="1.4 (86a8ad7, 2024-10-11)"
   xmlns:inkscape="http://www.inkscape.org/namespaces/inkscape"
   xmlns:sodipodi="http://sodipodi.sourceforge.net/DTD/sodipodi-0.dtd"
   xmlns="http://www.w3.org/2000/svg"
   xmlns:svg="http://www.w3.org/2000/svg">
  <defs
     id="defs2">
    <filter
       style="color-interpolation-filters:sRGB;"
       inkscape:label="Drop Shadow"
       id="filter12"
       x="-0.50072986"
       y="-0.1904667"
       width="2.0014597"
       height="1.3809334">
      <feFlood
         result="flood"
         in="SourceGraphic"
         flood-opacity="0.533333"
         flood-color="rgb(51,51,51)"
         id="feFlood11" />
      <feGaussianBlur
         result="blur"
         in="SourceGraphic"
         stdDeviation="30.000000"
         id="feGaussianBlur11" />
      <feOffset
         result="offset"
         in="blur"
         dx="0.000000"
         dy="0.000000"
         id="feOffset11" />
      <feComposite
         result="comp1"
         operator="out"
         in="flood"
         in2="offset"
         id="feComposite11" />
      <feComposite
         result="comp2"
         operator="atop"
         in="comp1"
         in2="SourceGraphic"
         id="feComposite12" />
    </filter>
  </defs>
  <sodipodi:namedview
     id="namedview2"
     pagecolor="#505050"
     bordercolor="#ffffff"
     borderopacity="1"
     inkscape:showpageshadow="0"
     inkscape:pageopacity="0"
     inkscape:pagecheckerboard="1"
     inkscape:deskcolor="#505050"
     inkscape:zoom="1.5761719"
     inkscape:cx="255.68277"
     inkscape:cy="254.09665"
     inkscape:window-width="1920"
     inkscape:window-height="1009"
     inkscape:window-x="-8"
     inkscape:window-y="-8"
     inkscape:window-maximized="1"
     inkscape:current-layer="svg2"
     showguides="true">
    <sodipodi:guide
       position="255.04832,435.86617"
       orientation="1,0"
       id="guide13"
       inkscape:locked="false" />
  </sodipodi:namedview>
  <path
     d="M0 0h512v512H0z"
     fill="#000"
     fill-opacity="1"
     id="path1"
     style="fill:#1b1f21"
     inkscape:label="background" />
  <g
     id="g13"
     style="stroke:#000000;stroke-width:15;stroke-linecap:round;stroke-linejoin:round;stroke-dasharray:none;stroke-opacity:1;paint-order:markers stroke fill;filter:url(#filter12)"
     inkscape:label="shotgun-slug"
     transform="matrix(0.79491502,0.79491502,-0.79491502,0.79491502,253.87165,-148.39687)">
    <g
       id="g1"
       inkscape:label="base"
       style="height:512px;width:512px;stroke:#000000;stroke-width:15;stroke-linecap:round;stroke-linejoin:round;stroke-dasharray:none;stroke-opacity:1;paint-order:markers stroke fill">
      <path
         style="height:512px;width:512px;stroke:none;stroke-width:15;stroke-linecap:round;stroke-linejoin:round;stroke-dasharray:none;stroke-opacity:1;paint-order:markers stroke fill;display:inline;fill:#e69b39"
         d="m 313.60742,354.9707 c -40.93,13.13 -80.13,14.00121 -116.5,1.65821 v 40.03906 c 35.69,14.074 74.128,13.70526 116.5,-0.92774 z m 3.01563,47.75196 c -42.767,14.164 -83.6698,15.00059 -121.4668,1.43359 L 192,417.77344 c 38.888,19.18 84.99706,18.92601 128.78906,-0.20899 z"
         id="path10"
         inkscape:label="brass" />
      <path
         style="height:512px;width:512px;stroke:none;stroke-width:15;stroke-linecap:round;stroke-linejoin:round;stroke-dasharray:none;stroke-opacity:1;paint-order:markers stroke fill;display:inline;fill:#923c45"
         d="m 254.94922,69 c -8.67,0.003 -17.31995,0.527234 -25.25195,1.490234 l 22.99609,7.373047 26.05859,-7.203125 -14.90429,8.265625 29.18359,0.9375 -31.16797,1.953125 7.62695,4.894532 c 12.12,-1.384001 25.07982,-4.335797 39.13282,-9.216797 -2.915,-1.435 -6.91677,-2.8715 -11.63477,-4.0625 C 285.62028,70.561641 270.23817,68.996 254.95117,69 Z m -25.45117,1.511719 c -5.98,0.732 -11.56128,1.70464 -16.36328,2.93164 -4.785,1.222 -8.80291,2.70525 -11.62891,4.15625 a 166.702,166.702 0 0 0 9.27734,3.285157 l 32.32422,-1.734375 z m -18.17578,10.542969 c 7.56,2.397 15.35785,4.233514 23.50585,5.353515 l 8.46094,-4.365234 z m 102.28515,1.726562 c -46.084,15.603 -83.883,12.328797 -116.5,0.341797 V 348.50586 c 35.69,13.848 74.13,13.28609 116.5,-1.50391 0.03,-87.962 0.005,-180.64275 0,-264.218747 z m -61.55469,0.439453 -13.19335,3.679688 c 8.334,0.888 17.04051,1.023045 26.22851,0.248047 z"
         id="path14"
         inkscape:label="plastic" />
    </g>
    <path
       id="path3"
       style="height:512px;width:512px;stroke:none;stroke-width:15;stroke-linecap:round;stroke-linejoin:round;stroke-dasharray:none;stroke-opacity:1;paint-order:markers stroke fill;display:inline;fill:#000000;fill-opacity:0.40000001"
       inkscape:label="shadow"
       d="M 245.85336 61.771395 C 257.80499 62.327786 269.27563 63.781243 278.6964 66.15964 C 283.8262 67.454594 288.23239 69.005054 291.80831 70.76533 A 7.50075 7.50075 0 0 1 295.60072 76.351374 A 7.50075 7.50075 0 0 1 300.97915 82.781405 L 300.97915 82.783862 C 300.98415 166.35869 301.01038 259.03836 300.98038 347.00358 A 7.50075 7.50075 0 0 1 299.74449 350.86848 A 7.50075 7.50075 0 0 1 300.97915 354.97048 L 300.97915 395.73988 A 7.50075 7.50075 0 0 1 300.62165 396.85414 A 7.50075 7.50075 0 0 1 303.71627 400.69569 L 307.88215 415.53735 A 7.50075 7.50075 0 0 1 303.66467 424.43791 C 284.12456 432.97605 264.03174 437.89612 244.21576 439.16408 C 270.40177 440.841 297.59237 435.8862 323.79261 424.43791 A 7.50075 7.50075 0 0 0 328.01009 415.53735 L 323.84421 400.69569 A 7.50075 7.50075 0 0 0 320.74959 396.85414 A 7.50075 7.50075 0 0 0 321.10708 395.73988 L 321.10708 354.97048 A 7.50075 7.50075 0 0 0 319.87243 350.86848 A 7.50075 7.50075 0 0 0 321.10831 347.00358 C 321.13831 259.03836 321.11208 166.3587 321.10708 82.783862 L 321.10708 82.781405 A 7.50075 7.50075 0 0 0 315.72866 76.351374 A 7.50075 7.50075 0 0 0 311.93624 70.76533 C 308.36032 69.005054 303.95414 67.454594 298.82434 66.15964 C 286.52766 63.055182 270.75023 61.495889 254.95049 61.499894 L 254.94927 61.501123 A 7.50075 7.50075 0 0 0 254.94804 61.499894 C 251.89164 61.50095 248.875 61.648636 245.85336 61.771395 z " />
    <path
       id="path7"
       style="height:512px;width:512px;stroke:none;stroke-width:15;stroke-linecap:round;stroke-linejoin:round;stroke-dasharray:none;stroke-opacity:1;paint-order:markers stroke fill;display:inline;fill:#ffffff;fill-opacity:0.40000001"
       inkscape:label="highlight"
       d="M 195.58512 73.410316 A 7.50075 7.50075 0 0 0 194.49543 76.755554 A 7.50075 7.50075 0 0 0 189.60718 83.122931 L 189.60718 348.50605 A 7.50075 7.50075 0 0 0 190.89712 352.67071 A 7.50075 7.50075 0 0 0 189.60718 356.62897 L 189.60718 396.66863 A 7.50075 7.50075 0 0 0 190.37131 399.14531 A 7.50075 7.50075 0 0 0 187.84918 402.46352 L 184.69313 416.07912 A 7.50075 7.50075 0 0 0 188.68211 424.50057 C 212.10176 436.0514 237.97709 440.8512 264.3437 439.16408 C 245.01478 437.92629 226.23045 433.0925 208.81005 424.50057 A 7.50075 7.50075 0 0 1 204.82107 416.07912 L 207.97712 402.46352 A 7.50075 7.50075 0 0 1 210.49925 399.14531 A 7.50075 7.50075 0 0 1 209.73512 396.66863 L 209.73512 356.62897 A 7.50075 7.50075 0 0 1 211.02505 352.67071 A 7.50075 7.50075 0 0 1 209.73512 348.50605 L 209.73512 83.122931 A 7.50075 7.50075 0 0 1 214.62337 76.755554 A 7.50075 7.50075 0 0 1 215.71306 73.410316 A 7.50075 7.50075 0 0 1 218.20816 70.927494 C 221.75626 69.105735 226.18779 67.508573 231.40729 66.17561 L 231.40484 66.178067 C 236.63629 64.841337 242.49666 63.827218 248.71334 63.066247 A 7.50075 7.50075 0 0 1 248.84356 63.095731 A 7.50075 7.50075 0 0 1 248.92096 63.045362 C 254.36373 62.384571 260.13493 62.008958 265.9813 61.771395 C 262.33279 61.601544 258.64569 61.498958 254.95049 61.499894 L 254.94927 61.501123 A 7.50075 7.50075 0 0 0 254.94804 61.499894 C 245.97744 61.502994 237.04935 62.042986 228.79302 63.045362 A 7.50075 7.50075 0 0 0 228.71562 63.095731 A 7.50075 7.50075 0 0 0 228.5854 63.066247 C 222.36872 63.827218 216.50835 64.841337 211.2769 66.178067 L 211.27936 66.17561 C 206.05986 67.508573 201.62832 69.105735 198.08022 70.927494 A 7.50075 7.50075 0 0 0 195.58512 73.410316 z " />
    <path
       id="path5"
       style="height:512px;width:512px;stroke:none;stroke-width:15;stroke-linecap:round;stroke-linejoin:round;stroke-dasharray:none;stroke-opacity:1;paint-order:markers stroke fill;display:inline"
       inkscape:label="stroke"
       d="M 195.58512 73.410316 A 7.50075 7.50075 0 0 0 194.49543 76.755554 A 7.50075 7.50075 0 0 0 189.60718 83.122931 L 189.60718 348.50605 A 7.50075 7.50075 0 0 0 190.89712 352.67071 A 7.50075 7.50075 0 0 0 189.60718 356.62897 L 189.60718 396.66863 A 7.50075 7.50075 0 0 0 190.37131 399.14531 A 7.50075 7.50075 0 0 0 187.84918 402.46352 L 184.69313 416.07912 A 7.50075 7.50075 0 0 0 188.68211 424.50057 C 229.70294 444.7325 278.25295 444.33663 323.79261 424.43791 A 7.50075 7.50075 0 0 0 328.01009 415.53735 L 323.84421 400.69569 A 7.50075 7.50075 0 0 0 320.74959 396.85414 A 7.50075 7.50075 0 0 0 321.10708 395.73988 L 321.10708 354.97048 A 7.50075 7.50075 0 0 0 319.87243 350.86848 A 7.50075 7.50075 0 0 0 321.10831 347.00358 C 321.13831 259.03836 321.11208 166.3587 321.10708 82.783862 L 321.10708 82.781405 A 7.50075 7.50075 0 0 0 315.72866 76.351374 A 7.50075 7.50075 0 0 0 311.93624 70.76533 C 308.36032 69.005054 303.95414 67.454594 298.82434 66.15964 C 286.52766 63.055182 270.75023 61.495889 254.95049 61.499894 L 254.94927 61.501123 A 7.50075 7.50075 0 0 0 254.94804 61.499894 C 245.97744 61.502994 237.04935 62.042986 228.79302 63.045362 A 7.50075 7.50075 0 0 0 228.71562 63.095731 A 7.50075 7.50075 0 0 0 228.5854 63.066247 C 222.36872 63.827218 216.50835 64.841337 211.2769 66.178067 L 211.27936 66.17561 C 206.05986 67.508573 201.62832 69.105735 198.08022 70.927494 A 7.50075 7.50075 0 0 0 195.58512 73.410316 z M 201.50654 77.599542 C 204.33254 76.148542 208.34941 74.665486 213.13441 73.443486 C 217.93641 72.216486 223.51819 71.244257 229.49819 70.512257 L 243.10764 79.151152 L 210.78304 80.885811 A 166.702 166.702 0 0 1 201.50654 77.599542 z M 197.10847 83.122931 C 229.72512 95.109802 267.52369 98.385059 313.60702 82.782633 C 313.61202 166.35863 313.63702 259.03913 313.60702 347.00113 C 271.23702 361.79113 232.79724 362.35283 197.10724 348.50483 L 197.10847 83.122931 z M 211.32235 81.054117 L 243.28946 82.043069 L 234.8287 86.407971 C 226.6807 85.28797 218.88235 83.451117 211.32235 81.054117 z M 229.69721 70.490144 C 237.62921 69.527144 246.27927 69.002959 254.94927 68.999959 L 254.95172 68.999959 C 262.59522 68.997959 270.26128 69.388 277.4384 70.137561 C 284.61553 70.887121 291.30371 71.996201 296.98771 73.431201 C 299.34671 74.026701 301.52571 74.683599 303.4804 75.371021 C 305.43508 76.058444 307.16545 76.77639 308.62295 77.49389 C 298.08267 81.154821 288.15791 83.730852 278.74063 85.373565 C 275.60167 85.921139 272.51993 86.364185 269.48993 86.710185 L 261.86333 81.815794 L 293.0319 79.863689 L 263.84738 78.925106 L 278.75168 70.659678 L 252.69372 77.862443 L 229.69721 70.490144 z M 238.85945 86.900605 L 252.05243 83.221212 L 265.08817 87.148764 C 255.90017 87.923762 247.19345 87.788605 238.85945 86.900605 z M 197.10847 356.62897 C 233.47847 368.97197 272.67825 368.10048 313.60825 354.97048 L 313.60825 395.73988 C 271.23625 410.37288 232.79724 410.7414 197.10724 396.6674 L 197.10847 356.62897 z M 195.15637 404.15641 C 232.95337 417.72341 273.85602 416.88674 316.62302 402.72274 L 320.7889 417.56439 C 276.9969 436.69939 230.88709 436.95324 191.99909 417.77324 L 195.15637 404.15641 z " />
  </g>
</svg>
