<?xml version="1.0" encoding="UTF-8" standalone="no"?>
<svg
   style="height: 512px; width: 512px;"
   viewBox="0 0 512 512"
   version="1.1"
   id="svg2"
   sodipodi:docname="ballistic-harpoon.svg"
   inkscape:version="1.4 (86a8ad7, 2024-10-11)"
   xmlns:inkscape="http://www.inkscape.org/namespaces/inkscape"
   xmlns:sodipodi="http://sodipodi.sourceforge.net/DTD/sodipodi-0.dtd"
   xmlns="http://www.w3.org/2000/svg"
   xmlns:svg="http://www.w3.org/2000/svg">
  <defs
     id="defs2">
    <filter
       style="color-interpolation-filters:sRGB;"
       inkscape:label="Drop Shadow"
       id="filter3"
       x="-0.076170486"
       y="-0.076009341"
       width="1.152341"
       height="1.1520187">
      <feFlood
         result="flood"
         in="SourceGraphic"
         flood-opacity="1.000000"
         flood-color="rgb(58,63,94)"
         id="feFlood2" />
      <feGaussianBlur
         result="blur"
         in="SourceGraphic"
         stdDeviation="15.000000"
         id="feGaussianBlur2" />
      <feOffset
         result="offset"
         in="blur"
         dx="0.000000"
         dy="0.000000"
         id="feOffset2" />
      <feComposite
         result="comp1"
         operator="out"
         in="flood"
         in2="offset"
         id="feComposite2" />
      <feComposite
         result="comp2"
         operator="atop"
         in="comp1"
         in2="SourceGraphic"
         id="feComposite3" />
    </filter>
  </defs>
  <sodipodi:namedview
     id="namedview2"
     pagecolor="#505050"
     bordercolor="#ffffff"
     borderopacity="1"
     inkscape:showpageshadow="0"
     inkscape:pageopacity="0"
     inkscape:pagecheckerboard="1"
     inkscape:deskcolor="#505050"
     inkscape:zoom="1.5761719"
     inkscape:cx="255.68278"
     inkscape:cy="256"
     inkscape:window-width="1920"
     inkscape:window-height="1009"
     inkscape:window-x="-8"
     inkscape:window-y="-8"
     inkscape:window-maximized="1"
     inkscape:current-layer="svg2" />
  <path
     d="M0 0h512v512H0z"
     fill="#1b1f21"
     fill-opacity="1"
     id="path1" />
  <g
     class=""
     style="fill:#e64539;filter:url(#filter3)"
     transform="translate(0,0)"
     id="g2">
    <path
       d="M19.656 20.688v36.437L73.5 110.97c6.515-14.93 17.988-27.23 32.313-34.814L50.25 20.686l-30.594.002zm119.47 65.906c-29.312 0-52.876 23.533-52.876 52.844a52.75 52.75 0 0 0 31.406 48.375c1.88-37.477 32.825-67.482 70.656-67.907-7.734-19.565-26.786-33.312-49.187-33.312zm213.843 44.25L312.06 145.47l97.032 253.436 7.5 19.625L397 410.97l-253.28-97.533-14.345 40.97L492.28 494.312l-139.31-363.47zm-163.845 7.72a52.736 52.736 0 0 0-52.875 52.874c0 24.35 16.282 44.705 38.594 50.906 2.935-34.576 30.61-62.252 65.187-65.188-6.2-22.312-26.553-38.594-50.905-38.594zm113.5 34.53L278.75 273.688l-1.344 5.625-5.625 1.312-100.124 23.53L384.156 386l-81.53-212.906zm-56.5 22.47a52.736 52.736 0 0 0-52.875 52.874c0 10.896 3.28 20.983 8.875 29.375l59.78-14.063 14.033-59.03c-8.473-5.784-18.724-9.157-29.813-9.157z"
       fill="#fff"
       fill-opacity="1"
       id="path2"
       style="fill:#e64539" />
  </g>
</svg>
