<?xml version="1.0" encoding="UTF-8" standalone="no"?>
<svg
   enable-background="new 0 0 143.3534 236.9906"
   xml:space="preserve"
   width="512"
   height="512"
   version="1.1"
   id="svg3"
   sodipodi:docname="linearframe_omega.svg"
   inkscape:version="1.4 (86a8ad7, 2024-10-11)"
   xmlns:inkscape="http://www.inkscape.org/namespaces/inkscape"
   xmlns:sodipodi="http://sodipodi.sourceforge.net/DTD/sodipodi-0.dtd"
   xmlns="http://www.w3.org/2000/svg"
   xmlns:svg="http://www.w3.org/2000/svg"><sodipodi:namedview
     id="namedview3"
     pagecolor="#505050"
     bordercolor="#eeeeee"
     borderopacity="1"
     inkscape:showpageshadow="0"
     inkscape:pageopacity="0"
     inkscape:pagecheckerboard="0"
     inkscape:deskcolor="#505050"
     inkscape:zoom="0.78710938"
     inkscape:cx="154.36228"
     inkscape:cy="381.77667"
     inkscape:window-width="1920"
     inkscape:window-height="1009"
     inkscape:window-x="1912"
     inkscape:window-y="-8"
     inkscape:window-maximized="1"
     inkscape:current-layer="svg3" /><defs
     id="defs2"><filter
       style="color-interpolation-filters:sRGB"
       id="a"
       x="-0.048650596"
       y="-0.049515767"
       width="1.0973012"
       height="1.0990315"><feFlood
         flood-opacity="1"
         flood-color="#3A3F5E"
         result="flood"
         id="feFlood1" /><feComposite
         in="flood"
         in2="SourceGraphic"
         operator="out"
         result="composite1"
         id="feComposite1" /><feGaussianBlur
         in="composite1"
         stdDeviation="9.785"
         result="blur"
         id="feGaussianBlur1" /><feOffset
         result="offset"
         id="feOffset1" /><feComposite
         in="offset"
         in2="SourceGraphic"
         operator="atop"
         result="composite2"
         id="feComposite2" /></filter><filter
       style="color-interpolation-filters:sRGB;"
       inkscape:label="Drop Shadow"
       id="filter4"
       x="-0.074579351"
       y="-0.075905622"
       width="1.1491587"
       height="1.1518112"><feFlood
         result="flood"
         in="SourceGraphic"
         flood-opacity="1.000000"
         flood-color="rgb(58,63,94)"
         id="feFlood2" /><feGaussianBlur
         result="blur"
         in="SourceGraphic"
         stdDeviation="15.000000"
         id="feGaussianBlur2" /><feOffset
         result="offset"
         in="blur"
         dx="0.000000"
         dy="0.000000"
         id="feOffset2" /><feComposite
         result="comp1"
         operator="out"
         in="flood"
         in2="offset"
         id="feComposite3" /><feComposite
         result="comp2"
         operator="atop"
         in="comp1"
         in2="SourceGraphic"
         id="feComposite4" /></filter></defs><path
     d="M0 0h512v512H0Z"
     fill="#b90202"
     style="fill:#1b1f21;fill-opacity:1;stroke:#1b1f21;stroke-opacity:1"
     id="path2"
     inkscape:label="path1" /><g
     style="fill:#e64539;stroke:none;stroke-width:4.8840494;stroke-miterlimit:4;stroke-dasharray:none;stroke-opacity:1;filter:url(#filter4)"
     id="g3"><path
       style="fill:#e64539;fill-opacity:1;stroke:none;stroke-width:5.00001;stroke-miterlimit:4;stroke-dasharray:none;stroke-opacity:1"
       d="m 100.39,19.004 c -5.89446,3.24e-4 -9.589579,6.368238 -6.665,11.486 l 2.795,4.893 h -20.7 c -13.265,0 -24.056,10.793 -24.056,24.058 0,8.49 4.422,15.96 11.082,20.243 L 49.33,133.746 c -12.37,0.983 -22.137,11.356 -22.137,23.975 0,10.581 6.87,19.582 16.381,22.795 v 44.5 c -9.51,3.212 -16.38,12.213 -16.38,22.795 v 6.378 l -7.38,14.758 c -0.91089,1.82142 -1.06054,3.93019 -0.416,5.862 l 8.19,24.57 c 1.342255,4.02219 5.690229,6.1955 9.713,4.855 4.02179,-1.34093 6.195331,-5.68801 4.855,-9.71 l -7.183,-21.553 4.644,-9.293 h 23.268 l 4.646,9.29 -7.185,21.553 c -1.340327,4.02335 0.834013,8.37158 4.857,9.713 0.783377,0.26216 1.60392,0.39622 2.43,0.397 3.304509,-0.002 6.237411,-2.11727 7.283,-5.252 l 8.19,-24.57 c 0.643365,-1.93214 0.49301,-4.0407 -0.418,-5.862 l -7.38,-14.76 v -6.378 c 0,-10.582 -6.868,-19.58 -16.378,-22.793 v -44.502 c 9.51,-3.213 16.379,-12.214 16.379,-22.795 0,-8.49 -4.423,-15.96 -11.082,-20.242 L 77.72,83.498 h 46.295 l 2.468,4.322 c 1.36726,2.392996 3.91195,3.86989 6.668,3.87 h 33.27 v 17.402 h -8.701 c -13.266,0 -24.059,10.793 -24.059,24.058 0,10.582 6.87,19.583 16.381,22.795 v 109.688 c -14.086,3.454 -24.57,16.182 -24.57,31.318 0,12.13 6.735,22.71 16.658,28.215 l 7.246,86.965 c -2.64048,0.0507 -5.06939,1.45549 -6.43,3.719 l -24.57,40.949 c -3.06824,5.11783 0.6169,11.62671 6.584,11.629 h 8.701 v 9.213 h -16.89 c -4.27443,-0.0488 -7.76562,3.4028 -7.76562,7.6775 0,4.2747 3.49119,7.72628 7.76562,7.6775 h 81.898 c 4.27443,0.0488 7.76562,-3.4028 7.76562,-7.6775 0,-4.2747 -3.49119,-7.72628 -7.76562,-7.6775 h -16.89 v -9.213 h 8.7 c 4.24044,0 7.678,-3.43756 7.678,-7.678 v -40.951 c 0,-4.24044 -3.43756,-7.678 -7.678,-7.678 h -0.511 V 304.627 h 16.89 c 4.24077,0 7.6789,-3.43723 7.68,-7.678 -0.001,-4.24077 -3.43923,-7.678 -7.68,-7.678 h -16.89 v -16.13 l 23.185,-115.932 h 10.086 c 6.32952,0.004 9.94352,-7.22349 6.143,-12.285 l -9.215,-12.285 h 16.22 l 6.155,9.847 c 2.88706,4.65354 7.98066,7.47723 13.457,7.46 5.47589,0.0175 10.56932,-2.80537 13.457,-7.458 l 6.156,-9.85 h 16.217 l -9.213,12.286 c -3.80052,5.06151 -0.18652,12.28892 6.143,12.285 h 10.084 l 23.187,115.932 v 16.13 h -16.89 c -4.24045,0 -7.678,3.43756 -7.678,7.678 0,4.24044 3.43755,7.678 7.678,7.678 h 16.892 V 412.12 h -0.511 c -4.24044,0 -7.678,3.43756 -7.678,7.678 v 40.949 c 0,4.24044 3.43756,7.678 7.678,7.678 h 8.7 v 9.215 h -16.89 c -4.27443,-0.0488 -7.76562,3.4028 -7.76562,7.6775 0,4.2747 3.49119,7.72628 7.76562,7.6775 h 81.899 c 4.27443,0.0488 7.76562,-3.4028 7.76562,-7.6775 0,-4.2747 -3.49119,-7.72628 -7.76562,-7.6775 h -16.891 v -9.215 h 8.701 c 5.96949,9.3e-4 9.6566,-6.512 6.584,-11.63 l -24.57,-40.948 c -1.36082,-2.26302 -3.78981,-3.66715 -6.43,-3.717 l 7.246,-86.965 c 9.923,-5.505 16.658,-16.087 16.658,-28.217 0,-15.136 -10.484,-27.861 -24.57,-31.316 V 155.945 c 9.51,-3.212 16.38,-12.213 16.38,-22.795 0,-13.265 -10.792,-24.058 -24.058,-24.058 h -8.7 V 91.689 h 33.27 c 2.75555,-5.5e-5 5.29981,-1.476547 6.667,-3.869 l 2.468,-4.322 h 46.295 l 13.496,53.979 c -6.66,4.283 -11.084,11.755 -11.084,20.244 0,10.581 6.869,19.582 16.38,22.795 v 44.5 c -9.511,3.212 -16.38,12.213 -16.38,22.795 v 6.378 l -7.38,14.758 c -0.91122,1.82129 -1.06123,3.93006 -0.417,5.862 l 8.19,24.57 c 1.39085,3.9548 5.69618,6.06356 9.67334,4.73802 3.97717,-1.32554 6.15654,-5.59556 4.89666,-9.59402 l -7.185,-21.552 4.646,-9.293 h 23.268 l 4.646,9.293 -7.185,21.552 c -1.34081,4.02287 0.83389,8.37092 4.857,9.711 0.78338,0.26216 1.60392,0.39622 2.43,0.397 3.30451,-0.002 6.23741,-2.11727 7.283,-5.252 l 8.19,-24.568 c 0.64305,-1.93362 0.49235,-4.04341 -0.419,-5.866 l -7.378,-14.758 v -6.378 c 0,-10.582 -6.87,-19.58 -16.381,-22.793 v -44.502 c 9.51,-3.213 16.38,-12.214 16.38,-22.795 0,-12.619 -9.766,-22.99 -22.136,-23.973 L 449.155,79.684 c 6.66,-4.283 11.082,-11.754 11.082,-20.243 0,-13.265 -10.793,-24.058 -24.058,-24.058 H 415.48 l 2.795,-4.893 c 2.92327,-5.118142 -0.77186,-11.485121 -6.666,-11.486 H 280.57 c -1.51614,-4.73e-4 -2.99846,0.448052 -4.26,1.289 L 256,33.834 235.69,20.293 c -1.26143,-0.841302 -2.74376,-1.290177 -4.26,-1.29 z m 13.231,15.355 h 70.2 l 5.995,41.973 h -52.21 z m 85.713,0 h 29.771 l 19.217,12.81 v 15.972 c -4.287,2.606 -7.166,7.307 -7.166,12.68 0,8.184 6.66,14.845 14.844,14.845 8.185,0 14.844,-6.66 14.844,-14.846 0,-5.372 -2.879,-10.073 -7.166,-12.68 V 47.17 l 19.217,-12.81 h 29.771 l -5.996,41.972 h -9.72 c -2.64728,4.17e-4 -5.10757,1.364724 -6.51,3.61 l -34.006,54.408 c -0.057,0.09 -0.15,0.24 -0.434,0.24 -0.284,0 -0.377,-0.15 -0.434,-0.24 L 221.561,79.94 c -1.40267,-2.244894 -3.86292,-3.608799 -6.51,-3.609 h -9.72 z m 128.844,0 h 70.199 l -23.984,41.973 h -52.211 z m -223.03,16.123 10.092,17.66 H 75.82 c -4.798,0 -8.7,-3.902 -8.7,-8.7 0,-4.799 3.902,-8.704 8.7,-8.704 h 27.387 c 0.673,0 1.32,-0.094 1.941,-0.256 z m 301.704,0 c 0.63343,0.167768 1.28573,0.253799 1.941,0.256 h 27.385 c 4.798,0 8.703,3.905 8.703,8.703 0,4.799 -3.905,8.702 -8.703,8.702 H 396.76 Z M 181.779,91.69 h 29.016 l 15.996,25.594 h -18.139 l -3.84,-5.119 c -1.44977,-1.93355 -3.72529,-3.07169 -6.142,-3.072 h -16.89 z m 119.426,0 h 29.016 v 17.403 h -16.89 c -2.41741,-3.1e-4 -4.69381,1.13788 -6.144,3.072 l -3.84,5.12 H 285.21 Z m -143.484,32.76 h 37.111 l 13.053,17.403 H 157.72 c -4.799,0 -8.701,-3.903 -8.701,-8.702 0,-4.798 3.902,-8.7 8.7,-8.7 z m 159.447,0 h 37.111 c 4.799,0 8.701,3.903 8.701,8.701 0,4.799 -3.902,8.702 -8.7,8.702 H 304.115 Z M 51.252,149.018 c 4.798,0 8.701,3.904 8.701,8.703 0,4.798 -3.903,8.7 -8.701,8.7 -4.798,0 -8.703,-3.902 -8.703,-8.7 0,-4.799 3.905,-8.703 8.703,-8.703 z m 409.496,0 c 4.798,0 8.703,3.904 8.703,8.703 0,4.798 -3.905,8.7 -8.703,8.7 -4.798,0 -8.701,-3.902 -8.701,-8.7 0,-4.799 3.903,-8.703 8.701,-8.703 z m -295.35,8.191 h 32.096 l -21.498,107.492 h -10.598 z m 149.108,0 h 32.096 V 264.701 H 336.004 Z M 51.252,239.107 c 4.798,0 8.701,3.903 8.701,8.702 v 0.513 H 42.55 v -0.513 c 0,-4.799 3.905,-8.702 8.703,-8.702 z m 409.496,0 c 4.798,0 8.703,3.903 8.703,8.702 v 0.513 h -17.404 v -0.513 c 0,-4.799 3.903,-8.702 8.701,-8.702 z m -303.027,40.95 h 16.892 v 33.785 h -16.892 c -9.314,0 -16.893,-7.579 -16.893,-16.893 0,-9.314 7.579,-16.892 16.893,-16.892 z m 179.666,0 h 16.892 c 9.314,0 16.893,7.578 16.893,16.892 0,9.314 -7.579,16.893 -16.893,16.893 h -16.892 z m -179.512,49.14 h 16.738 v 82.924 h -9.828 z m 179.512,0 h 16.738 l -6.91,82.924 h -9.828 z m -183.508,98.28 h 28.924 v 25.593 h -44.281 z m 175.318,0 h 28.926 l 15.354,25.593 h -44.28 z M 149.02,468.426 h 17.402 v 9.215 H 149.02 Z m 196.558,0 h 17.402 v 9.215 h -17.402 z"
       id="path3"
       sodipodi:nodetypes="cccssccsccscccccccccccccccccsccscccccccssccsccccccccsccscccssssccscscccccccccccccccccsssccsssscccsccsccccccccsccsscccccccsccsccccsccccccccccccsccsccssccccccccccccccccccsssccccccccsccccccccccccsssscccssscccccccccccccccccccccsscccsssccsssssssssscccccccccccsccsccssccsssccssscssscccccccccccccccccccccccccccccccc"
       transform="matrix(0.9994,0,0,1.00059,0.152,-0.151)"
       inkscape:label="path2" /><path
       d="m 481.1307,408.11739 -10.29817,0.081 c 0.5098,-6.36672 2.4871,-16.4037 8.99021,-28.24486 7.40846,-13.48934 7.84579,-26.9827 1.23097,-37.9945 -7.1352,-11.8784 -21.72416,-19.41469 -37.14097,-19.24308 h -0.14444 c -15.42134,-0.18067 -30.00576,7.36468 -37.14096,19.24308 -6.61482,11.0118 -6.17699,24.50516 1.23097,37.9945 6.53682,11.90357 8.51513,21.88921 9.01236,28.24486 l -10.32032,-0.081 -4.72912,-10.24382 -15.99104,7.38229 9.41144,20.387 37.62358,0.29642 1.29036,-7.34053 c 0.14896,-0.84598 3.47802,-21.0201 -10.8578,-47.1241 -4.38992,-7.99375 -4.91834,-14.87279 -1.57016,-20.44638 3.85546,-6.41905 12.85523,-10.80092 21.86909,-10.69977 l 0.0584,8.8e-4 0.42978,-8.8e-4 c 9.03198,-0.10719 18.01363,4.28072 21.86909,10.69977 3.34818,5.57359 2.81976,12.45263 -1.57016,20.44638 -14.33582,26.104 -11.00676,46.27812 -10.8578,47.1241 l 1.29036,7.34053 37.62358,-0.29642 9.41144,-20.387 -15.99204,-7.38279 z"
       id="path1"
       style="fill:#e64539;fill-opacity:1;stroke-width:2.45794"
       inkscape:label="path3" /></g></svg>
