<?xml version="1.0" encoding="UTF-8" standalone="no"?>
<svg
   style="height: 512px; width: 512px;"
   viewBox="0 0 512 512"
   version="1.1"
   id="svg2"
   sodipodi:docname="dragoon-plating-metalgear.svg"
   inkscape:version="1.4 (86a8ad7, 2024-10-11)"
   xmlns:inkscape="http://www.inkscape.org/namespaces/inkscape"
   xmlns:sodipodi="http://sodipodi.sourceforge.net/DTD/sodipodi-0.dtd"
   xmlns="http://www.w3.org/2000/svg"
   xmlns:svg="http://www.w3.org/2000/svg">
  <defs
     id="defs2">
    <filter
       style="color-interpolation-filters:sRGB;"
       inkscape:label="Drop Shadow"
       id="filter18"
       x="-0.076641608"
       y="-0.083253152"
       width="1.1532832"
       height="1.1665063">
      <feFlood
         result="flood"
         in="SourceGraphic"
         flood-opacity="1.000000"
         flood-color="rgb(58,63,94)"
         id="feFlood17" />
      <feGaussianBlur
         result="blur"
         in="SourceGraphic"
         stdDeviation="15.000000"
         id="feGaussianBlur17" />
      <feOffset
         result="offset"
         in="blur"
         dx="0.000000"
         dy="0.000000"
         id="feOffset17" />
      <feComposite
         result="comp1"
         operator="out"
         in="flood"
         in2="offset"
         id="feComposite17" />
      <feComposite
         result="comp2"
         operator="atop"
         in="comp1"
         in2="SourceGraphic"
         id="feComposite18" />
    </filter>
  </defs>
  <sodipodi:namedview
     id="namedview2"
     pagecolor="#505050"
     bordercolor="#ffffff"
     borderopacity="1"
     inkscape:showpageshadow="0"
     inkscape:pageopacity="0"
     inkscape:pagecheckerboard="1"
     inkscape:deskcolor="#505050"
     inkscape:zoom="1.5761719"
     inkscape:cx="256"
     inkscape:cy="229.35316"
     inkscape:window-width="1920"
     inkscape:window-height="1009"
     inkscape:window-x="-8"
     inkscape:window-y="-8"
     inkscape:window-maximized="1"
     inkscape:current-layer="svg2" />
  <path
     d="M0 0h512v512H0z"
     fill="#000"
     fill-opacity="1"
     id="path1"
     style="fill:#1b1f21" />
  <g
     class=""
     transform="translate(0,0)"
     id="g2"
     inkscape:label="g1"
     style="fill:#e64539;filter:url(#filter18)">
    <path
       id="path2"
       style="display:inline;fill:#e64539"
       d="m 157.54687,39.79197 c -20.642,13.654 -46.02249,22.502297 -69.437495,26.029297 6.792,48.935003 26.140695,84.133703 45.970695,97.845703 10.523,7.28 20.3563,9.01245 30.4043,5.56445 8.93,-3.064 18.63,-10.96975 27.75,-25.59375 -26.933,-30.227 -31.60555,-71.0517 -34.68555,-103.8457 z m 196.90625,0.0957 c -3.07999,32.789679 -7.78822,73.57792 -34.7207,103.77735 9.117,14.61 18.8572,22.50045 27.7832,25.56445 10.04701,3.448 19.85001,1.7155 30.375,-5.5625 19.8,-13.693 39.1205,-48.8213 45.9375,-97.6543 -24.495,-3.17 -47.802,-11.35 -69.375,-26.125 z m -98.5,12.96875 c -31.2,0 -58.7527,6.989297 -75.4707,17.654297 0.988,5.463 2.15046,10.912 3.56445,16.25 16.138,-6.942 42.3345,-11.470703 71.9375,-11.470703 29.604,0 55.79945,4.528703 71.93946,11.470703 1.41199,-5.338 2.57554,-10.787 3.56054,-16.25 -16.721,-10.672 -44.31525,-17.654297 -75.53125,-17.654297 z M 74.859375,97.008767 27.138672,142.47947 c 29.75,37.184 63.040703,56.82675 86.470708,58.71875 1.14499,0.092 2.25275,0.13525 3.34375,0.15625 a 226.987,226.987 0 0 1 6.5,-22.3457 c -21.72401,-15.023 -39.013755,-43.736 -48.593755,-82.000003 z m 362.249995,0.002 c -9.59008,38.259073 -26.87009,66.976293 -48.59375,81.998053 -0.03,0.022 -0.0627,0.0414 -0.0937,0.0644 a 228.142,228.142 0 0 1 6.5293,22.2793 c 1.11,-0.02 2.24025,-0.0593 3.40625,-0.1543 23.434,-1.892 56.75,-21.5257 86.5,-58.7207 z m -245,12.466793 v 0.002 c 4.54,9.7 10.45,18.6033 18.25,26.1543 l 5.125,4.9707 -3.43555,6.21875 a 133.77,133.77 0 0 1 -5.59375,9.31055 c 32.592,11.965 67.8615,11.1365 98.93751,-0.1875 a 133.39,133.39 0 0 1 -5.47071,-9.125 l -3.40625,-6.2168 5.09375,-4.9707 c 7.53,-7.29 13.30926,-15.84625 17.78125,-25.15625 -43.627,10.534 -85.40125,8.503 -127.28125,-1 z m -0.48633,64.02149 c -6.55232,6.10451 -13.57477,10.63653 -21.13476,13.23047 -9.62584,3.30313 -20.19399,3.13503 -30.14844,0.19531 -2.07051,6.14361 -3.89141,12.36926 -5.38085,18.67969 l -2,8.47266 -1.27345,8.53515 c -0.68518,4.59595 -1.16234,9.19725 -1.5332,13.79688 l 61.4707,61.46875 z m 128.78711,0.0586 v 122.65234 l 60.2207,-60.2207 v -10.52735 c -0.12779,-0.93662 -0.20247,-1.8796 -0.34375,-2.81445 l -1.2539,-8.29102 -2.07616,-8.71093 c -1.50631,-6.31421 -3.3426,-12.54279 -5.42775,-18.68946 -9.91507,2.90651 -20.43683,3.06014 -30.01952,-0.22851 -7.52675,-2.58369 -14.54516,-7.09114 -21.09962,-13.16992 z m -13.45507,1.39648 c -32.25088,10.64419 -68.07754,11.39989 -101.87696,0.25195 v 130.97461 h 101.87696 z m 169.125,4.90039 c -25.404,24.168 -52.06871,38.0168 -76.22071,39.9668 -0.427,0.034 -0.8543,0.0365 -1.27929,0.0625 a 215.632,215.632 0 0 1 2.27929,24.40625 c 22.806,3.78 54.72301,0.0983 90,-14.34375 z m -440.189455,0.0312 -14.75,50.06055 c 35.268,14.433 67.17075,18.12075 89.968755,14.34375 0.29,-8.18 1.0753,-16.33025 2.2793,-24.40625 -0.42501,-0.026 -0.85131,-0.0275 -1.2793,-0.0625 -24.145357,-1.94995 -50.819368,-15.77675 -76.218755,-39.93555 z m 344.388665,75.48438 -13.291,13.29101 0.002,58.08789 h -13.45508 l -0.002,-44.63476 -37.52149,37.52343 h -9.8164 v 88.17774 l 74.08398,-74.08399 z m -250.19336,0.002 v 78.36133 l 75.17383,75.17187 v -89.26758 h -10.9082 l -37.17188,-37.17187 0.002,44.2832 H 143.7266 l -0.002,-57.73828 z m 89.36914,25.29101 h 72.86914 v 13.45704 h -72.86914 z m -0.74023,38.97261 v 95.0957 h 74.02734 v -95.0957 z m -60.15625,61.60352 v 90.96679 h 57.61915 V 428.1865 h -10.66798 l -20.2168,-20.2168 0.002,47.11914 h -13.45703 l -0.002,-60.57617 z m 193.20703,0.0391 -12.34766,12.34765 v 61.46289 h -13.45507 l -0.002,-48.00781 -21.10741,21.10742 h -9.57617 v 44.01954 h 56.48827 z m -118.15625,6.85351 H 280.375 v 13.45508 h -46.76563 z m -3.97461,40.05469 v 44.01953 h 52.18751 v -44.01953 z" />
  </g>
</svg>
