<?xml version="1.0" encoding="UTF-8" standalone="no"?>
<!-- Generator: Adobe Illustrator 16.0.0, SVG Export Plug-In . SVG Version: 6.00 Build 0)  -->

<svg
   version="1.1"
   id="Capa_1"
   x="0px"
   y="0px"
   width="512"
   height="512"
   viewBox="0 0 511.99999 511.99999"
   xml:space="preserve"
   sodipodi:docname="drone_remote.svg"
   inkscape:version="1.4 (86a8ad7, 2024-10-11)"
   xmlns:inkscape="http://www.inkscape.org/namespaces/inkscape"
   xmlns:sodipodi="http://sodipodi.sourceforge.net/DTD/sodipodi-0.dtd"
   xmlns="http://www.w3.org/2000/svg"
   xmlns:svg="http://www.w3.org/2000/svg"><defs
   id="defs39"><filter
     style="color-interpolation-filters:sRGB;"
     inkscape:label="Drop Shadow"
     id="filter956"
     x="-0.17572387"
     y="-0.18316656"
     width="1.342117"
     height="1.3566304"><feFlood
       flood-opacity="1"
       flood-color="rgb(58,63,94)"
       result="flood"
       id="feFlood946" /><feComposite
       in="flood"
       in2="SourceGraphic"
       operator="out"
       result="composite1"
       id="feComposite948" /><feGaussianBlur
       in="composite1"
       stdDeviation="15"
       result="blur"
       id="feGaussianBlur950" /><feOffset
       dx="0"
       dy="0"
       result="offset"
       id="feOffset952" /><feComposite
       in="offset"
       in2="SourceGraphic"
       operator="atop"
       result="composite2"
       id="feComposite954" /></filter><filter
     style="color-interpolation-filters:sRGB;"
     inkscape:label="Drop Shadow"
     id="filter1006"
     x="-0.074768763"
     y="-0.077945958"
     width="1.1495375"
     height="1.1558919"><feFlood
       flood-opacity="1"
       flood-color="rgb(58,63,94)"
       result="flood"
       id="feFlood996" /><feComposite
       in="flood"
       in2="SourceGraphic"
       operator="out"
       result="composite1"
       id="feComposite998" /><feGaussianBlur
       in="composite1"
       stdDeviation="13.4805"
       result="blur"
       id="feGaussianBlur1000" /><feOffset
       dx="0"
       dy="0"
       result="offset"
       id="feOffset1002" /><feComposite
       in="offset"
       in2="SourceGraphic"
       operator="atop"
       result="composite2"
       id="feComposite1004" /></filter><filter
     style="color-interpolation-filters:sRGB;"
     inkscape:label="Drop Shadow"
     id="filter2"
     x="-0.083196575"
     y="-0.086731898"
     width="1.1663932"
     height="1.1734638"><feFlood
       result="flood"
       in="SourceGraphic"
       flood-opacity="1.000000"
       flood-color="rgb(58,63,94)"
       id="feFlood1" /><feGaussianBlur
       result="blur"
       in="SourceGraphic"
       stdDeviation="15.000000"
       id="feGaussianBlur1" /><feOffset
       result="offset"
       in="blur"
       dx="0.000000"
       dy="0.000000"
       id="feOffset1" /><feComposite
       result="comp1"
       operator="out"
       in="flood"
       in2="offset"
       id="feComposite1" /><feComposite
       result="comp2"
       operator="atop"
       in="comp1"
       in2="SourceGraphic"
       id="feComposite2" /></filter></defs><sodipodi:namedview
   id="namedview37"
   pagecolor="#505050"
   bordercolor="#eeeeee"
   borderopacity="1"
   inkscape:pageshadow="0"
   inkscape:pageopacity="0"
   inkscape:pagecheckerboard="0"
   showgrid="false"
   inkscape:zoom="1.3249103"
   inkscape:cx="207.18384"
   inkscape:cy="275.86773"
   inkscape:window-width="1920"
   inkscape:window-height="1009"
   inkscape:window-x="-8"
   inkscape:window-y="-8"
   inkscape:window-maximized="1"
   inkscape:current-layer="Capa_1"
   inkscape:showpageshadow="0"
   inkscape:deskcolor="#505050" />
















<path
   d="M 0,0 H 512 V 512 H 0 Z"
   fill="#b90202"
   fill-opacity="1"
   id="path902"
   style="display:inline;fill:#1b1f21;fill-opacity:1"
   inkscape:label="path01" /><g
   id="g4"
   transform="matrix(0.46435947,0,0,0.46435947,39.644811,39.645234)"
   style="fill:#1b1f21;fill-opacity:1"
   inkscape:label="group1">
	<path
   id="path2"
   style="fill:#e64539;stroke-width:0.464359;fill-opacity:1;filter:url(#filter2)"
   inkscape:label="path02"
   d="M 262.9082 48.464843 C 259.77595 48.448155 256.58472 48.636653 253.35742 49.042968 C 239.9379 50.761098 228.05065 55.961312 218.94921 63.437499 C 204.55407 56.936466 186.02652 56.565023 168.38086 63.855467 C 153.1963 70.12432 141.54116 80.803847 134.94726 93.109373 C 123.15253 95.709786 111.2183 101.97892 101.04883 111.73047 C 86.607241 125.56838 78.990672 143.30708 79.037108 159.46679 C 61.48432 169.21834 50.339494 185.98153 51.128905 203.85937 C 46.438875 211.0105 42.910171 219.41549 41.052733 228.65624 C 37.848653 244.67664 40.264591 260.18576 46.765624 272.44531 C 46.301265 299.51747 61.485543 322.87505 84.332029 327.42577 C 85.81798 327.70439 87.30311 327.93732 88.78906 328.07616 C 87.999649 333.69538 88.093006 339.40556 89.253904 345.11718 C 95.801373 378.13314 133.69272 398.42643 173.90625 390.43944 C 175.71679 390.06796 177.52839 389.6499 179.29296 389.18554 C 185.2832 398.79731 197.72851 394.66601 197.72851 394.66601 L 197.72851 430.23437 C 197.72851 434.04211 199.1676 437.66501 201.81445 440.45116 L 221.5039 461.20702 C 226.10059 466.0828 234.27343 462.78638 234.27343 456.0996 L 234.27343 415.88671 C 235.48076 379.61977 248.80679 361.69521 260.18359 354.86913 C 275.50746 345.62838 275.27647 326.4044 275.18359 319.39257 C 287.25694 325.75429 306.34289 329.37693 322.3164 327.5664 C 394.38452 319.25436 398.14496 270.77453 400.51366 262.83398 C 421.54868 264.41281 440.86613 255.49618 449.2246 238.36132 C 450.3855 235.94711 451.31473 233.43918 451.96483 230.93164 C 458.93023 226.79931 464.64212 220.9024 468.26366 213.47265 C 473.1868 203.44202 473.51047 192.11103 470.07421 181.33789 C 475.78629 163.55292 470.72444 141.12486 455.21483 123.75781 C 448.48162 116.23519 440.63426 110.52347 432.36913 106.80859 C 430.0009 102.90797 427.16845 99.100516 423.96483 95.478513 C 410.08049 79.92247 391.73756 71.563573 374.88085 71.470701 C 363.08612 62.415691 347.15884 55.543528 329.04882 52.710936 C 314.79298 50.48201 301.04839 51.040014 289.02148 53.826171 C 281.18542 50.413129 272.30495 48.514907 262.9082 48.464843 z M 333.39257 132.43945 C 338.14556 132.446 342.89934 132.45039 347.65234 132.45703 L 347.65234 145.63281 L 333.39257 145.63281 L 333.39257 135.21093 L 333.39257 132.43945 z M 160.05664 132.45312 L 174.32031 132.45312 L 174.32031 145.63867 L 160.05664 145.63867 L 160.05664 135.22265 L 160.05664 132.45312 z M 125.17773 149.89648 L 208.11523 149.89648 L 208.11523 164.14453 L 125.17773 164.14453 L 125.17773 152.66406 L 125.17773 149.89648 z M 299.54492 149.89648 L 382.53515 149.89648 L 382.53515 164.13281 L 299.54492 164.13281 L 299.54492 152.66406 L 299.54492 149.89648 z M 333.33984 168.38867 L 347.65234 168.38867 L 347.65234 189.22656 C 342.8812 189.2404 338.1108 189.18145 333.33984 189.15234 L 333.33984 171.1582 L 333.33984 168.38867 z M 160.04492 168.44531 L 174.32031 168.44531 L 174.32031 189.28125 L 160.04492 189.28125 L 160.04492 171.21289 L 160.04492 168.44531 z M 317.04882 193.44335 C 333.22533 193.46415 349.40356 193.48403 365.58007 193.5039 C 368.17305 203.89103 370.76184 214.27855 373.35351 224.66601 C 344.20427 230.14454 315.05543 235.62279 285.90624 241.10156 C 286.09334 242.11661 286.27968 243.13142 286.46679 244.14648 C 283.76552 254.91026 281.06544 265.67589 278.36327 276.43945 L 229.34374 276.43945 C 226.66742 265.67592 223.99071 254.91196 221.31445 244.14843 C 221.43847 243.13392 221.68203 242.11551 221.85156 241.0996 C 192.68476 235.60338 163.51852 230.1047 134.35156 224.60937 C 136.95143 214.23913 139.552 203.86963 142.15429 193.5 L 190.67187 193.5 L 190.67187 210.94726 C 203.45828 210.96316 216.24483 210.97825 229.03124 210.99414 C 231.93839 205.16292 234.84623 199.33094 237.7539 193.5 L 269.95898 193.5 C 272.86497 199.31462 275.77279 205.12918 278.67968 210.94335 C 291.45186 210.94335 304.2239 210.94335 316.99609 210.94335 C 317.01113 206.0313 317.02596 201.11909 317.04101 196.20703 C 317.04403 195.28573 317.04557 194.36466 317.04882 193.44335 z M 254.24023 206.67382 C 247.07646 206.57645 239.93902 209.3555 234.70117 214.23828 C 229.40239 219.09436 226.05234 226.02148 225.61914 233.20312 C 225.4905 235.90467 225.58626 238.61257 225.55664 241.3164 C 225.80559 241.75472 226.23935 242.12498 226.55859 242.5371 C 226.86109 243.15455 226.98062 243.87642 227.25195 244.52148 C 229.90927 251.96413 235.82747 258.15644 243.14453 261.14257 C 250.52236 264.22111 259.21215 263.9406 266.36913 260.37304 C 273.29659 256.98852 278.71276 250.65861 280.95117 243.27734 C 281.03536 242.57486 281.63921 242.15699 282.04492 241.63085 C 282.44685 241.36063 282.24343 240.87429 282.27148 240.4707 C 282.16827 238.12506 282.18021 235.77789 282.11913 233.43164 C 281.79168 226.39087 278.64181 219.55562 273.56835 214.67382 C 268.54462 209.75751 261.63688 206.81964 254.60351 206.67773 C 254.48295 206.67634 254.36079 206.67522 254.24023 206.67382 z M 253.32226 210.95117 C 258.91322 210.79714 264.51728 212.66658 268.87695 216.17382 C 273.89375 220.14049 277.19379 226.19393 277.77343 232.5664 C 278.28509 237.78336 277.11728 243.17292 274.33593 247.63085 C 270.8815 253.28606 264.97131 257.36395 258.45312 258.56835 C 252.04429 259.81562 245.15014 258.32933 239.86328 254.48632 C 234.48199 250.66097 230.814 244.52813 230.02148 237.9707 C 229.09094 230.85803 231.59941 223.40394 236.60937 218.27539 C 240.92828 213.75756 247.07438 211.06871 253.32226 210.95117 z M 254.33593 224.12499 C 251.0621 223.96502 247.80056 225.43025 245.67187 227.9082 C 242.9498 230.96977 242.20201 235.63942 243.91992 239.37109 C 245.61721 243.22491 249.69805 245.88901 253.91796 245.82421 C 257.86124 245.87755 261.64983 243.48696 263.45507 240.00781 C 265.07994 237.01852 265.11557 233.25684 263.57617 230.22656 C 261.87882 226.73681 258.22567 224.28201 254.33593 224.12499 z M 223.52539 232.06445 C 221.8971 232.50688 220.26891 232.95014 218.64062 233.39257 L 222.46289 237.80664 C 222.81743 235.89288 223.17085 233.9782 223.52539 232.06445 z M 284.24804 232.11914 C 284.60174 234.0375 284.95488 235.95468 285.30859 237.87304 C 286.58861 236.40089 287.87036 234.92918 289.15038 233.45703 C 287.51666 233.01082 285.88176 232.56534 284.24804 232.11914 z "
   transform="matrix(2.1535041,0,0,2.1535041,-85.375261,-85.376172)" />
</g></svg>
