<?xml version="1.0" encoding="UTF-8" standalone="no"?>
<svg
   style="height: 512px; width: 512px;"
   viewBox="0 0 512 512"
   version="1.1"
   id="svg2"
   sodipodi:docname="heavy-subdermal-armor.svg"
   inkscape:version="1.4 (86a8ad7, 2024-10-11)"
   xmlns:inkscape="http://www.inkscape.org/namespaces/inkscape"
   xmlns:sodipodi="http://sodipodi.sourceforge.net/DTD/sodipodi-0.dtd"
   xmlns="http://www.w3.org/2000/svg"
   xmlns:svg="http://www.w3.org/2000/svg">
  <defs
     id="defs2">
    <filter
       style="color-interpolation-filters:sRGB;"
       inkscape:label="Drop Shadow"
       id="filter3"
       x="-0.078119914"
       y="-0.081716037"
       width="1.1562398"
       height="1.1634321">
      <feFlood
         result="flood"
         in="SourceGraphic"
         flood-opacity="1.000000"
         flood-color="rgb(58,63,94)"
         id="feFlood2" />
      <feGaussianBlur
         result="blur"
         in="SourceGraphic"
         stdDeviation="15.000000"
         id="feGaussianBlur2" />
      <feOffset
         result="offset"
         in="blur"
         dx="0.000000"
         dy="0.000000"
         id="feOffset2" />
      <feComposite
         result="comp1"
         operator="out"
         in="flood"
         in2="offset"
         id="feComposite2" />
      <feComposite
         result="comp2"
         operator="atop"
         in="comp1"
         in2="SourceGraphic"
         id="feComposite3" />
    </filter>
  </defs>
  <sodipodi:namedview
     id="namedview2"
     pagecolor="#505050"
     bordercolor="#ffffff"
     borderopacity="1"
     inkscape:showpageshadow="0"
     inkscape:pageopacity="0"
     inkscape:pagecheckerboard="1"
     inkscape:deskcolor="#505050"
     inkscape:zoom="1.5761719"
     inkscape:cx="256"
     inkscape:cy="256"
     inkscape:window-width="1920"
     inkscape:window-height="1009"
     inkscape:window-x="-8"
     inkscape:window-y="-8"
     inkscape:window-maximized="1"
     inkscape:current-layer="svg2" />
  <path
     d="M0 0h512v512H0z"
     fill="#000"
     fill-opacity="1"
     id="path1"
     style="fill:#1b1f21" />
  <g
     class=""
     style="fill:#e64539;filter:url(#filter3)"
     transform="translate(0,0)"
     id="g2">
    <path
       d="m162 35.75-94.49 27.1c-12.05 6.3-23.47 23.9-31.01 46.35-6.07 18.2-9.62 38.9-10.93 58.3L136.7 112zm188 .1L375.4 112l111 55.6c-1.3-19.3-4.9-40.2-10.9-58.3-5.7-17.05-13.6-31.35-22.5-40.05-2.7-2.8-5.5-4.9-8.4-6.4zm-172.9 11.5-25.7 77.45-92.9 46.4 14.08 53.5 88.82 44.4 94.6-15.9 94.6 15.9 88.8-44.4 14.1-53.5-92.8-46.4-25.8-77.35h-10.5l-59.3 73.95-.1 61.1h-18.1l.1-61-59.3-74.15zM78.65 247.7l22.05 83.9 146.2-43.8v-14.7l-88.4 14.7zm354.75 0-80 40.1-88.4-14.7v14.7l146.3 43.8zm-186.5 58.7-31.6 9.6-35.1 70.2 66.7-33.3zm18.1 0v46.5l66.9 33.4-35.2-70.3zM191.7 323l-86.4 26 25.3 96.3zm128.6.1 61.1 122.1 25.3-96.2zm-55.3 50 .1 43.2 100.7 37.8-20.4-40.8zm-18.1 0-80.2 40.1-20.5 40.9L247 416.3zm.1 62.4-81.6 30.6 81.6 10.2zm18.1 0v40.7l81.7-10.2z"
       fill="#fff"
       fill-opacity="1"
       id="path2"
       style="fill:#e64539" />
  </g>
</svg>
