<?xml version="1.0" encoding="UTF-8" standalone="no"?>
<svg
   version="1.2"
   viewBox="-421 153 512 512"
   xml:space="preserve"
   width="512"
   height="512"
   id="svg4"
   sodipodi:docname="implanted_linearframe_omega.svg"
   inkscape:version="1.4 (86a8ad7, 2024-10-11)"
   xmlns:inkscape="http://www.inkscape.org/namespaces/inkscape"
   xmlns:sodipodi="http://sodipodi.sourceforge.net/DTD/sodipodi-0.dtd"
   xmlns="http://www.w3.org/2000/svg"
   xmlns:svg="http://www.w3.org/2000/svg"><sodipodi:namedview
     id="namedview4"
     pagecolor="#505050"
     bordercolor="#eeeeee"
     borderopacity="1"
     inkscape:showpageshadow="0"
     inkscape:pageopacity="0"
     inkscape:pagecheckerboard="0"
     inkscape:deskcolor="#505050"
     inkscape:zoom="0.78710938"
     inkscape:cx="131.4938"
     inkscape:cy="327.1464"
     inkscape:window-width="1920"
     inkscape:window-height="1009"
     inkscape:window-x="1912"
     inkscape:window-y="-8"
     inkscape:window-maximized="1"
     inkscape:current-layer="svg4" /><defs
     id="defs2"><filter
       style="color-interpolation-filters:sRGB"
       id="a"
       x="-0.051883143"
       y="-0.041817595"
       width="1.1037663"
       height="1.0836352"><feFlood
         flood-opacity="1"
         flood-color="#3A3F5E"
         result="flood"
         id="feFlood1" /><feComposite
         in="flood"
         in2="SourceGraphic"
         operator="out"
         result="composite1"
         id="feComposite1" /><feGaussianBlur
         in="composite1"
         stdDeviation="8.556"
         result="blur"
         id="feGaussianBlur1" /><feOffset
         result="offset"
         id="feOffset1" /><feComposite
         in="offset"
         in2="SourceGraphic"
         operator="atop"
         result="composite2"
         id="feComposite2" /></filter><filter
       style="color-interpolation-filters:sRGB;"
       inkscape:label="Drop Shadow"
       id="filter4"
       x="-0.090959229"
       y="-0.073312757"
       width="1.1819185"
       height="1.1466255"><feFlood
         result="flood"
         in="SourceGraphic"
         flood-opacity="1.000000"
         flood-color="rgb(58,63,94)"
         id="feFlood2" /><feGaussianBlur
         result="blur"
         in="SourceGraphic"
         stdDeviation="15.000000"
         id="feGaussianBlur2" /><feOffset
         result="offset"
         in="blur"
         dx="0.000000"
         dy="0.000000"
         id="feOffset2" /><feComposite
         result="comp1"
         operator="out"
         in="flood"
         in2="offset"
         id="feComposite3" /><feComposite
         result="comp2"
         operator="atop"
         in="comp1"
         in2="SourceGraphic"
         id="feComposite4" /></filter></defs><path
     d="M0 0h512v512H0Z"
     fill="#b90202"
     style="fill:#1b1f21;fill-opacity:1"
     transform="translate(-421 153)"
     id="path2" /><path
     id="path3"
     style="fill:#e64539;fill-opacity:1;stroke-width:3.85001;filter:url(#filter4)"
     d="M 333.42969 7.1855469 L 253.22266 7.2539062 L 253.2207 7.2539062 L 175.58398 7.1894531 C 175.58398 7.1894531 186.92836 87.591797 253.4043 87.591797 C 321.56623 87.591797 333.42969 7.1855469 333.42969 7.1855469 z M 156.67188 106.63672 C 102.1683 106.46839 57.942153 150.69369 58.109375 205.19727 L 58.109375 446.20703 C 58.109375 465.07201 73.125785 480.85742 92.759766 480.85742 C 112.39575 480.85742 127.41016 465.84201 127.41016 446.20703 L 127.41016 224.83203 C 127.41016 219.44204 132.03188 214.82227 137.42188 214.82227 C 142.81187 214.82227 147.42969 219.44204 147.42969 224.83203 L 147.42969 498.23242 L 245.99023 498.23242 L 245.99023 481.62695 C 245.99023 476.23696 250.61196 471.61719 256.00195 471.61719 C 261.39195 471.61719 266.00977 476.23696 266.00977 481.62695 L 266.00977 498.23242 L 364.56836 498.23242 L 364.56836 224.83203 C 364.56836 219.44204 369.19008 214.82227 374.58008 214.82227 C 379.97007 214.82227 384.58984 219.44204 384.58984 224.83203 L 384.58984 446.5918 C 384.58984 465.45678 399.60525 481.24219 419.24023 481.24219 C 438.87521 481.24219 453.89062 466.22678 453.89062 446.5918 L 453.89062 205.19727 C 452.35063 150.52732 407.30301 106.63672 353.78906 106.63672 L 156.67188 106.63672 z M 188.95508 154.14062 L 245.27539 154.14062 C 245.92669 154.14065 246.56351 154.3341 247.10547 154.69531 L 255.83398 160.51562 L 264.56445 154.69531 C 265.10636 154.33399 265.74321 154.14054 266.39453 154.14062 L 322.71289 154.14062 C 325.24795 154.13963 326.83758 156.87807 325.57812 159.07812 L 324.37695 161.18164 L 333.27344 161.18164 C 338.97543 161.18164 343.61328 165.81949 343.61328 171.52148 C 343.61328 175.16948 341.71161 178.3797 338.84961 180.2207 L 344.6582 203.45703 C 349.9752 203.87903 354.17188 208.33677 354.17188 213.75977 C 354.17188 218.30776 351.22081 222.17564 347.13281 223.55664 L 347.13281 242.68359 C 351.22081 244.06359 354.17188 247.93347 354.17188 252.48047 L 354.17188 255.2207 L 357.34375 261.56445 C 357.73475 262.34745 357.79944 263.25299 357.52344 264.08398 L 354.00391 274.64453 C 352.52701 278.64464 346.52403 276.64298 347.74219 272.55664 L 350.83008 263.29297 L 348.83398 259.30078 L 338.83203 259.30078 L 336.83594 263.29297 L 339.92383 272.55664 C 341.31583 276.7313 335.05411 278.81919 333.66211 274.64453 L 330.14258 264.08398 C 329.86593 263.25337 329.93037 262.34732 330.32227 261.56445 L 333.49219 255.2207 L 333.49219 252.48047 C 333.49219 247.93247 336.44621 244.06359 340.5332 242.68359 L 340.5332 223.55664 C 336.44621 222.17564 333.49219 218.30676 333.49219 213.75977 C 333.49219 210.11077 335.39482 206.90155 338.25781 205.06055 L 332.45703 181.86133 L 312.56055 181.86133 L 311.49805 183.71875 C 310.91035 184.7466 309.81681 185.38094 308.63281 185.38086 L 294.33398 185.38086 L 294.33398 192.86133 L 298.07422 192.86133 C 303.77621 192.86133 308.41406 197.50018 308.41406 203.20117 C 308.41406 207.74917 305.46104 211.61705 301.37305 212.99805 L 301.37305 260.14062 C 307.42704 261.62562 311.93359 267.09362 311.93359 273.59961 C 311.93359 278.8126 309.03843 283.35956 304.77344 285.72656 L 301.66016 323.10352 C 302.79491 323.12482 303.83866 323.72871 304.42383 324.70117 L 314.98242 342.30078 C 316.30194 344.49968 314.71872 347.29756 312.1543 347.29883 L 308.41406 347.29883 L 308.41406 351.25781 L 315.67383 351.25781 C 320.07382 351.25781 320.07382 357.85742 315.67383 357.85742 L 280.47461 357.85742 C 276.07461 357.85742 276.07461 351.25781 280.47461 351.25781 L 287.73438 351.25781 L 287.73438 347.29883 L 283.99414 347.29883 C 282.17183 347.29828 280.69391 345.82036 280.69336 343.99805 L 280.69336 326.39844 C 280.69436 324.57668 282.17238 323.09961 283.99414 323.09961 L 284.21289 323.09961 L 284.21289 276.90039 L 276.95312 276.90039 C 275.13098 276.89984 273.6543 275.42176 273.6543 273.59961 C 273.65375 271.77668 275.1302 270.29883 276.95312 270.29883 L 284.21289 270.29883 L 284.21289 263.36719 L 274.24805 213.54102 L 269.91406 213.54102 C 267.1938 213.54164 265.64045 210.43536 267.27344 208.25977 L 271.23438 202.98047 L 264.26367 202.98047 L 261.61719 207.21289 C 260.37643 209.21277 258.18748 210.42658 255.83398 210.41992 C 253.48044 210.42692 251.2914 209.21291 250.05078 207.21289 L 247.4043 202.98047 L 240.43359 202.98047 L 244.39453 208.25977 C 246.02752 210.43536 244.4742 213.54164 241.75391 213.54102 L 237.41992 213.54102 L 227.45508 263.36719 L 227.45508 270.29883 L 234.71484 270.29883 C 236.53699 270.29938 238.01367 271.77746 238.01367 273.59961 C 238.01422 275.42254 236.53777 276.90039 234.71484 276.90039 L 227.45508 276.90039 L 227.45508 323.09961 L 227.67383 323.09961 C 229.49559 323.09961 230.97351 324.57668 230.97461 326.39844 L 230.97461 343.99805 C 230.97461 345.82059 229.49637 347.29883 227.67383 347.29883 L 223.93555 347.29883 L 223.93555 351.25781 L 231.19531 351.25781 C 233.01707 351.25881 234.49414 352.73684 234.49414 354.55859 C 234.49469 356.38113 233.01785 357.85883 231.19531 357.85938 L 195.99414 357.85938 C 194.1716 357.85938 192.69531 356.38113 192.69531 354.55859 C 192.69476 352.73567 194.17121 351.25781 195.99414 351.25781 L 203.25586 351.25781 L 203.25586 347.29883 L 199.51562 347.29883 C 196.9503 347.29983 195.36517 344.50022 196.68555 342.30078 L 207.24609 324.70117 C 207.83126 323.72871 208.87502 323.1248 210.00977 323.10352 L 206.89453 285.72656 C 202.62954 283.36056 199.73437 278.8126 199.73438 273.59961 C 199.73438 267.09362 204.24093 261.62562 210.29492 260.14062 L 210.29492 212.99805 C 206.20693 211.61805 203.25586 207.74817 203.25586 203.20117 C 203.25586 197.50018 207.89571 192.86133 213.5957 192.86133 L 217.33398 192.86133 L 217.33398 185.38086 L 203.03516 185.38086 C 201.8511 185.38115 200.75746 184.74675 200.16992 183.71875 L 199.10938 181.86133 L 179.21289 181.86133 L 173.41211 205.05859 C 176.27311 206.89859 178.17578 210.11177 178.17578 213.75977 C 178.17578 218.30876 175.22176 222.17564 171.13477 223.55664 L 171.13477 242.68359 C 175.22176 244.06359 178.17578 247.93347 178.17578 252.48047 L 178.17578 255.2207 L 181.34766 261.56445 C 181.73766 262.34745 181.80239 263.25399 181.52539 264.08398 L 178.00586 274.64453 C 176.50869 278.60083 170.5677 276.61986 171.74414 272.55664 L 174.83203 263.29297 L 172.83594 259.29883 L 162.83594 259.29883 L 160.83789 263.29297 L 163.92578 272.55664 C 165.41408 276.77759 159.00957 278.91375 157.66602 274.64453 L 154.14453 264.08398 C 153.86788 263.25337 153.93232 262.34732 154.32422 261.56445 L 157.49609 255.2207 L 157.49609 252.48047 C 157.49609 247.93247 160.44716 244.06359 164.53516 242.68359 L 164.53516 223.55664 C 160.44716 222.17564 157.49609 218.30676 157.49609 213.75977 C 157.49609 208.33577 161.69277 203.88003 167.00977 203.45703 L 172.81836 180.2207 C 169.95636 178.3797 168.05469 175.17048 168.05469 171.52148 C 168.05469 165.82149 172.69254 161.18164 178.39453 161.18164 L 187.29102 161.18164 L 186.08984 159.07812 C 184.83192 156.87807 186.42079 154.14046 188.95508 154.14062 z M 194.64258 160.74219 L 204.94922 178.78125 L 227.38867 178.78125 L 224.8125 160.74219 L 194.64258 160.74219 z M 231.48047 160.74219 L 234.05664 178.78125 L 238.23438 178.78125 C 239.37255 178.78048 240.42962 179.36707 241.0332 180.33203 L 255.64844 203.71484 C 255.67344 203.75384 255.71198 203.81836 255.83398 203.81836 C 255.95598 203.81836 255.99748 203.75384 256.02148 203.71484 L 270.63477 180.33203 C 271.23816 179.36737 272.29577 178.78082 273.43359 178.78125 L 277.61133 178.78125 L 280.18945 160.74219 L 267.39258 160.74219 L 259.13477 166.24805 L 259.13477 173.11133 C 261.04411 174.26413 262.21224 176.33018 262.21484 178.56055 C 262.20984 182.08245 259.35589 184.937 255.83398 184.94141 C 252.3124 184.93741 249.45894 182.08213 249.45508 178.56055 C 249.45808 176.33018 250.62581 174.26413 252.53516 173.11133 L 252.53516 166.24805 L 244.27539 160.74219 L 231.48047 160.74219 z M 286.85547 160.74219 L 284.2793 178.78125 L 306.71875 178.78125 L 317.02734 160.74219 L 286.85547 160.74219 z M 191 167.66992 C 190.72787 167.74232 190.44762 167.77999 190.16602 167.78125 L 178.39453 167.78125 C 176.33006 167.78325 174.6579 169.45702 174.65625 171.52148 C 174.65825 173.58595 176.33006 175.25951 178.39453 175.26172 L 195.33789 175.26172 L 191 167.66992 z M 320.66797 167.66992 L 316.33203 175.26172 L 333.27344 175.26172 C 335.33784 175.25872 337.01092 173.58588 337.01367 171.52148 C 337.01067 169.45709 335.33784 167.784 333.27344 167.78125 L 321.50391 167.78125 C 321.21591 167.78125 320.93497 167.73892 320.66797 167.66992 z M 223.93555 185.38086 L 223.93555 192.86133 L 231.19531 192.86133 C 232.23331 192.86133 233.20998 193.35164 233.83398 194.18164 L 235.48438 196.38086 L 243.2793 196.38086 L 236.4043 185.38086 L 223.93555 185.38086 z M 275.26367 185.38086 L 268.38867 196.38086 L 276.18359 196.38086 L 277.83398 194.18164 C 278.4573 193.3508 279.43595 192.86149 280.47461 192.86133 L 287.73438 192.86133 L 287.73438 185.38086 L 275.26367 185.38086 z M 213.5957 199.46094 C 211.53092 199.46394 209.85767 201.13638 209.85547 203.20117 C 209.85847 205.26557 211.53131 206.93866 213.5957 206.94141 L 235.1543 206.94141 L 229.54492 199.46094 L 213.5957 199.46094 z M 282.12305 199.46094 L 276.51367 206.94141 L 298.07422 206.94141 C 300.13862 206.93841 301.8117 205.26557 301.81445 203.20117 L 301.8125 203.20117 C 301.8105 201.13709 300.1383 199.4637 298.07422 199.46094 L 282.12305 199.46094 z M 167.83594 210.01953 C 165.77154 210.02253 164.09845 211.69537 164.0957 213.75977 C 164.0987 215.82416 165.77154 217.49725 167.83594 217.5 C 169.90034 217.497 171.57342 215.82416 171.57617 213.75977 C 171.57317 211.69537 169.90034 210.02228 167.83594 210.01953 z M 343.83203 210.01953 C 341.76795 210.02253 340.0954 211.69569 340.09375 213.75977 C 340.09575 215.82384 341.76795 217.49724 343.83203 217.5 C 345.89643 217.497 347.56952 215.82416 347.57227 213.75977 C 347.56927 211.69537 345.89643 210.02228 343.83203 210.01953 z M 216.89453 213.54102 L 216.89453 259.74023 L 221.44922 259.74023 L 230.68945 213.54102 L 216.89453 213.54102 z M 280.97852 213.54102 L 290.21875 259.74023 L 294.77344 259.74023 L 294.77344 213.54102 L 280.98047 213.54102 L 280.97852 213.54102 z M 167.83594 248.74023 C 165.77154 248.74323 164.09845 250.41607 164.0957 252.48047 L 164.0957 252.69922 L 171.57617 252.69922 L 171.57617 252.48047 C 171.57317 250.41607 169.90034 248.74298 167.83594 248.74023 z M 343.83203 248.74023 C 341.76795 248.74323 340.0954 250.41639 340.09375 252.48047 L 340.09375 252.69922 L 347.57227 252.69922 L 347.57227 252.48047 C 347.56927 250.41607 345.89643 248.74298 343.83203 248.74023 z M 213.5957 266.33984 C 209.59271 266.33984 206.33594 269.59661 206.33594 273.59961 C 206.33594 277.60261 209.59271 280.85938 213.5957 280.85938 L 220.85547 280.85938 L 220.85547 266.33984 L 213.5957 266.33984 z M 290.81445 266.33984 L 290.81445 280.85938 L 298.07422 280.85938 C 302.07721 280.85938 305.33398 277.60261 305.33398 273.59961 C 305.33398 269.59661 302.07721 266.33984 298.07422 266.33984 L 290.81445 266.33984 z M 213.66211 287.45898 L 216.63086 323.09961 L 220.85547 323.09961 L 220.85547 287.45898 L 213.66211 287.45898 z M 290.81445 287.45898 L 290.81445 323.09961 L 295.03711 323.09961 L 298.00781 287.45898 L 290.81445 287.45898 z M 211.94336 329.69922 L 205.34375 340.69922 L 224.375 340.69922 L 224.375 329.69922 L 211.94336 329.69922 z M 287.29297 329.69922 L 287.29297 340.69922 L 306.32422 340.69922 L 299.72461 329.69922 L 287.29297 329.69922 z M 209.85547 347.29883 L 209.85547 351.25781 L 217.33398 351.25781 L 217.33398 347.29883 L 209.85547 347.29883 z M 294.33398 347.29883 L 294.33398 351.25781 L 301.81445 351.25781 L 301.81445 347.29883 L 294.33398 347.29883 z M 255.9375 366.9668 L 256.0625 366.9668 C 269.51482 366.81706 282.24471 373.39301 288.4707 383.75781 C 294.24263 393.36642 293.86093 405.13971 287.39648 416.91016 C 281.72204 427.24246 279.99757 436.0012 279.55273 441.55664 L 288.53906 441.48633 L 292.66406 432.54688 L 306.61914 438.98828 L 298.40625 456.77734 L 265.57617 457.03711 L 264.45117 450.63086 C 264.32118 449.89268 261.4167 432.28942 273.92578 409.51172 C 277.75631 402.53658 278.21646 396.53524 275.29492 391.67188 C 271.93075 386.07076 264.09396 382.24048 256.21289 382.33398 L 255.83789 382.33594 L 255.78711 382.33398 C 247.92184 382.24572 240.06925 386.07076 236.70508 391.67188 C 233.78354 396.53524 234.24369 402.53658 238.07422 409.51172 C 250.5833 432.28942 247.67882 449.89268 247.54883 450.63086 L 246.42383 457.03711 L 213.59375 456.77734 L 205.38086 438.98828 L 219.33398 432.54688 L 223.46094 441.48633 L 232.4668 441.55664 C 232.03294 436.01087 230.30738 427.29691 224.60352 416.91016 C 218.13951 405.13971 217.75737 393.36642 223.5293 383.75781 C 229.75529 373.39301 242.48122 366.80915 255.9375 366.9668 z "
     transform="translate(-421,153)" /></svg>
