<?xml version="1.0" encoding="UTF-8" standalone="no"?>
<svg
   width="512"
   height="512"
   viewBox="0 0 512 512"
   version="1.1"
   id="svg8"
   sodipodi:docname="prehensile-cyberfoot.svg"
   inkscape:version="1.4 (86a8ad7, 2024-10-11)"
   xmlns:inkscape="http://www.inkscape.org/namespaces/inkscape"
   xmlns:sodipodi="http://sodipodi.sourceforge.net/DTD/sodipodi-0.dtd"
   xmlns="http://www.w3.org/2000/svg"
   xmlns:svg="http://www.w3.org/2000/svg">
  <defs
     id="defs12">
    <filter
       style="color-interpolation-filters:sRGB;"
       inkscape:label="Drop Shadow"
       id="filter873"
       x="-0.081474374"
       y="-0.093713298"
       width="1.1629487"
       height="1.1874266">
      <feFlood
         flood-opacity="1"
         flood-color="rgb(58,63,94)"
         result="flood"
         id="feFlood863" />
      <feComposite
         in="flood"
         in2="SourceGraphic"
         operator="out"
         result="composite1"
         id="feComposite865" />
      <feGaussianBlur
         in="composite1"
         stdDeviation="15"
         result="blur"
         id="feGaussianBlur867" />
      <feOffset
         dx="0"
         dy="0"
         result="offset"
         id="feOffset869" />
      <feComposite
         in="offset"
         in2="SourceGraphic"
         operator="atop"
         result="composite2"
         id="feComposite871" />
    </filter>
    <filter
       style="color-interpolation-filters:sRGB;"
       inkscape:label="Drop Shadow"
       id="filter2"
       x="-0.081474374"
       y="-0.093713298"
       width="1.1629487"
       height="1.1874266">
      <feFlood
         result="flood"
         in="SourceGraphic"
         flood-opacity="1.000000"
         flood-color="rgb(58,63,94)"
         id="feFlood1" />
      <feGaussianBlur
         result="blur"
         in="SourceGraphic"
         stdDeviation="15.000000"
         id="feGaussianBlur1" />
      <feOffset
         result="offset"
         in="blur"
         dx="0.000000"
         dy="0.000000"
         id="feOffset1" />
      <feComposite
         result="comp1"
         operator="out"
         in="flood"
         in2="offset"
         id="feComposite1" />
      <feComposite
         result="comp2"
         operator="atop"
         in="comp1"
         in2="SourceGraphic"
         id="feComposite2" />
    </filter>
  </defs>
  <sodipodi:namedview
     id="namedview10"
     pagecolor="#505050"
     bordercolor="#eeeeee"
     borderopacity="1"
     inkscape:pageshadow="0"
     inkscape:pageopacity="0"
     inkscape:pagecheckerboard="0"
     showgrid="false"
     showguides="true"
     inkscape:guide-bbox="true"
     inkscape:zoom="1.5761719"
     inkscape:cx="256"
     inkscape:cy="352.43618"
     inkscape:window-width="1920"
     inkscape:window-height="1009"
     inkscape:window-x="-8"
     inkscape:window-y="-8"
     inkscape:window-maximized="1"
     inkscape:current-layer="svg8"
     inkscape:showpageshadow="0"
     inkscape:deskcolor="#505050" />
  <path
     d="M 0,0 H 512 V 512 H 0 Z"
     fill="#b90202"
     fill-opacity="1"
     id="path2"
     style="display:inline;fill:#1b1f21;fill-opacity:1"
     inkscape:label="background" />
  <g
     id="g1"
     style="fill:#e64539;filter:url(#filter2)">
    <path
       id="path4"
       style="display:inline;fill:#e64539;fill-opacity:1"
       inkscape:label="leg"
       d="M 22.398438 103.93164 L 22.398438 300.07227 C 91.826998 329.16031 256.64646 337.45308 329.49414 323.92969 C 318.53451 387.87098 327.75054 442.07016 340.0625 488.08203 C 451.59304 487.95445 340.06182 488.08235 450.89453 487.95898 C 455.12902 421.35006 461.78908 345.26268 463.83594 304.91992 C 464.85657 284.89 469.83276 204.24747 387.28906 176.70312 C 285.09818 142.56297 154.96591 117.14884 22.398438 103.93164 z M 257.45898 163.68164 C 258.20661 163.70189 259.3 163.92544 260.3125 164.4082 C 262.18643 165.30163 263.78588 166.79759 264.2168 170.03516 L 249.82812 201.79883 C 246.64442 206.50048 244.70595 207.70819 239.67383 211.47266 A 3.645 3.645 0 0 0 238.21289 214.29297 C 237.58433 237.8506 233.19293 247.81109 229.16602 251.87891 C 225.13951 255.94673 221.15646 255.14778 216.24219 256.37695 L 218.01172 263.44922 C 220.41539 262.8482 228.15805 263.25744 234.34766 257.00586 C 240.37487 250.91669 244.59711 239.38807 245.41602 216.27148 C 249.24449 213.40408 252.07564 211.1707 255.11719 206.9668 L 315.44336 197.38281 A 3.645 3.645 0 0 0 315.51953 197.37109 A 10.56726 10.56726 0 0 1 317.62695 197.19922 C 322.37031 197.30169 325.83641 200.76248 327.01172 204.51562 C 327.68361 206.6601 327.53359 208.68317 326.60938 210.25781 C 325.68475 211.83286 323.91376 213.30334 320.07031 213.96875 C 319.05781 214.14412 315.651 214.82701 310.61523 215.83789 C 305.58027 216.84796 299.13382 218.15008 292.77734 219.43555 C 280.06439 222.00608 267.70703 224.51367 267.70703 224.51367 A 3.645 3.645 0 0 0 268.33789 231.73047 L 325.18359 233.21289 C 328.41751 233.43119 333.41429 236.94872 334.60742 239.82422 C 335.2052 241.2644 335.21249 242.1319 334.39844 243.32422 C 333.6014 244.49224 331.45795 246.14301 327.04102 247.39648 C 326.88955 247.42693 326.63671 247.48076 326.42773 247.50586 C 325.97089 247.56094 325.30653 247.63556 324.48438 247.72266 C 322.83805 247.89762 320.54546 248.12575 317.83398 248.39062 C 312.41225 248.91914 305.30908 249.58804 298.25195 250.24414 C 284.13932 251.55472 270.20703 252.81641 270.20703 252.81641 A 3.645 3.645 0 0 0 270.0625 260.05859 L 320.70703 266.69727 C 323.26137 267.50606 325.87835 271.15103 326.03711 274.26953 C 326.11771 275.8547 325.73054 277.10302 324.79297 278.10742 C 323.86795 279.09684 322.19012 280.04425 318.96875 280.2832 C 318.86345 280.2772 318.74272 280.27001 318.5625 280.25781 C 318.11862 280.22662 317.47063 280.17793 316.6582 280.11523 C 315.03253 279.99049 312.74289 279.80821 310.01562 279.58789 C 304.56028 279.14725 297.35586 278.55521 290.19141 277.95703 C 283.02696 277.35803 275.89977 276.75272 270.60156 276.29102 C 267.95286 276.06017 265.75963 275.86434 264.25586 275.72461 C 263.50418 275.65416 262.92295 275.59709 262.5625 275.55859 C 262.42358 275.54369 262.35533 275.5353 262.30273 275.5293 C 262.24806 275.5196 262.22748 275.5113 262.14648 275.5 C 261.94277 275.47165 261.76503 275.3151 260.73633 275.57227 C 260.40099 275.65611 258.11523 278.09766 258.11523 278.09766 C 258.11523 278.09847 259.61305 282.18794 260.01562 282.38477 C 260.66241 282.70146 260.7196 282.66916 260.7832 282.66016 C 260.82937 282.67636 260.84939 282.68179 260.93359 282.71289 A 65.141415 65.141415 0 0 1 262.30859 283.24609 C 263.51873 283.72602 265.25165 284.43075 267.31836 285.28125 C 271.45179 286.98225 276.93297 289.26758 282.39844 291.55664 C 291.97872 295.56938 299.29968 298.66414 301.50977 299.59766 C 300.67547 303.28964 299.20695 305.08933 297.07422 306.31445 C 294.57051 307.75342 290.53406 308.35047 285.48047 308.56836 L 204.25586 283.50781 C 196.99786 280.34962 194.36475 273.99481 188.88672 267.37305 A 3.645 3.645 0 0 0 186.07812 266.05273 L 162.88086 266.05273 L 156.9668 269.46484 L 158.02734 220.96875 L 163.97656 224.34766 L 184.53125 224.16602 A 3.645 3.645 0 0 0 187.43164 222.68359 L 200.02148 205.62109 C 221.48202 199.53758 232.18953 192.36143 239.17578 184.875 C 246.19443 177.35294 249.33064 170.30403 256.73242 163.81836 C 256.81342 163.78878 257.08557 163.67309 257.45898 163.68359 L 257.45898 163.68164 z " />
  </g>
</svg>
