<?xml version="1.0" encoding="UTF-8" standalone="no"?>
<svg
   version="1.1"
   id="Layer_1"
   x="0px"
   y="0px"
   viewBox="0 0 512 512"
   height="512"
   width="512"
   xml:space="preserve"
   sodipodi:docname="professional_cyberhand.svg"
   inkscape:version="1.4.2 (f4327f4, 2025-05-13)"
   enable-background="new 0 0 512 512"
   xmlns:inkscape="http://www.inkscape.org/namespaces/inkscape"
   xmlns:sodipodi="http://sodipodi.sourceforge.net/DTD/sodipodi-0.dtd"
   xmlns="http://www.w3.org/2000/svg"
   xmlns:svg="http://www.w3.org/2000/svg"><defs
     id="defs41"><filter
       inkscape:label="Drop Shadow"
       id="filter905"
       x="-0.10289153"
       y="-0.070312363"
       width="1.2057831"
       height="1.1406247"
       color-interpolation-filters="sRGB"><feFlood
         flood-opacity="1"
         flood-color="rgb(58,63,94)"
         result="flood"
         id="feFlood895" /><feComposite
         in="flood"
         in2="SourceGraphic"
         operator="out"
         result="composite1"
         id="feComposite897" /><feGaussianBlur
         in="composite1"
         stdDeviation="15"
         result="blur"
         id="feGaussianBlur899" /><feOffset
         dx="0"
         dy="0"
         result="offset"
         id="feOffset901" /><feComposite
         in="offset"
         in2="SourceGraphic"
         operator="atop"
         result="composite2"
         id="feComposite903" /></filter><filter
       style="color-interpolation-filters:sRGB;"
       inkscape:label="Drop Shadow"
       id="filter4"
       x="-0.23579286"
       y="-0.28361962"
       width="1.4715857"
       height="1.5672392"><feFlood
         result="flood"
         in="SourceGraphic"
         flood-opacity="1.000000"
         flood-color="rgb(58,63,94)"
         id="feFlood3" /><feGaussianBlur
         result="blur"
         in="SourceGraphic"
         stdDeviation="13.17883"
         id="feGaussianBlur3" /><feOffset
         result="offset"
         in="blur"
         dx="0.000000"
         dy="-0.000000"
         id="feOffset3" /><feComposite
         result="comp1"
         operator="in"
         in="flood"
         in2="offset"
         id="feComposite3" /><feComposite
         result="comp2"
         operator="over"
         in="SourceGraphic"
         in2="comp1"
         id="feComposite4" /></filter></defs><sodipodi:namedview
     id="namedview39"
     pagecolor="#505050"
     bordercolor="#eeeeee"
     borderopacity="1"
     inkscape:pageshadow="0"
     inkscape:pageopacity="0"
     inkscape:pagecheckerboard="0"
     showgrid="false"
     inkscape:zoom="1.7050781"
     inkscape:cx="258.93242"
     inkscape:cy="271.83506"
     inkscape:window-width="1920"
     inkscape:window-height="1009"
     inkscape:window-x="-8"
     inkscape:window-y="-8"
     inkscape:window-maximized="1"
     inkscape:current-layer="Layer_1"
     inkscape:showpageshadow="2"
     inkscape:deskcolor="#d1d1d1" /><g
     id="g8" /><g
     id="g10" /><g
     id="g12" /><g
     id="g14" /><g
     id="g16" /><g
     id="g18" /><g
     id="g20" /><g
     id="g22" /><g
     id="g24" /><g
     id="g26" /><g
     id="g28" /><g
     id="g30" /><g
     id="g32" /><g
     id="g34" /><g
     id="g36" /><g
     id="g377"
     fill="#1b1f21"
     fill-opacity="1"><g
       id="g50"
       fill="#1b1f21"
       fill-opacity="1" /><g
       id="g52"
       fill="#1b1f21"
       fill-opacity="1" /><g
       id="g54"
       fill="#1b1f21"
       fill-opacity="1" /><g
       id="g56"
       fill="#1b1f21"
       fill-opacity="1" /><g
       id="g58"
       fill="#1b1f21"
       fill-opacity="1" /><g
       id="g60"
       fill="#1b1f21"
       fill-opacity="1" /><g
       id="g62"
       fill="#1b1f21"
       fill-opacity="1" /><g
       id="g64"
       fill="#1b1f21"
       fill-opacity="1" /><g
       id="g66"
       fill="#1b1f21"
       fill-opacity="1" /><g
       id="g68"
       fill="#1b1f21"
       fill-opacity="1" /><g
       id="g70"
       fill="#1b1f21"
       fill-opacity="1" /><g
       id="g72"
       fill="#1b1f21"
       fill-opacity="1" /><g
       id="g74"
       fill="#1b1f21"
       fill-opacity="1" /><g
       id="g76"
       fill="#1b1f21"
       fill-opacity="1" /><g
       id="g78"
       fill="#1b1f21"
       fill-opacity="1" /><g
       id="g274"
       transform="translate(207.84524,156.9712)"
       fill="#1b1f21"
       fill-opacity="1"><g
         id="g949"
         fill="#1b1f21"
         fill-opacity="1"><path
           d="m -207.84524,-156.9712 h 512 v 512 h -512 z"
           fill="#1b1f21"
           fill-opacity="1"
           id="path902" /><g
           id="g1524"
           transform="matrix(0.65299367,0.65095314,-0.65095314,0.65299367,760.96027,405.16803)"
           fill="#1b1f21"
           fill-opacity="1"><g
             class=""
             id="g1513"
             fill="#1b1f21"
             fill-opacity="1" /></g><g
           id="g1741"
           transform="matrix(0.73148951,-0.72519164,0.72519164,0.73148951,174.72172,-127.52936)"
           fill="#1b1f21"
           fill-opacity="1"><g
             class=""
             id="g1730"
             fill="#1b1f21"
             fill-opacity="1" /></g></g><g
         id="g8-6"
         transform="matrix(0.79325675,0,0,0.79325675,52.926272,52.926272)"
         fill="#1b1f21"
         fill-opacity="1" /><g
         id="g10-3"
         fill="#1b1f21"
         fill-opacity="1" /><g
         id="g12-6"
         fill="#1b1f21"
         fill-opacity="1" /><g
         id="g14-7"
         fill="#1b1f21"
         fill-opacity="1" /><g
         id="g16-7"
         fill="#1b1f21"
         fill-opacity="1" /><g
         id="g18-5"
         fill="#1b1f21"
         fill-opacity="1" /><g
         id="g20-5"
         fill="#1b1f21"
         fill-opacity="1" /><g
         id="g22-3"
         fill="#1b1f21"
         fill-opacity="1" /><g
         id="g24-5"
         fill="#1b1f21"
         fill-opacity="1" /><g
         id="g26-3"
         fill="#1b1f21"
         fill-opacity="1" /><g
         id="g28-6"
         fill="#1b1f21"
         fill-opacity="1" /><g
         id="g30-2"
         fill="#1b1f21"
         fill-opacity="1" /><g
         id="g32-5"
         fill="#1b1f21"
         fill-opacity="1" /><g
         id="g34-9"
         fill="#1b1f21"
         fill-opacity="1" /><g
         id="g36-1"
         fill="#1b1f21"
         fill-opacity="1" /><g
         id="g38"
         fill="#1b1f21"
         fill-opacity="1" /></g></g><g
     id="g6"
     transform="matrix(0.91512341,0,0,0.91512341,-0.40716209,21.727949)"
     fill="#e64539"
     fill-opacity="1"
     filter="url(#filter905)"><g
       id="g4"
       fill="#e64539"
       fill-opacity="1"><path
         d="m 430.924,341.154 -0.017,-191.821 c 0,-21.171 -17.237,-38.4 -38.417,-38.4 -7.868,0 -15.206,2.398 -21.316,6.502 V 55.467 c 0,-21.171 -17.237,-38.4 -38.417,-38.4 -8.9,0 -17.109,3.055 -23.637,8.183 C 303.734,10.53 289.586,0 273.023,0 251.86,0 234.64,17.229 234.64,38.4 v 2.236 c -6.11,-4.113 -13.457,-6.502 -21.35,-6.502 -21.163,0 -38.383,17.229 -38.383,38.4 v 150.835 c -7.706,-15.846 -17.468,-31.027 -28.117,-41.668 -13.833,-13.815 -41.088,-14.805 -56.09,-2.022 -4.881,4.156 -19.268,19.84 0.478,47.181 18.304,25.37 32.512,82.364 32.512,114.475 0,68.181 44.365,98.978 59.75,107.597 v 54.536 c 0,4.719 3.823,8.533 8.533,8.533 h 204.8 c 4.71,0 8.525,-3.806 8.533,-8.516 l 0.094,-57.037 c 25.669,-34.365 25.66,-38.418 25.524,-105.294 z m -153.617,76.979 h 25.6 c 4.71,0 8.533,3.814 8.533,8.533 0,4.719 -3.823,8.533 -8.533,8.533 h -25.6 c -4.71,0 -8.533,-3.814 -8.533,-8.533 -10e-4,-4.718 3.822,-8.533 8.533,-8.533 z m 34.133,51.2 h -42.667 c -4.71,0 -8.533,-3.814 -8.533,-8.533 0,-4.719 3.823,-8.533 8.533,-8.533 h 42.667 c 4.71,0 8.533,3.814 8.533,8.533 0,4.719 -3.823,8.533 -8.533,8.533 z"
         id="path2"
         fill="#e64539"
         fill-opacity="1" /></g></g><path
     d="m 277.62475,342.47227 c 0,7.40787 -6.00544,13.41397 -13.41398,13.41397 -7.40854,0 -13.41397,-6.0061 -13.41397,-13.41397 0,-7.40787 6.00543,-13.41398 13.41397,-13.41398 7.40854,0 13.41398,6.00611 13.41398,13.41398 z m -40.24192,0 c 0,-9.30058 4.73835,-17.487 11.92676,-22.30026 l -7.45528,-11.15593 c -10.78263,7.21953 -17.88546,19.50498 -17.88546,33.45619 0,13.9512 7.10283,26.23706 17.88546,33.45646 l 7.45528,-11.15707 c -7.18841,-4.81293 -11.92676,-12.99881 -11.92676,-22.29939 z m 53.65589,0 c 0,9.30058 -4.73849,17.48646 -11.92704,22.29939 l 7.45549,11.15707 c 10.78283,-7.2194 17.88553,-19.50526 17.88553,-33.45646 0,-13.95121 -7.1027,-26.23673 -17.88553,-33.45619 l -7.45549,11.15593 c 7.18855,4.81326 11.92704,12.99968 11.92704,22.30026 z m 10.43272,-55.75988 -7.45213,11.15184 c 14.37643,9.62573 23.84736,26.00762 23.84736,44.60804 0,18.60049 -9.47093,34.9823 -23.84736,44.60817 l 7.45213,11.15171 c 17.97003,-12.03166 29.8092,-32.50877 29.8092,-55.75988 0,-23.25078 -11.8385,-43.72788 -29.8092,-55.75988 z m -74.5212,111.51976 7.452,-11.15104 c -14.37677,-9.62654 -23.84736,-26.00835 -23.84736,-44.60884 0,-18.60042 9.47059,-34.98231 23.84736,-44.60884 l -7.452,-11.15104 c -17.97057,12.032 -29.80934,32.50823 -29.80934,55.75988 0,23.25179 11.83877,43.72822 29.80934,55.75988 z"
     id="Shape"
     style="fill:#1b1f21;fill-rule:evenodd;stroke:none;stroke-width:0.31439;filter:url(#filter4);fill-opacity:1" /></svg>
