<?xml version="1.0" encoding="UTF-8" standalone="no"?>
<svg
   width="512"
   height="512"
   viewBox="0 0 512 512"
   id="icon"
   version="1.1"
   sodipodi:docname="signal_jammer.svg"
   inkscape:version="1.4.2 (f4327f4, 2025-05-13)"
   xml:space="preserve"
   xmlns:inkscape="http://www.inkscape.org/namespaces/inkscape"
   xmlns:sodipodi="http://sodipodi.sourceforge.net/DTD/sodipodi-0.dtd"
   xmlns="http://www.w3.org/2000/svg"
   xmlns:svg="http://www.w3.org/2000/svg"
   xmlns:rdf="http://www.w3.org/1999/02/22-rdf-syntax-ns#"
   xmlns:cc="http://creativecommons.org/ns#"
   xmlns:dc="http://purl.org/dc/elements/1.1/"><sodipodi:namedview
     id="namedview20"
     pagecolor="#505050"
     bordercolor="#eeeeee"
     borderopacity="1"
     inkscape:pageshadow="0"
     inkscape:pageopacity="0"
     inkscape:pagecheckerboard="0"
     showgrid="false"
     inkscape:zoom="1.2056723"
     inkscape:cx="199.47377"
     inkscape:cy="172.93256"
     inkscape:window-width="1920"
     inkscape:window-height="1009"
     inkscape:window-x="-8"
     inkscape:window-y="-8"
     inkscape:window-maximized="1"
     inkscape:current-layer="icon"
     inkscape:showpageshadow="2"
     inkscape:deskcolor="#d1d1d1" /><defs
     id="defs4"><style
       id="style2">.cls-1{fill:none;}</style><filter
       inkscape:label="Drop Shadow"
       id="filter927"
       x="-0.3836973"
       y="-0.27660951"
       width="1.7470207"
       height="1.5385664"
       color-interpolation-filters="sRGB"><feFlood
         flood-opacity="1"
         flood-color="rgb(58,63,94)"
         result="flood"
         id="feFlood917" /><feComposite
         in="flood"
         in2="SourceGraphic"
         operator="out"
         result="composite1"
         id="feComposite919" /><feGaussianBlur
         in="composite1"
         stdDeviation="15"
         result="blur"
         id="feGaussianBlur921" /><feOffset
         dx="0"
         dy="0"
         result="offset"
         id="feOffset923" /><feComposite
         in="offset"
         in2="SourceGraphic"
         operator="atop"
         result="composite2"
         id="feComposite925" /></filter><filter
       inkscape:label="Drop Shadow"
       id="filter995"
       x="-0.086789246"
       y="-0.062575201"
       width="1.1735785"
       height="1.1251504"
       color-interpolation-filters="sRGB"><feFlood
         flood-opacity="1"
         flood-color="rgb(58,63,94)"
         result="flood"
         id="feFlood985" /><feComposite
         in="flood"
         in2="SourceGraphic"
         operator="out"
         result="composite1"
         id="feComposite987" /><feGaussianBlur
         in="composite1"
         stdDeviation="7.16628"
         result="blur"
         id="feGaussianBlur989" /><feOffset
         dx="0"
         dy="0"
         result="offset"
         id="feOffset991" /><feComposite
         in="offset"
         in2="SourceGraphic"
         operator="atop"
         result="composite2"
         id="feComposite993" /></filter><filter
       style="color-interpolation-filters:sRGB;"
       inkscape:label="Drop Shadow"
       id="filter28"
       x="-0.19052341"
       y="-0.1619456"
       width="1.3810468"
       height="1.3238912"><feFlood
         result="flood"
         in="SourceGraphic"
         flood-opacity="1.000000"
         flood-color="rgb(58,63,94)"
         id="feFlood27" /><feGaussianBlur
         result="blur"
         in="SourceGraphic"
         stdDeviation="15.000000"
         id="feGaussianBlur27" /><feOffset
         result="offset"
         in="blur"
         dx="0.000000"
         dy="-0.000000"
         id="feOffset27" /><feComposite
         result="comp1"
         operator="in"
         in="flood"
         in2="offset"
         id="feComposite27" /><feComposite
         result="comp2"
         operator="over"
         in="SourceGraphic"
         in2="comp1"
         id="feComposite28" /></filter></defs><title
     id="title6">hearing</title><metadata
     id="metadata22"><rdf:RDF><cc:Work
         rdf:about=""><dc:title>hearing</dc:title></cc:Work></rdf:RDF></metadata><g
     id="g141"
     transform="translate(472.0441,324.29739)"
     fill="#1b1f21"
     fill-opacity="1"><g
       id="g949"
       transform="translate(-472.0441,-324.29739)"
       fill="#1b1f21"
       fill-opacity="1"><path
         d="M 0,0 H 512 V 512 H 0 Z"
         fill="#1b1f21"
         fill-opacity="1"
         id="path902" /><g
         id="g1524"
         transform="matrix(0.65299367,0.65095314,-0.65095314,0.65299367,760.96027,405.16803)"
         fill="#1b1f21"
         fill-opacity="1"><g
           class=""
           id="g1513"
           fill="#1b1f21"
           fill-opacity="1" /></g><g
         id="g1741"
         transform="matrix(0.73148951,-0.72519164,0.72519164,0.73148951,174.72172,-127.52936)"
         fill="#1b1f21"
         fill-opacity="1"><g
           class=""
           id="g1730"
           fill="#1b1f21"
           fill-opacity="1" /></g></g><g
       id="g10"
       fill="#1b1f21"
       fill-opacity="1" /><g
       id="g12"
       fill="#1b1f21"
       fill-opacity="1" /><g
       id="g14"
       fill="#1b1f21"
       fill-opacity="1" /><g
       id="g16"
       fill="#1b1f21"
       fill-opacity="1" /><g
       id="g18"
       fill="#1b1f21"
       fill-opacity="1" /><g
       id="g20"
       fill="#1b1f21"
       fill-opacity="1" /><g
       id="g22"
       fill="#1b1f21"
       fill-opacity="1" /><g
       id="g24"
       fill="#1b1f21"
       fill-opacity="1" /><g
       id="g26"
       fill="#1b1f21"
       fill-opacity="1" /><g
       id="g28"
       fill="#1b1f21"
       fill-opacity="1" /><g
       id="g30-3"
       fill="#1b1f21"
       fill-opacity="1" /><g
       id="g32"
       fill="#1b1f21"
       fill-opacity="1" /><g
       id="g34"
       fill="#1b1f21"
       fill-opacity="1" /><g
       id="g36"
       fill="#1b1f21"
       fill-opacity="1" /><g
       id="g38"
       fill="#1b1f21"
       fill-opacity="1" /></g><rect
     id="_Transparent_Rectangle_"
     data-name="&lt;Transparent Rectangle&gt;"
     class="cls-1"
     width="464.30585"
     height="464.30585"
     x="23.847076"
     y="23.847076"
     stroke-width="14.5096" /><g
     id="g258"
     transform="matrix(1.6810603,0,0,1.6810603,24.976998,24.976926)"
     fill="#e64539"
     fill-opacity="1"
     filter="url(#filter995)"><path
       id="path205"
       d="m 255.99414,24.976562 c -91.84305,0 -166.562499,74.71831 -166.562499,166.566408 V 374.0332 c 0,70.75079 31.797019,112.99024 85.054689,112.99024 77.14722,0 102.74477,-54.15885 118.03906,-86.51758 l 0.37891,-0.80274 c 17.10983,-36.18986 39.32963,-51.71691 60.82031,-66.73046 34.89377,-24.38042 67.85197,-47.41048 68.83203,-141.30274 C 423.05423,143.82863 407.56816,102.62658 377.77539,72.521484 347.43327,41.861293 304.18342,24.976566 255.99414,24.976562 Z"
       fill="#e64539"
       stroke-width="1.68106"
       fill-opacity="1"
       sodipodi:nodetypes="ssssccccss"
       transform="matrix(0.59486266,0,0,0.59486266,-14.857883,-14.857841)" /><g
       id="g207"
       fill="#e64539"
       fill-opacity="1" /><g
       id="g209"
       fill="#e64539"
       fill-opacity="1" /><g
       id="g211"
       fill="#e64539"
       fill-opacity="1" /><g
       id="g213"
       fill="#e64539"
       fill-opacity="1" /><g
       id="g215"
       fill="#e64539"
       fill-opacity="1" /><g
       id="g217"
       fill="#e64539"
       fill-opacity="1" /><g
       id="g219"
       fill="#e64539"
       fill-opacity="1" /><g
       id="g221"
       fill="#e64539"
       fill-opacity="1" /><g
       id="g223"
       fill="#e64539"
       fill-opacity="1" /><g
       id="g225"
       fill="#e64539"
       fill-opacity="1" /><g
       id="g227"
       fill="#e64539"
       fill-opacity="1" /><g
       id="g229"
       fill="#e64539"
       fill-opacity="1" /><g
       id="g231"
       fill="#e64539"
       fill-opacity="1" /><g
       id="g233"
       fill="#e64539"
       fill-opacity="1" /><g
       id="g235"
       fill="#e64539"
       fill-opacity="1" /></g><g
     id="g267"
     transform="matrix(0.44703594,0,0,0.44703594,140.02952,77.284813)"><g
       id="g212"><g
         id="g210" /></g><g
       id="g214" /><g
       id="g216" /><g
       id="g218" /><g
       id="g220" /><g
       id="g222" /><g
       id="g224" /><g
       id="g226" /><g
       id="g228" /><g
       id="g230" /><g
       id="g232" /><g
       id="g234" /><g
       id="g236" /><g
       id="g238" /><g
       id="g240" /><g
       id="g242" /></g><g
     id="radar_2_fill"
     style="fill:none;fill-rule:nonzero;stroke:none;stroke-width:1"
     transform="matrix(33.333333,0,0,33.333333,-225,-137)"><path
       d="M 24,0 V 24 H 0 V 0 Z m -11.40651,23.257841 -0.01155,0.0017 -0.07106,0.03553 -0.019,0.0037 v 0 l -0.01516,-0.0037 -0.07106,-0.03553 c -0.0098,-0.0031 -0.01861,-4.89e-4 -0.02351,0.0054 l -0.0041,0.01092 -0.01709,0.427279 0.005,0.02039 0.01101,0.01222 0.103573,0.07398 0.01487,0.0039 v 0 l 0.01177,-0.0039 0.103575,-0.07398 0.0126,-0.01604 v 0 l 0.0034,-0.01656 -0.01709,-0.427279 c -0.002,-0.01013 -0.0085,-0.01653 -0.01607,-0.01799 z m 0.264901,-0.112555 -0.01384,0.002 -0.184705,0.09235 -0.01,0.01024 v 0 l -0.0027,0.01121 0.0179,0.429528 0.0048,0.01278 v 0 l 0.0085,0.0071 0.200954,0.09275 c 0.01209,0.0037 0.02289,-2.52e-4 0.02849,-0.008 l 0.004,-0.01406 -0.03415,-0.614631 c -0.0024,-0.01194 -0.01027,-0.01953 -0.01929,-0.02125 z m -0.715344,0.002 c -0.0098,-0.0049 -0.02087,-0.002 -0.02741,0.0053 l -0.0057,0.01394 -0.03415,0.614631 c -6.39e-4,0.0115 0.007,0.0207 0.01688,0.0234 l 0.01561,-0.0013 0.200955,-0.09275 0.0094,-0.0081 v 0 l 0.0039,-0.0118 0.0179,-0.429528 -0.0032,-0.01259 v 0 l -0.0095,-0.0089 z"
       id="MingCute"
       fill-rule="nonzero" /></g><path
     id="形状"
     style="fill:#1b1f21;fill-opacity:1;stroke-width:11.1149;filter:url(#filter28)"
     d="m 278.9767,85.552734 c -6.13872,0 -11.11524,4.976735 -11.11524,11.115235 0,6.138501 4.97652,11.113281 11.11524,11.113281 5.83862,0 11.61965,1.15047 17.01367,3.38477 5.39403,2.2343 10.29578,5.50833 14.42383,9.63671 4.12916,4.1285 7.40263,9.02969 9.63671,14.42383 2.23409,5.39402 3.38477,11.17516 3.38477,17.01367 l 0.0762,1.29688 c 0.64204,5.5278 5.33882,9.81836 11.03906,9.81836 6.13872,0 11.11524,-4.97674 11.11524,-11.11524 0,-8.75771 -1.72505,-17.42849 -5.07617,-25.51953 -3.35224,-8.09104 -8.26385,-15.4441 -14.45703,-21.63672 -6.19207,-6.192625 -13.54317,-11.103614 -21.63477,-14.455074 -8.09159,-3.35145 -16.76411,-5.076172 -25.52148,-5.076172 z m -85.01563,17.056646 c -4.35564,0.0148 -8.73843,1.75118 -12.03125,5.45898 -15.67969,17.65568 -25.2168,40.92916 -25.2168,66.40234 0,34.30148 17.26477,64.57133 43.57813,82.5918 l -13.92774,33.91602 c -3.30422,8.04602 2.61092,16.87109 11.3086,16.87109 h 73.13476 c 10.05448,0 15.81145,-11.45936 9.81055,-19.52539 l -10.90234,-14.6543 c 20.36682,-2.63866 38.82315,-11.40541 53.43359,-24.38086 7.41581,-6.58553 6.94584,-17.53574 0.58594,-23.89453 l -48.31641,-48.31836 0.97071,-0.9707 c 4.34034,-4.34012 4.34034,-11.37808 0,-15.71875 -4.34035,-4.34056 -11.3784,-4.34056 -15.71875,0 l -0.97071,0.9707 -53.875,-53.875 c -3.17984,-3.17983 -7.50764,-4.88786 -11.86328,-4.87304 z m 83.96875,16.71093 c -5.16778,0.14113 -9.69819,3.89391 -10.63086,9.1836 -1.06591,6.04525 2.97029,11.80909 9.01563,12.875 l 1.70703,0.39453 c 2.8006,0.80444 5.35197,2.33275 7.39062,4.44336 2.44526,2.53263 4.02742,5.77522 4.51758,9.26172 l 0.25391,1.27343 c 1.40461,5.38469 6.65432,8.97882 12.29883,8.18555 6.0787,-0.85429 10.31372,-6.47392 9.45898,-12.55273 -1.14371,-8.13539 -4.83271,-15.69985 -10.53906,-21.60938 -5.70747,-5.90954 -13.13804,-9.86064 -21.22852,-11.28711 -0.75567,-0.13325 -1.50588,-0.18813 -2.24414,-0.16797 z m -57.91211,148.22461 c 6.91742,2.73202 14.21262,4.71589 21.78516,5.84961 l 9.0957,12.22461 h -38.30273 z" /></svg>
