<?xml version="1.0" encoding="UTF-8" standalone="no"?>
<svg
   style="height: 512px; width: 512px;"
   viewBox="0 0 512 512"
   version="1.1"
   id="svg2"
   sodipodi:docname="cyberskull-faceplate.svg"
   inkscape:version="1.4 (86a8ad7, 2024-10-11)"
   xmlns:inkscape="http://www.inkscape.org/namespaces/inkscape"
   xmlns:sodipodi="http://sodipodi.sourceforge.net/DTD/sodipodi-0.dtd"
   xmlns="http://www.w3.org/2000/svg"
   xmlns:svg="http://www.w3.org/2000/svg">
  <defs
     id="defs2">
    <filter
       style="color-interpolation-filters:sRGB;"
       inkscape:label="Drop Shadow"
       id="filter3"
       x="-0.11401425"
       y="-0.075814213"
       width="1.2280285"
       height="1.1516284">
      <feFlood
         result="flood"
         in="SourceGraphic"
         flood-opacity="1.000000"
         flood-color="rgb(58,63,94)"
         id="feFlood2" />
      <feGaussianBlur
         result="blur"
         in="SourceGraphic"
         stdDeviation="15.000000"
         id="feGaussianBlur2" />
      <feOffset
         result="offset"
         in="blur"
         dx="0.000000"
         dy="0.000000"
         id="feOffset2" />
      <feComposite
         result="comp1"
         operator="out"
         in="flood"
         in2="offset"
         id="feComposite2" />
      <feComposite
         result="comp2"
         operator="atop"
         in="comp1"
         in2="SourceGraphic"
         id="feComposite3" />
    </filter>
  </defs>
  <sodipodi:namedview
     id="namedview2"
     pagecolor="#505050"
     bordercolor="#ffffff"
     borderopacity="1"
     inkscape:showpageshadow="0"
     inkscape:pageopacity="0"
     inkscape:pagecheckerboard="1"
     inkscape:deskcolor="#505050"
     inkscape:zoom="1.5761719"
     inkscape:cx="256"
     inkscape:cy="256"
     inkscape:window-width="1920"
     inkscape:window-height="1009"
     inkscape:window-x="-8"
     inkscape:window-y="-8"
     inkscape:window-maximized="1"
     inkscape:current-layer="svg2" />
  <path
     d="M0 0h512v512H0z"
     fill="#000"
     fill-opacity="1"
     id="path1"
     style="fill:#1b1f21" />
  <g
     class=""
     style="fill:#e64539;filter:url(#filter3)"
     transform="translate(0,0)"
     id="g2">
    <path
       d="M256.25 18.25c-31.81 0-61.71 14.253-86.906 39.438L191 246.905h35.125c19.944 0 19.7 37.852.688 38.75v64.156h59.218v-64.187c-20.043-1.644-19.334-38.72 1.376-38.72h34.75L343.78 58.313C318.455 32.74 288.323 18.25 256.25 18.25zM152.687 76.813a213.476 213.476 0 0 0-6.937 9.687c-29.025 42.865-47.375 102.888-47.375 169.375s18.35 126.542 47.375 169.406c26.88 39.698 62.346 64.383 101.156 67.814v-63.97H212.53c-21.46 0-21.18-38.78 0-38.78h88.5c20.185 0 19.697 38.78 0 38.78h-35.436v63.97c38.81-3.43 74.276-28.116 101.156-67.813 29.025-42.863 47.375-102.918 47.375-169.405S395.775 129.365 366.75 86.5a214.762 214.762 0 0 0-6.375-8.938L340.97 246.906h34.936c20.184 0 19.696 38.78 0 38.78l-71.187.002V368.5h-96.596v-82.814l-70.5.002c-21.462 0-21.18-38.782 0-38.782h34.563l-19.5-170.094z"
       fill="#fff"
       fill-opacity="1"
       id="path2"
       style="fill:#e64539" />
  </g>
</svg>
